<svg width="129" height="71" viewBox="0 0 129 71" fill="none" xmlns="http://www.w3.org/2000/svg">
<path d="M46.8206 56.0035C45.6668 57.4432 44.1506 58.1628 42.2719 58.1628C41.4857 58.1628 40.7659 58.03 40.1125 57.7648C39.4592 57.4993 38.9002 57.1318 38.4357 56.662C37.9709 56.1925 37.6084 55.6308 37.3481 54.9775C37.0876 54.3242 36.9575 53.6043 36.9575 52.8179C36.9575 52.0422 37.0849 51.3246 37.3404 50.6661C37.5955 50.0076 37.958 49.4357 38.428 48.9508C38.8971 48.466 39.4592 48.0881 40.1125 47.8175C40.7659 47.547 41.4857 47.4117 42.2719 47.4117C43.1601 47.4117 43.982 47.5599 44.7376 47.8557C45.4932 48.1521 46.1315 48.6674 46.652 49.4027L44.8602 51.2099C44.5744 50.8218 44.2323 50.5106 43.8342 50.2755C43.4359 50.0408 42.9815 49.9234 42.4712 49.9234C42.0422 49.9234 41.6595 49.9949 41.3225 50.1377C40.9856 50.2809 40.702 50.4798 40.4726 50.7349C40.2427 50.9904 40.0666 51.2891 39.9442 51.631C39.8215 51.9732 39.7602 52.3432 39.7602 52.7412C39.7602 53.1499 39.8238 53.5278 39.9516 53.8747C40.0793 54.2219 40.2605 54.5233 40.4954 54.7781C40.7303 55.0336 41.0134 55.2327 41.3456 55.3755C41.6772 55.5188 42.0474 55.5899 42.4558 55.5899C43.0478 55.5899 43.5303 55.4853 43.903 55.276C44.2757 55.0669 44.6405 54.7376 44.998 54.2882L46.8206 56.0035Z" fill="#EA0B8B"/>
<path d="M52.4591 55.6055C52.8571 55.6055 53.212 55.5317 53.5236 55.3835C53.8348 55.2357 54.0979 55.0339 54.3122 54.7784C54.5265 54.5236 54.6897 54.2222 54.8022 53.875C54.9144 53.5281 54.9707 53.1604 54.9707 52.7723C54.9707 52.3844 54.9144 52.0167 54.8022 51.6695C54.6897 51.3226 54.5265 51.0212 54.3122 50.7659C54.0979 50.5109 53.8348 50.3093 53.5236 50.161C53.212 50.0133 52.8571 49.9388 52.4591 49.9388C52.0608 49.9388 51.7062 50.0133 51.3948 50.161C51.0832 50.3093 50.8205 50.5109 50.6057 50.7659C50.3914 51.0212 50.228 51.3226 50.1156 51.6695C50.0031 52.0167 49.9472 52.3844 49.9472 52.7723C49.9472 53.1604 50.0031 53.5281 50.1156 53.875C50.228 54.2222 50.3914 54.5236 50.6057 54.7784C50.8205 55.0339 51.0832 55.2357 51.3948 55.3835C51.7062 55.5317 52.0608 55.6055 52.4591 55.6055ZM52.4591 58.1479C51.6933 58.1479 50.9861 58.0124 50.3378 57.742C49.6895 57.4715 49.128 57.0988 48.6532 56.6241C48.1783 56.1493 47.8083 55.5827 47.5428 54.9241C47.2771 54.2654 47.1445 53.5483 47.1445 52.7723C47.1445 51.9965 47.2771 51.279 47.5428 50.6204C47.8083 49.9619 48.1783 49.3953 48.6532 48.9205C49.128 48.4457 49.6895 48.0757 50.3378 47.8101C50.9861 47.5448 51.6933 47.412 52.4591 47.412C53.2249 47.412 53.9343 47.5448 54.5879 47.8101C55.2414 48.0757 55.8028 48.4457 56.2726 48.9205C56.742 49.3953 57.1095 49.9619 57.3751 50.6204C57.6408 51.279 57.7732 51.9965 57.7732 52.7723C57.7732 53.5483 57.6408 54.2654 57.3751 54.9241C57.1095 55.5827 56.742 56.1493 56.2726 56.6241C55.8028 57.0988 55.2414 57.4715 54.5879 57.742C53.9343 58.0124 53.2249 58.1479 52.4591 58.1479Z" fill="#EA0B8B"/>
<path d="M59.2164 47.6876H61.8046L64.2859 52.1443L66.7207 47.6876H69.3242L69.7992 57.9028H67.0578L66.8127 51.9146L65.0209 55.4066H63.5353L61.5443 51.9146L61.345 57.9028H58.7415L59.2164 47.6876Z" fill="#EA0B8B"/>
<path d="M71.3954 47.6876H73.9836L76.4649 52.1443L78.8999 47.6876H81.5034L81.9782 57.9028H79.2368L78.9917 51.9146L77.1999 55.4066H75.7143L73.7233 51.9146L73.5242 57.9028H70.9207L71.3954 47.6876Z" fill="#EA0B8B"/>
<path d="M83.188 47.6874H85.8988V53.6756C85.8988 54.2373 86.0289 54.6966 86.2892 55.054C86.5494 55.4115 86.9807 55.5899 87.5831 55.5899C88.1855 55.5899 88.6144 55.4088 88.8698 55.0463C89.1247 54.684 89.2525 54.2269 89.2525 53.6756V47.6874H91.9941V53.9207C91.9941 54.5742 91.8868 55.1639 91.6723 55.6894C91.458 56.2155 91.1541 56.662 90.761 57.0295C90.3679 57.3973 89.9034 57.6781 89.3675 57.8718C88.8314 58.0658 88.2417 58.1628 87.5983 58.1628C86.9554 58.1628 86.363 58.0658 85.8217 57.8718C85.2808 57.6781 84.8135 57.3998 84.4206 57.0372C84.0274 56.6749 83.7239 56.2307 83.5094 55.7048C83.295 55.1791 83.188 54.5844 83.188 53.9207V47.6874Z" fill="#EA0B8B"/>
<path d="M93.5156 47.6876H95.9816L99.9024 53.3848V47.6876H102.582V57.9028H100.27L96.1959 52.037V57.9028H93.5156V47.6876Z" fill="#EA0B8B"/>
<path d="M104.195 47.6876H106.906V57.9028H104.195V47.6876Z" fill="#EA0B8B"/>
<path d="M111.27 50.0614H108.131V47.6876H117.121V50.0614H114.012V57.9028H111.27V50.0614Z" fill="#EA0B8B"/>
<path d="M121.176 53.829L117.546 47.6876H120.655L122.646 51.3326L124.515 47.6876H127.532L123.887 53.8137V57.9028H121.176V53.829Z" fill="#EA0B8B"/>
<path d="M37.4062 60.2952H43.5408V61.5545H38.8116V64.5411H42.4136V65.7858H38.8116V70.0613H37.4062V60.2952Z" fill="black"/>
<path d="M44.5942 60.2952H45.9998V66.0053C45.9998 66.4447 46.0389 66.8474 46.1171 67.2134C46.195 67.5795 46.3295 67.8942 46.5199 68.1578C46.7099 68.4211 46.9637 68.624 47.2809 68.7654C47.5981 68.9069 48.001 68.9776 48.4888 68.9776C48.9671 68.9776 49.365 68.9069 49.6822 68.7654C49.9994 68.624 50.2532 68.4211 50.4436 68.1578C50.634 67.8942 50.7681 67.5795 50.8463 67.2134C50.9242 66.8474 50.9633 66.4447 50.9633 66.0053V60.2952H52.3689V66.3423C52.3689 66.8985 52.2907 67.4184 52.1346 67.9015C51.9783 68.3848 51.742 68.8045 51.4246 69.1607C51.1071 69.517 50.7047 69.7977 50.2166 70.0026C49.7286 70.2076 49.1528 70.3101 48.4888 70.3101C47.8249 70.3101 47.2491 70.2076 46.7613 70.0026C46.2732 69.7977 45.8683 69.517 45.5461 69.1607C45.2239 68.8045 44.9846 68.3848 44.8285 67.9015C44.6724 67.4184 44.5942 66.8985 44.5942 66.3423V60.2952Z" fill="black"/>
<path d="M53.8472 60.2952H55.2675L60.5972 67.9235V60.2952H61.9735V70.0613H60.5677L55.2237 62.4184V70.0613H53.8472V60.2952Z" fill="black"/>
<path d="M66.6264 68.802C67.8466 68.802 68.7957 68.5018 69.4742 67.9015C70.1527 67.3012 70.4917 66.4107 70.4917 65.2294C70.4917 64.0387 70.1647 63.1284 69.511 62.4986C68.8566 61.8692 67.8807 61.5545 66.5825 61.5545H64.8109V68.802H66.6264ZM63.4053 60.2952H66.6705C67.4414 60.2952 68.1517 60.3904 68.8007 60.5806C69.4499 60.771 70.0086 61.0689 70.4771 61.4738C70.9457 61.8789 71.3117 62.3888 71.5753 63.0039C71.8389 63.6188 71.9707 64.3509 71.9707 65.2C71.9707 66.0201 71.8389 66.7351 71.5753 67.3452C71.3117 67.9553 70.9457 68.4629 70.4771 68.8679C70.0086 69.2732 69.4471 69.5732 68.7934 69.7684C68.1395 69.9637 67.4265 70.0613 66.6557 70.0613H63.4053V60.2952Z" fill="black"/>
<path d="M45.653 27.3359C45.5458 27.5115 45.3799 27.7117 45.1556 27.9362C44.9309 28.1607 44.6578 28.3729 44.3358 28.5731C44.0136 28.7731 43.6427 28.9414 43.2231 29.078C42.8034 29.2146 42.3398 29.283 41.8326 29.283C41.1101 29.283 40.4514 29.156 39.8562 28.9024C39.2607 28.6488 38.7485 28.2948 38.3191 27.841C37.8896 27.3872 37.5553 26.8505 37.3163 26.2306C37.077 25.611 36.9575 24.935 36.9575 24.2031C36.9575 23.4909 37.077 22.8224 37.3163 22.1976C37.5553 21.5732 37.8896 21.0267 38.3191 20.5581C38.7485 20.0896 39.2632 19.7213 39.8635 19.4529C40.4638 19.1845 41.1298 19.0503 41.8617 19.0503C42.3789 19.0503 42.8427 19.1139 43.2526 19.2405C43.6623 19.3675 44.0211 19.5261 44.3283 19.7163C44.6357 19.9067 44.8993 20.1139 45.119 20.3384C45.3385 20.5631 45.5165 20.7776 45.653 20.9826L44.6578 21.8317C44.5407 21.6659 44.4017 21.4927 44.2408 21.3121C44.0795 21.1314 43.8868 20.9678 43.6623 20.8217C43.4376 20.6752 43.1792 20.5534 42.8865 20.4554C42.5936 20.3582 42.2571 20.3091 41.8763 20.3091C41.3394 20.3091 40.859 20.4116 40.4343 20.6167C40.0101 20.8217 39.649 21.0998 39.3513 21.4511C39.0532 21.8022 38.8265 22.2123 38.6706 22.6807C38.5142 23.1492 38.4363 23.6468 38.4363 24.174C38.4363 24.7009 38.5167 25.1965 38.6778 25.6596C38.8387 26.1236 39.0657 26.526 39.3584 26.8675C39.6513 27.2093 40.0074 27.4776 40.4272 27.6728C40.8465 27.868 41.315 27.9653 41.8326 27.9653C42.2717 27.9653 42.6498 27.9094 42.967 27.7971C43.284 27.6849 43.5525 27.5508 43.7723 27.3945C43.9918 27.2386 44.172 27.0798 44.3137 26.9187C44.4553 26.7578 44.5748 26.6237 44.6725 26.5162L45.653 27.3359Z" fill="black"/>
<path d="M50.2848 23.8664C50.8995 23.8664 51.3607 23.7153 51.6682 23.4127C51.9756 23.1102 52.1292 22.7051 52.1292 22.1975C52.1292 21.6608 51.9633 21.2436 51.6316 20.9459C51.2996 20.6482 50.8411 20.4994 50.2557 20.4994H48.4111V23.8664H50.2848ZM47.0496 19.2844H50.1676C50.792 19.2844 51.3192 19.3699 51.7486 19.5407C52.1781 19.7114 52.5271 19.9311 52.7956 20.1995C53.0638 20.468 53.2588 20.7727 53.381 21.1141C53.503 21.4558 53.5641 21.8021 53.5641 22.1536C53.5641 22.7783 53.4176 23.3297 53.1249 23.8078C52.832 24.2861 52.3782 24.6424 51.7634 24.8765L54.047 29.0486H52.4662L50.3725 25.0521H48.4111V29.0486H47.0496V19.2844Z" fill="black"/>
<path d="M59.3836 27.9799C59.9201 27.9799 60.4057 27.8777 60.8402 27.6727C61.2744 27.4675 61.6454 27.1894 61.9529 26.8383C62.2601 26.4868 62.4969 26.0794 62.663 25.6159C62.8286 25.1523 62.9118 24.662 62.9118 24.1446C62.9118 23.6174 62.8286 23.1223 62.663 22.6587C62.4969 22.1952 62.2601 21.7878 61.9529 21.4363C61.6454 21.085 61.2744 20.8093 60.8402 20.6092C60.4057 20.4092 59.9201 20.309 59.3836 20.309C58.8467 20.309 58.3636 20.4092 57.9346 20.6092C57.5047 20.8093 57.1366 21.085 56.8292 21.4363C56.5219 21.7878 56.285 22.1952 56.1191 22.6587C55.953 23.1223 55.8703 23.6174 55.8703 24.1446C55.8703 24.662 55.953 25.1523 56.1191 25.6159C56.285 26.0794 56.5219 26.4868 56.8292 26.8383C57.1366 27.1894 57.5047 27.4675 57.9346 27.6727C58.3636 27.8777 58.8467 27.9799 59.3836 27.9799ZM59.3836 29.2976C58.6808 29.2976 58.0271 29.1631 57.4222 28.8948C56.8169 28.6266 56.2897 28.2606 55.841 27.797C55.3922 27.3335 55.0409 26.7893 54.7869 26.1646C54.5331 25.5402 54.4062 24.8717 54.4062 24.1591C54.4062 23.447 54.5331 22.7808 54.7869 22.1609C55.0409 21.5412 55.3895 20.9997 55.8337 20.536C56.2777 20.0727 56.8046 19.7066 57.4149 19.438C58.0244 19.1699 58.6808 19.0354 59.3836 19.0354C60.0862 19.0354 60.7425 19.1699 61.3528 19.438C61.9622 19.7066 62.4919 20.0727 62.9409 20.536C63.3899 20.9997 63.741 21.5412 63.9952 22.1609C64.2486 22.7808 64.3756 23.447 64.3756 24.1591C64.3756 24.8717 64.2486 25.5402 63.9952 26.1646C63.741 26.7893 63.3899 27.3335 62.9409 27.797C62.4919 28.2606 61.9622 28.6266 61.3528 28.8948C60.7425 29.1631 60.0862 29.2976 59.3836 29.2976Z" fill="black"/>
<path d="M65.5088 19.2844H66.9287L72.2574 26.9113V19.2844H73.6335V29.0486H72.2281L66.8849 21.4072V29.0486H65.5088V19.2844Z" fill="black"/>
<path d="M75.0776 19.2844H81.2116V20.5433H76.4832V23.5297H80.0843V24.774H76.4832V29.0486H75.0776V19.2844Z" fill="black"/>
<path d="M86.175 25.1398L84.5942 20.8507L82.9986 25.1398H86.175ZM83.9207 19.2844H85.3554L89.176 29.0486H87.6097L86.5997 26.3257H82.5884L81.5784 29.0486H80.0999L83.9207 19.2844Z" fill="black"/>
<path d="M42.5531 35.8101H46.7421V40.4119C46.1305 40.9315 45.4296 41.3063 44.6399 41.5356C43.85 41.7649 43.0576 41.8794 42.2627 41.8794C41.4369 41.8794 40.6956 41.7545 40.0383 41.505C39.3808 41.2554 38.8227 40.8987 38.3642 40.4347C37.9056 39.9712 37.556 39.4081 37.3169 38.7456C37.0773 38.0829 36.9575 37.3389 36.9575 36.5133C36.9575 35.7388 37.0874 35.0227 37.3473 34.3652C37.6073 33.7079 37.9715 33.1423 38.4404 32.6684C38.9092 32.1944 39.4673 31.825 40.1146 31.56C40.7615 31.295 41.4776 31.1624 42.2627 31.1624C43.1085 31.1624 43.9009 31.3027 44.6399 31.5829C45.3787 31.8633 45.9981 32.3295 46.4976 32.9816L44.7392 34.7551C44.4233 34.4394 44.0843 34.1794 43.7226 33.9754C43.3607 33.7717 42.9404 33.6697 42.4614 33.6697C42.0233 33.6697 41.6358 33.746 41.2995 33.8989C40.9631 34.0519 40.6802 34.2581 40.4507 34.5182C40.2217 34.778 40.0458 35.0838 39.9236 35.4355C39.8011 35.787 39.74 36.1618 39.74 36.5592C39.74 36.9976 39.8063 37.3924 39.9388 37.7441C40.0712 38.0956 40.2547 38.3966 40.4892 38.646C40.7237 38.8959 41.0091 39.0894 41.3454 39.227C41.6817 39.3646 42.0584 39.4334 42.4766 39.4334C42.8129 39.4334 43.1341 39.3929 43.4399 39.311C43.7456 39.2297 44.0412 39.0869 44.3266 38.883V37.9046H42.5531V35.8101Z" fill="#EA0B8B"/>
<path d="M50.5364 37.5683L46.9131 31.4377H50.0165L52.004 35.0764L53.8692 31.4377H56.881L53.2422 37.5529V41.635H50.5364V37.5683Z" fill="#EA0B8B"/>
<path d="M57.6622 31.4377H60.2458L62.7225 35.8864L65.1533 31.4377H67.7525L68.2264 41.635H65.4896L65.245 35.6574L63.4563 39.1431H61.9733L59.9861 35.6574L59.7872 41.635H57.1882L57.6622 31.4377Z" fill="#EA0B8B"/>
<path d="M69.4333 31.4376H72.1394V37.4153C72.1394 37.9761 72.2691 38.4349 72.5291 38.7911C72.789 39.1481 73.2197 39.3266 73.821 39.3266C74.4224 39.3266 74.8504 39.1456 75.1052 38.7837C75.3599 38.422 75.4875 37.9657 75.4875 37.4153V31.4376H78.2241V37.6599C78.2241 38.3124 78.117 38.9011 77.9031 39.4258C77.689 39.9508 77.3855 40.3967 76.9933 40.7636C76.601 41.1305 76.1373 41.4109 75.6022 41.6044C75.067 41.7979 74.4783 41.895 73.8362 41.895C73.1943 41.895 72.6031 41.7979 72.0629 41.6044C71.5226 41.4109 71.0562 41.133 70.6641 40.7711C70.2715 40.4096 69.9684 39.9662 69.7545 39.4409C69.5402 38.9163 69.4333 38.3226 69.4333 37.6599V31.4376Z" fill="#EA0B8B"/>
<path d="M79.75 31.4377H82.2114L86.1251 37.1249V31.4377H88.8006V41.635H86.492L82.4253 35.7796V41.635H79.75V31.4377Z" fill="#EA0B8B"/>
<path d="M90.5059 31.4377H97.8442V33.7766H93.2117V35.3514H97.0186V37.5529H93.2117V39.2959H98.1651V41.635H90.5059V31.4377Z" fill="#EA0B8B"/>
<path d="M103.254 39.2501C104.141 39.2501 104.827 38.9978 105.311 38.4933C105.795 37.9886 106.037 37.334 106.037 36.5287C106.037 36.1211 105.981 35.7515 105.869 35.4202C105.756 35.0891 105.586 34.8039 105.356 34.5642C105.127 34.3247 104.839 34.1387 104.493 34.0061C104.146 33.8739 103.733 33.8073 103.254 33.8073H102.154V39.2501H103.254ZM99.4478 31.4377H103.361C104.146 31.4377 104.872 31.5397 105.54 31.7434C106.207 31.9475 106.786 32.2583 107.275 32.6761C107.764 33.0939 108.147 33.6292 108.422 34.2813C108.697 34.9336 108.835 35.7031 108.835 36.5899C108.835 37.4361 108.695 38.1721 108.414 38.7991C108.134 39.4258 107.749 39.9509 107.26 40.3737C106.771 40.7969 106.19 41.1126 105.517 41.3215C104.844 41.5305 104.12 41.635 103.346 41.635H99.4478V31.4377Z" fill="#EA0B8B"/>
<path d="M114.962 39.3415C115.359 39.3415 115.713 39.268 116.024 39.12C116.335 38.9724 116.598 38.7709 116.812 38.5161C117.026 38.2615 117.189 37.9607 117.301 37.6142C117.413 37.2676 117.469 36.9008 117.469 36.5133C117.469 36.126 117.413 35.7592 117.301 35.4124C117.189 35.0663 117.026 34.7655 116.812 34.5105C116.598 34.2558 116.335 34.0544 116.024 33.9066C115.713 33.759 115.359 33.685 114.962 33.685C114.565 33.685 114.21 33.759 113.9 33.9066C113.589 34.0544 113.326 34.2558 113.112 34.5105C112.898 34.7655 112.735 35.0663 112.623 35.4124C112.51 35.7592 112.455 36.126 112.455 36.5133C112.455 36.9008 112.51 37.2676 112.623 37.6142C112.735 37.9607 112.898 38.2615 113.112 38.5161C113.326 38.7709 113.589 38.9724 113.9 39.12C114.21 39.268 114.565 39.3415 114.962 39.3415ZM114.962 41.8794C114.197 41.8794 113.492 41.7443 112.844 41.4743C112.197 41.2044 111.637 40.8322 111.163 40.3584C110.689 39.8843 110.319 39.3189 110.054 38.6614C109.789 38.0039 109.657 37.288 109.657 36.5133C109.657 35.7388 109.789 35.0227 110.054 34.3652C110.319 33.7079 110.689 33.1423 111.163 32.6684C111.637 32.1944 112.197 31.825 112.844 31.56C113.492 31.295 114.197 31.1624 114.962 31.1624C115.726 31.1624 116.435 31.295 117.087 31.56C117.739 31.825 118.3 32.1944 118.769 32.6684C119.237 33.1423 119.604 33.7079 119.869 34.3652C120.135 35.0227 120.267 35.7388 120.267 36.5133C120.267 37.288 120.135 38.0039 119.869 38.6614C119.604 39.3189 119.237 39.8843 118.769 40.3584C118.3 40.8322 117.739 41.2044 117.087 41.4743C116.435 41.7443 115.726 41.8794 114.962 41.8794Z" fill="#EA0B8B"/>
<path d="M121.056 31.4377H123.762V39.2501H128.486V41.635H121.056V31.4377Z" fill="#EA0B8B"/>
<path d="M128.49 44.0258V45.293H36.947V44.0258H128.49Z" fill="black"/>
<path d="M30.4453 19.2908C30.0624 19.2908 29.245 19.5076 28.8075 19.9449C28.9725 18.0346 28.2637 16.619 26.9548 16.1278C26.1364 15.8528 25.2627 15.909 24.5007 16.2372L23.436 13.6733C24.4167 11.2725 26.1345 8.35048 26.1345 5.95023C26.1345 4.0975 25.1979 2.73223 23.3986 2.73223C22.3068 2.73223 21.1052 3.62606 20.1926 4.78056C18.9396 1.99991 17.6296 0.69014 16.2136 0.69014C13.978 0.69014 13.0507 2.92825 13.0507 4.83585C13.0507 6.41731 13.4858 9.03561 15.1784 12.7456C14.0329 15.3101 13.1588 17.4347 12.1236 20.7074C10.7617 19.2908 8.5248 17.8723 5.68969 17.8723C4.21778 17.8723 2.96309 18.2539 1.98196 18.9108C1.05528 19.5641 0.510132 20.4355 0.510132 21.3644C0.510132 22.7268 1.43735 23.656 2.85396 24.037C5.30763 24.6899 6.39873 26.6538 7.32561 30.5266C9.0162 37.5083 13.3779 41.7068 20.0841 41.7068C27.1726 41.7068 32.9519 35.9268 32.9519 28.8342C32.9519 27.8004 32.8434 26.9814 32.6805 26.0533C32.8975 25.5093 33.0609 24.9084 33.1708 24.4186C33.7697 21.4174 32.6252 19.2908 30.4453 19.2908Z" fill="black"/>
<path d="M26.3966 17.6488C27.5349 18.1756 27.6232 20.5459 26.4781 23.3801C25.5506 26.1097 24.2163 27.7766 22.9738 27.7849C21.9929 27.7913 21.1758 27.0914 21.1758 25.2364C21.1758 21.7455 24.0427 16.5625 26.3966 17.6488Z" fill="white"/>
<path d="M14.6283 4.83572C14.6283 3.69162 15.1184 2.32717 16.2108 2.32717C16.9732 2.32717 17.8991 3.52761 18.9906 5.9262C18.0643 7.12663 17.0818 8.70829 16.1017 10.6729C15.1184 8.10922 14.6283 6.19975 14.6283 4.83572Z" fill="white"/>
<path d="M20.0809 40.0718C14.3573 40.0718 10.4301 36.0907 8.90265 30.1442C7.86768 26.0532 6.55812 23.3282 3.23307 22.455C2.8508 22.3454 2.14197 22.0738 2.14197 21.3643C2.14197 20.5973 3.39666 19.5074 5.68653 19.5074C8.40294 19.5074 10.6496 21.1749 12.1755 23.391L13.3406 22.9566C13.514 20.7226 14.6521 17.6668 16.647 13.3999C19.1543 8.00071 21.7036 4.32062 23.3954 4.36822C23.9348 4.38256 24.5779 5.0228 24.5779 5.95009C24.5779 8.18675 22.6059 11.5361 20.8829 15.1848C20.7087 15.5511 19.9238 17.2789 19.9238 17.2789L21.0515 17.7665C21.4209 17.1465 22.1856 15.6527 22.2885 15.4029L23.1335 17.2724C21.3346 18.8007 19.7538 22.3985 19.7538 25.2365C19.7538 27.3085 20.6802 28.6031 22.0442 29.0382C23.2973 29.4227 24.4975 29.0546 25.4248 27.9622C25.6435 29.2735 26.5151 30.4049 28.2061 30.4049C29.7015 30.4049 30.6816 29.5468 31.4245 28.073C31.6953 34.9449 26.0232 40.0718 20.0809 40.0718Z" fill="white"/>
<path d="M31.6976 24.1985C31.3149 26.4909 29.9228 29.0381 28.2083 29.0381C26.572 29.0381 26.6691 26.8719 27.0488 25.5619C27.6494 23.2174 29.2452 20.7637 30.4444 20.7637C31.5344 20.7637 32.0248 22.236 31.6976 24.1985Z" fill="white"/>
<path d="M25.9015 35.6902C21.0457 38.4469 16.5309 36.6869 14.8259 31.6582L16.2386 30.9961C17.6269 35.0928 21.6263 36.2148 25.3276 34.2877L25.9015 35.6902Z" fill="black"/>
<path d="M24.5834 25.1826C24.5834 25.8843 24.0174 26.45 23.3173 26.45C22.6183 26.45 22.0508 25.8843 22.0508 25.1826C22.0508 24.4852 22.6183 23.9171 23.3173 23.9171C24.0174 23.9171 24.5834 24.4852 24.5834 25.1826Z" fill="black"/>
<path d="M29.9155 26.7161C29.9155 27.3453 29.4054 27.8552 28.7757 27.8552C28.1469 27.8552 27.636 27.3453 27.636 26.7161C27.636 26.0869 28.1469 25.576 28.7757 25.576C29.4054 25.576 29.9155 26.0869 29.9155 26.7161Z" fill="black"/>
<path d="M27.8175 4.71443C27.8859 4.71443 27.9358 4.6978 27.9669 4.66454C27.9983 4.63128 28.0135 4.58659 28.0135 4.5315C28.0135 4.47351 27.9969 4.43048 27.9632 4.40117C27.9306 4.3729 27.8774 4.35814 27.8038 4.35814H27.598V4.71443H27.8175ZM27.3751 4.1721H27.8273C27.9004 4.1721 27.9632 4.18291 28.015 4.2037C28.0669 4.2249 28.1106 4.2515 28.1451 4.28559C28.1794 4.31823 28.2043 4.35544 28.2197 4.39681C28.2355 4.43734 28.243 4.47829 28.243 4.5182C28.243 4.59324 28.2243 4.66163 28.1862 4.72253C28.1488 4.78385 28.0912 4.82959 28.0135 4.86056L28.2993 5.34614H28.0466L27.7842 4.8907H27.598V5.34614H27.3751V4.1721ZM27.7774 5.7018C27.9079 5.7018 28.0291 5.67831 28.1403 5.6305C28.2507 5.58311 28.3467 5.5168 28.4276 5.43261C28.5082 5.34863 28.5716 5.24907 28.6174 5.13495C28.6627 5.02104 28.6853 4.89881 28.6853 4.76702C28.6853 4.63689 28.6627 4.51404 28.6174 4.39992C28.5716 4.28559 28.5082 4.18644 28.4276 4.10226C28.3467 4.01828 28.2507 3.95176 28.1403 3.9027C28.0291 3.85365 27.909 3.82933 27.7803 3.82933C27.6499 3.82933 27.5288 3.85365 27.4184 3.9027C27.3074 3.95176 27.2107 4.01828 27.1288 4.10226C27.0469 4.18644 26.9831 4.28559 26.9376 4.39992C26.8921 4.51404 26.8694 4.63689 26.8694 4.76702C26.8694 4.89881 26.8921 5.02104 26.9376 5.13495C26.9831 5.24907 27.0463 5.34863 27.1272 5.43261C27.2078 5.5168 27.3039 5.58311 27.4144 5.6305C27.5261 5.67831 27.647 5.7018 27.7774 5.7018ZM27.7774 5.92505C27.6152 5.92505 27.4639 5.89491 27.3234 5.83504C27.1829 5.77538 27.0606 5.69286 26.9573 5.58747C26.8544 5.48208 26.7727 5.35882 26.7131 5.2183C26.6532 5.07736 26.6233 4.92603 26.6233 4.76411C26.6233 4.60176 26.6532 4.45064 26.7131 4.31013C26.7727 4.1694 26.8544 4.04697 26.9573 3.94283C27.0606 3.83848 27.1829 3.75616 27.3234 3.69484C27.4639 3.63414 27.6167 3.60316 27.7803 3.60316C27.9422 3.60316 28.0931 3.63414 28.2332 3.69484C28.3729 3.75616 28.4943 3.83848 28.5972 3.94283C28.7003 4.04697 28.7818 4.1694 28.8417 4.31013C28.9015 4.45064 28.9315 4.60176 28.9315 4.76411C28.9315 4.92603 28.9015 5.07736 28.8417 5.2183C28.7818 5.35882 28.7003 5.48208 28.5972 5.58747C28.4943 5.69286 28.3721 5.77538 28.2314 5.83504C28.0904 5.89491 27.9395 5.92505 27.7774 5.92505Z" fill="black"/>
</svg>
