<svg width="231" height="232" viewBox="0 0 231 232" fill="none" xmlns="http://www.w3.org/2000/svg">
<path d="M125.591 25.7472C127.074 27.0205 128.557 28.2946 130.024 29.5855C148.685 45.9501 171.518 54.9575 196.069 57.6388C201.606 58.312 205.315 59.6159 209.931 62.8019C212.494 66.646 212.237 69.8242 212.232 74.2823C212.236 75.128 212.241 75.9736 212.245 76.8449C212.251 78.643 212.251 80.441 212.247 82.2391C212.244 84.9343 212.267 87.6283 212.293 90.3233C212.399 119.155 203.201 146.279 184.931 168.802C184.294 169.638 183.658 170.475 183.002 171.337C167.991 190.568 144.603 213.911 120.931 221.802C114.837 222.25 111.586 221.607 106.244 218.364C105.648 218.005 105.052 217.646 104.438 217.276C65.944 193.755 35.3073 160.589 23.6929 116.337C22.2064 109.438 21.7582 102.697 21.6929 95.6651C21.6849 94.8227 21.6768 93.9802 21.6685 93.1122C21.6548 91.345 21.644 89.5777 21.6361 87.8104C21.6245 86.0076 21.6039 84.2048 21.5745 82.4022C21.5319 79.7813 21.5157 77.1614 21.5054 74.5401C21.4879 73.738 21.4704 72.9358 21.4524 72.1093C21.4672 68.2858 21.6715 66.2445 23.6453 62.8807C27.4026 59.4637 31.1034 58.6209 36.0367 57.9425C62.8868 54.0126 85.0844 45.4849 105.931 27.8019C112.28 22.599 118.364 20.4621 125.591 25.7472ZM113.056 33.8019C89.6743 52.1024 65.4724 63.4068 35.7047 66.3448C32.7974 66.5472 32.7974 66.5472 30.9312 68.8019C30.6014 72.022 30.6014 72.022 30.6304 75.837C30.6219 76.8961 30.6219 76.8961 30.6132 77.9765C30.601 80.2727 30.6073 82.5682 30.6187 84.8644C30.6212 85.6433 30.6237 86.4222 30.6263 87.2247C30.8164 125.419 46.196 155.994 72.9312 182.802C83.3908 193.139 95.2512 201.567 107.556 209.552C108.219 209.995 108.882 210.437 109.565 210.894C112.235 212.582 114.249 213.799 117.455 213.814C120.797 212.448 123.862 210.748 126.931 208.864C127.59 208.463 128.248 208.062 128.927 207.649C135.628 203.489 141.835 198.798 147.931 193.802C148.502 193.339 149.073 192.876 149.662 192.4C177.125 170.029 198.523 139.686 202.931 103.802C203.065 100.96 203.072 98.1233 203.064 95.2784C203.065 94.4916 203.066 93.7049 203.067 92.8942C203.068 91.2454 203.066 89.5966 203.062 87.9479C203.056 85.4135 203.062 82.8792 203.068 80.3448C203.067 78.7394 203.066 77.1339 203.064 75.5284C203.067 74.3879 203.067 74.3879 203.07 73.2244C203.376 69.721 203.376 69.721 201.931 66.8019C200.329 66.5165 198.717 66.2846 197.103 66.0753C168.635 62.1373 144.313 53.1436 122.281 34.398C117.684 30.3147 117.684 30.3147 113.056 33.8019Z" fill="white"/>
<path d="M143.931 3.80191C145.807 4.27757 145.807 4.27757 147.72 4.76284C175.361 12.1931 200.326 31.5461 214.619 56.341C230.474 85.0012 235.078 116.895 226.306 148.552C223.558 157.879 219.748 166.374 214.931 174.802C214.1 176.291 214.1 176.291 213.251 177.81C208.753 185.365 203.008 191.514 196.931 197.802C196.227 198.557 195.523 199.313 194.798 200.091C175.433 220.397 145.996 231.091 118.318 231.837C85.5062 231.964 56.5685 219.676 32.9311 197.177C19.1014 182.958 9.08242 164.912 3.93112 145.802C3.61272 144.644 3.29433 143.487 2.96628 142.294C-1.07916 124.733 -1.20055 104.114 3.93112 86.8019C4.1298 86.1048 4.32848 85.4078 4.53317 84.6896C9.1979 68.5535 16.2219 54.8073 26.9311 41.8019C27.6904 40.8776 28.4496 39.9534 29.2319 39.0011C56.5766 7.36004 103.43 -7.59764 143.931 3.80191ZM51.9311 26.8019C51.0739 27.4387 50.2167 28.0755 49.3335 28.7316C38.642 36.9609 29.9865 46.3101 22.9311 57.8019C22.5454 58.4295 22.1596 59.0571 21.7622 59.7038C7.12686 84.0738 2.51841 114.343 8.95212 142.113C12.3784 155.15 17.9452 167.923 25.9311 178.802C26.8012 180.003 26.8012 180.003 27.6889 181.228C45.6283 204.759 70.7982 220.571 100.258 224.854C128.43 228.43 156.719 221.499 179.794 204.72C182.219 202.796 184.581 200.817 186.931 198.802C187.542 198.324 188.153 197.845 188.783 197.353C208.677 181.501 221.199 153.855 224.244 129.114C227.275 99.6089 219.283 71.3823 201.244 47.8644C193.599 38.5784 185.238 30.0952 174.931 23.8019C174.354 23.445 173.776 23.0881 173.182 22.7204C163.767 16.9587 154.629 12.7071 143.931 9.8019C142.834 9.48351 141.737 9.16511 140.607 8.83706C110.403 1.36365 76.6746 8.05128 51.9311 26.8019Z" fill="white"/>
<path d="M125.591 25.7472C127.074 27.0205 128.557 28.2946 130.024 29.5855C148.685 45.9501 171.518 54.9575 196.069 57.6388C201.606 58.312 205.315 59.6159 209.931 62.8019C212.494 66.646 212.237 69.8242 212.232 74.2823C212.236 75.128 212.241 75.9736 212.245 76.8449C212.251 78.643 212.251 80.441 212.247 82.2391C212.244 84.9343 212.267 87.6283 212.293 90.3233C212.399 119.155 203.201 146.279 184.931 168.802C184.294 169.638 183.658 170.475 183.002 171.337C167.991 190.568 144.603 213.911 120.931 221.802C114.837 222.25 111.586 221.607 106.244 218.364C105.648 218.005 105.052 217.646 104.438 217.276C65.944 193.755 35.3073 160.589 23.6929 116.337C22.2064 109.438 21.7582 102.697 21.6929 95.6651C21.6849 94.8227 21.6768 93.9802 21.6685 93.1122C21.6548 91.345 21.644 89.5777 21.6361 87.8104C21.6245 86.0076 21.6039 84.2048 21.5745 82.4022C21.5319 79.7813 21.5157 77.1614 21.5054 74.5401C21.4879 73.738 21.4704 72.9358 21.4524 72.1093C21.4672 68.2858 21.6715 66.2445 23.6453 62.8807C27.4026 59.4637 31.1034 58.6209 36.0367 57.9425C62.8868 54.0126 85.0844 45.4849 105.931 27.8019C112.28 22.599 118.364 20.4621 125.591 25.7472ZM107.56 30.6104C87.1974 47.5845 64.5865 57.2799 38.1934 60.297C37.1891 60.4249 36.1848 60.5529 35.15 60.6847C34.2625 60.7815 33.3749 60.8784 32.4605 60.9781C28.8053 62.1685 27.2349 63.7353 24.9312 66.8019C24.4666 69.7275 24.2964 72.0505 24.3726 74.962C24.375 75.7477 24.3773 76.5335 24.3797 77.343C24.3894 79.0048 24.4112 80.6665 24.4442 82.328C24.4931 84.8322 24.5056 87.3344 24.5113 89.839C24.7383 122.312 36.8635 151.202 58.5401 175.255C59.9379 176.809 61.3123 178.382 62.6851 179.958C68.565 186.632 74.8834 192.364 81.9312 197.802C82.9045 198.591 83.8777 199.38 84.8804 200.192C91.1128 205.166 97.5619 209.671 104.306 213.927C105.43 214.656 105.43 214.656 106.576 215.399C111.176 218.229 114.38 219.581 119.931 218.802C155.161 205.184 185.603 169.481 200.811 135.857C207.544 120.262 209.479 104.422 209.432 87.5587C209.431 85.0111 209.473 82.4663 209.517 79.919C209.522 78.281 209.525 76.643 209.525 75.005C209.55 73.8769 209.55 73.8769 209.575 72.726C209.524 68.866 209.067 66.9828 206.726 63.8678C203.811 61.7128 202.165 61.0249 198.615 60.544C197.107 60.3211 197.107 60.3211 195.568 60.0936C194.512 59.9561 193.456 59.8186 192.369 59.6769C190.19 59.3503 188.012 59.0209 185.834 58.6886C184.801 58.5357 183.768 58.3827 182.704 58.2252C161.426 54.9766 140.668 43.8699 125.166 29.1222C122.673 26.8005 120.971 25.8108 117.619 25.0519C113.129 25.9651 111.023 27.7102 107.56 30.6104Z" fill="white"/>
<path d="M120.931 25.8019C123.237 27.3895 125.01 28.8254 126.994 30.7394C147.818 49.4853 173.436 58.2337 201.126 60.9815C204.969 62.1055 206.438 63.6762 208.931 66.8019C209.408 69.7395 209.589 72.0788 209.525 75.005C209.525 75.801 209.525 76.5971 209.525 77.4173C209.52 79.1051 209.502 80.793 209.473 82.4806C209.432 85.0026 209.432 87.5218 209.439 90.0441C209.385 104.332 208.058 118.476 202.369 131.739C202.024 132.566 201.68 133.392 201.325 134.244C185.686 170.771 157.022 198.139 122.931 217.802C118.734 219.201 115.076 219.719 110.887 217.928C108.634 216.673 106.47 215.331 104.306 213.927C103.516 213.427 102.725 212.928 101.911 212.413C94.9269 207.935 88.3346 203.079 81.9311 197.802C81.0811 197.112 81.0811 197.112 80.2138 196.408C55.1488 175.994 37.5646 151.012 28.1811 119.989C27.97 119.296 27.759 118.602 27.5415 117.888C27.3452 117.214 27.149 116.54 26.9467 115.845C26.6881 114.963 26.6881 114.963 26.4243 114.064C24.5288 105.368 24.6443 96.517 24.581 87.6649C24.5644 85.959 24.537 84.2532 24.499 82.5477C24.4442 80.0657 24.4224 77.5852 24.4077 75.1026C24.385 74.3442 24.3623 73.5858 24.339 72.8044C24.3545 68.9041 24.7782 67.0062 27.1377 63.8529C30.0566 61.7097 31.5993 61.0721 35.1499 60.6847C36.1541 60.5568 37.1582 60.429 38.1928 60.2972C39.2615 60.175 40.3301 60.0528 41.4311 59.9269C66.4767 56.4562 88.1569 47.1008 107.419 30.6808C108.186 30.0401 108.953 29.3994 109.744 28.7394C110.389 28.1709 111.035 27.6024 111.701 27.0167C115.01 25.214 117.218 25.2966 120.931 25.8019ZM107.369 33.7394C106.135 34.7594 104.898 35.7749 103.658 36.7862C103.035 37.2961 102.413 37.8059 101.772 38.3312C82.9305 53.3843 58.9822 61.2594 35.1538 63.2472C31.6275 63.8541 30.3565 64.2111 27.9311 66.8019C27.5359 69.5457 27.3936 71.8828 27.435 74.6261C27.4336 75.4051 27.4321 76.1842 27.4306 76.9869C27.4323 78.6437 27.4439 80.3006 27.4646 81.9574C27.493 84.4355 27.4853 86.9115 27.4721 89.3898C27.5227 126.197 43.2948 155.33 67.9311 181.802C68.5821 182.519 69.2331 183.235 69.9038 183.974C80.8074 195.487 94.4127 204.634 107.931 212.802C108.506 213.187 109.08 213.572 109.672 213.969C112.545 215.809 114.497 216.804 117.939 216.79C121.522 215.607 124.619 213.97 127.806 211.989C128.451 211.594 129.096 211.199 129.76 210.792C142.17 203.031 153.416 193.957 163.931 183.802C164.792 182.992 165.653 182.183 166.54 181.349C187.904 160.781 205.243 130.62 206.108 100.453C206.135 98.9066 206.155 97.3601 206.169 95.8136C206.182 94.5761 206.182 94.5761 206.194 93.3135C206.208 91.585 206.218 89.8564 206.226 88.1278C206.238 86.3598 206.259 84.5919 206.288 82.8241C206.33 80.2578 206.347 77.6926 206.357 75.1261C206.383 73.9401 206.383 73.9401 206.41 72.7303C206.42 68.3847 206.42 68.3847 204.163 64.8299C201.936 63.8043 200.226 63.2986 197.798 63.0284C196.603 62.8791 196.603 62.8791 195.383 62.7267C194.533 62.6277 193.682 62.5288 192.806 62.4269C165.765 58.7802 140.459 48.33 120.931 28.8019C114.807 27.9759 111.797 29.8354 107.369 33.7394Z" fill="white"/>
<path d="M131.931 149.802C132.795 150.162 133.658 150.521 134.548 150.892C137.056 152.302 137.056 152.302 140.931 156.802C140.931 163.072 140.931 169.342 140.931 175.802C124.431 175.802 107.931 175.802 90.9312 175.802C90.9312 157.802 90.9312 157.802 95.9312 152.802C98.5015 151.255 98.5015 151.255 101.056 150.052C101.904 149.645 102.753 149.237 103.626 148.817C112.485 144.914 123.204 145.899 131.931 149.802Z" fill="white"/>
<path d="M100.931 139.802C101.921 140.462 102.911 141.122 103.931 141.802C103.931 142.792 103.931 143.782 103.931 144.802C103.184 145.165 102.436 145.529 101.666 145.903C93.8571 149.809 93.8571 149.809 88.9312 156.802C88.2712 159.442 87.6112 162.082 86.9312 164.802C77.6912 164.802 68.4512 164.802 58.9312 164.802C58.7765 160.502 58.7765 160.502 58.6187 156.114C58.5731 155.22 58.5276 154.326 58.4807 153.405C58.4076 149.197 58.5183 147.348 61.1304 143.892C63.7214 141.958 66.1363 140.427 69.0562 139.052C69.9044 138.645 70.7526 138.237 71.6265 137.818C81.3038 133.553 91.6439 135.369 100.931 139.802Z" fill="white"/>
<path d="M167.792 140.942C170.661 143.008 172.624 144.552 173.489 148.069C173.62 150.649 173.544 153.098 173.369 155.677C173.224 158.688 173.08 161.699 172.931 164.802C163.691 164.802 154.451 164.802 144.931 164.802C143.941 161.172 142.951 157.542 141.931 153.802C137.685 149.229 133.735 146.934 127.931 144.802C127.931 143.812 127.931 142.822 127.931 141.802C129.512 140.984 131.096 140.173 132.681 139.364C133.563 138.912 134.445 138.459 135.353 137.993C145.737 133.195 158.253 135.097 167.792 140.942Z" fill="white"/>
<path d="M122.966 38.4855C128.594 41.4661 133.173 46.5263 135.408 52.5206C138.44 65.7368 134.434 74.6526 127.931 85.8019C127.601 86.4619 127.271 87.1219 126.931 87.8019C119.671 87.8019 112.411 87.8019 104.931 87.8019C103.632 85.4094 102.332 83.0169 100.994 80.5519C100.381 79.4319 100.381 79.4319 99.7557 78.2892C99.2721 77.3906 99.2721 77.3906 98.7788 76.4738C98.4489 75.8663 98.119 75.2588 97.7791 74.6329C94.6395 67.8529 94.7101 58.9086 96.8023 51.8722C99.3702 46.3323 102.769 42.117 107.931 38.8019C112.762 37.1917 118.079 36.8439 122.966 38.4855ZM105.744 50.1769C102.293 55.1744 101.026 59.7176 101.931 65.8019C103.012 68.9429 104.415 71.8507 105.931 74.8019C106.921 76.7819 107.911 78.7619 108.931 80.8019C113.551 80.8019 118.171 80.8019 122.931 80.8019C129.402 69.9819 129.402 69.9819 129.931 57.8019C128.297 52.64 126.317 49.0438 121.931 45.8019C114.941 43.743 110.707 44.7879 105.744 50.1769Z" fill="white"/>
<path d="M119.931 113.802C124.42 116.089 126.702 118.331 128.931 122.802C129.764 128.374 129.677 133.283 127.181 138.364C122.437 143.504 122.437 143.504 118.564 144.271C114.203 144.325 110.94 144.352 107.431 141.552C102.983 136.659 102.485 133.063 102.615 126.564C103.202 121.434 105.238 118.26 109.181 114.864C112.835 113.453 116.103 113.126 119.931 113.802Z" fill="white"/>
<path d="M152.931 102.802C156.778 104.851 159.34 107.756 160.931 111.802C161.601 117.396 161.686 122.265 159.181 127.364C158.439 128.169 157.696 128.973 156.931 129.802C156.374 130.421 155.817 131.039 155.244 131.677C151.516 133.49 147.981 133.56 143.931 132.802C140.085 130.753 137.522 127.847 135.931 123.802C135.261 118.208 135.176 113.338 137.681 108.239C138.424 107.435 139.166 106.631 139.931 105.802C140.488 105.183 141.045 104.564 141.619 103.927C145.346 102.113 148.881 102.044 152.931 102.802Z" fill="white"/>
<path d="M87.9312 102.802C91.7777 104.851 94.3403 107.756 95.9312 111.802C96.6012 117.396 96.686 122.265 94.1812 127.364C93.4387 128.169 92.6962 128.973 91.9312 129.802C91.3743 130.421 90.8174 131.039 90.2437 131.677C86.5161 133.49 82.9815 133.56 78.9312 132.802C75.0847 130.753 72.5221 127.847 70.9312 123.802C70.2612 118.208 70.1764 113.338 72.6812 108.239C73.4237 107.435 74.1662 106.631 74.9312 105.802C75.4881 105.183 76.0449 104.564 76.6187 103.927C80.3463 102.113 83.8809 102.044 87.9312 102.802Z" fill="white"/>
<path d="M115.931 47.8019C116.591 47.8019 117.251 47.8019 117.931 47.8019C117.931 51.1019 117.931 54.4019 117.931 57.8019C120.571 57.4719 123.211 57.1419 125.931 56.8019C125.384 61.8079 123.69 65.7737 121.369 70.1769C121.039 70.8175 120.71 71.4582 120.371 72.1183C119.565 73.6833 118.749 75.2431 117.931 76.8019C117.271 76.8019 116.611 76.8019 115.931 76.8019C115.931 73.5019 115.931 70.2019 115.931 66.8019C113.291 67.4619 110.651 68.1219 107.931 68.8019C108.507 63.599 110.225 59.5623 112.494 54.9269C112.823 54.2385 113.152 53.5502 113.492 52.8409C114.298 51.158 115.114 49.4795 115.931 47.8019Z" fill="white"/>
<path d="M173.931 56.8019C178.116 57.396 182.296 58.0173 186.474 58.6635C187.894 58.8792 189.315 59.0877 190.737 59.2885C192.788 59.5795 194.834 59.8971 196.88 60.2198C198.111 60.4031 199.342 60.5864 200.61 60.7753C204.568 61.9988 206.334 63.6166 208.931 66.8019C208.931 67.4619 208.931 68.1219 208.931 68.8019C208.271 68.8019 207.611 68.8019 206.931 68.8019C206.931 78.0419 206.931 87.2819 206.931 96.8019C206.601 96.8019 206.271 96.8019 205.931 96.8019C205.917 95.9036 205.902 95.0052 205.887 94.0797C205.826 90.7508 205.752 87.4228 205.669 84.0944C205.635 82.6531 205.607 81.2116 205.585 79.7701C205.551 77.6994 205.499 75.6299 205.443 73.5597C205.417 72.3133 205.391 71.067 205.364 69.7828C205.221 68.7991 205.078 67.8154 204.931 66.8019C202.007 64.8522 200.879 64.4637 197.544 64.0206C196.688 63.9007 195.831 63.7809 194.949 63.6573C193.61 63.4814 193.61 63.4814 192.244 63.3019C186.012 62.4649 180.005 61.4424 173.931 59.8019C173.931 58.8119 173.931 57.8219 173.931 56.8019Z" fill="white"/>
<path d="M110.931 90.6691C111.736 90.6678 112.54 90.6665 113.369 90.6652C114.214 90.6691 115.06 90.673 115.931 90.6769C117.2 90.6711 117.2 90.6711 118.494 90.6652C119.298 90.6665 120.102 90.6678 120.931 90.6691C121.674 90.6703 122.416 90.6714 123.181 90.6725C124.931 90.8019 124.931 90.8019 125.931 91.8019C125.931 93.4519 125.931 95.1019 125.931 96.8019C119.661 96.8019 113.391 96.8019 106.931 96.8019C106.601 95.1519 106.271 93.5019 105.931 91.8019C107.453 90.2798 108.813 90.6723 110.931 90.6691Z" fill="white"/>
<path d="M26.9312 68.8019C27.2612 68.8019 27.5912 68.8019 27.9312 68.8019C27.9457 69.7783 27.9603 70.7548 27.9753 71.7609C28.0344 75.4664 28.1116 79.1715 28.1936 82.8766C28.2264 84.4647 28.2545 86.0529 28.2776 87.6412C28.4254 97.5747 29.2352 106.93 31.2991 116.659C31.9312 119.802 31.9312 119.802 31.9312 122.802C30.9412 122.802 29.9512 122.802 28.9312 122.802C26.0541 114.098 25.2872 105.901 24.9312 96.8019C25.2612 96.8019 25.5912 96.8019 25.9312 96.8019C26.2612 87.5619 26.5912 78.3219 26.9312 68.8019Z" fill="white"/>
<path d="M206.931 68.8019C207.591 68.8019 208.251 68.8019 208.931 68.8019C209.005 73.1618 209.06 77.5214 209.096 81.8817C209.111 83.3649 209.131 84.8479 209.157 86.3309C209.194 88.4633 209.211 90.5951 209.224 92.7277C209.24 94.0107 209.256 95.2937 209.272 96.6156C208.931 99.8019 208.931 99.8019 205.931 102.802C206.261 91.5819 206.591 80.3619 206.931 68.8019Z" fill="white"/>
<path d="M27.9312 64.8019C28.5912 65.1319 29.2512 65.4619 29.9312 65.8019C28.9412 67.2869 28.9412 67.2869 27.9312 68.8019C27.5612 72.0018 27.5612 72.0018 27.5171 75.6573C27.4977 76.319 27.4784 76.9806 27.4584 77.6623C27.3987 79.7712 27.3523 81.8802 27.3062 83.9894C27.268 85.421 27.2289 86.8527 27.189 88.2843C27.0931 91.79 27.009 95.2958 26.9312 98.8019C23.5371 95.4078 24.6278 90.642 24.6089 86.0597C24.6122 85.0122 24.6122 85.0122 24.6155 83.9435C24.6187 81.8098 24.5952 79.6776 24.5698 77.5441C24.5676 76.1925 24.5669 74.8409 24.5679 73.4894C24.5649 72.2557 24.5619 71.0221 24.5589 69.7511C24.7432 68.2912 24.7432 68.2912 24.9312 66.8019C25.9212 66.1419 26.9112 65.4819 27.9312 64.8019Z" fill="white"/>
<path d="M110.931 99.8019C114.231 99.8019 117.531 99.8019 120.931 99.8019C120.056 104.677 120.056 104.677 118.931 105.802C115.994 105.989 115.994 105.989 112.931 105.802C112.271 105.142 111.611 104.482 110.931 103.802C110.931 102.482 110.931 101.162 110.931 99.8019Z" fill="white"/>
<path d="M188.931 150.802C189.591 151.132 190.251 151.462 190.931 151.802C190.474 156.829 187.939 159.951 184.931 163.802C183.611 163.472 182.291 163.142 180.931 162.802C181.425 162.103 181.919 161.405 182.427 160.685C183.068 159.775 183.709 158.865 184.369 157.927C185.007 157.022 185.645 156.117 186.302 155.185C187.926 152.924 187.926 152.924 188.931 150.802Z" fill="white"/>
<path d="M35.1812 61.5519C36.0732 61.588 36.9652 61.6241 37.8843 61.6613C38.8975 61.7309 38.8975 61.7309 39.9312 61.8019C39.6012 62.4619 39.2712 63.1219 38.9312 63.8019C35.9897 64.4347 35.9897 64.4347 32.3687 64.9269C31.1711 65.0945 29.9736 65.2621 28.7397 65.4347C27.8129 65.5559 26.8861 65.6771 25.9312 65.8019C28.9252 62.2482 30.5339 61.3073 35.1812 61.5519Z" fill="white"/>
<path d="M202.931 116.802C203.261 117.462 203.591 118.122 203.931 118.802C204.591 118.802 205.251 118.802 205.931 118.802C205.271 121.772 204.611 124.742 203.931 127.802C202.941 127.142 201.951 126.482 200.931 125.802C201.591 122.832 202.251 119.862 202.931 116.802Z" fill="white"/>
<path d="M111.931 100.802C114.571 100.802 117.211 100.802 119.931 100.802C119.271 102.122 118.611 103.442 117.931 104.802C116.281 104.472 114.631 104.142 112.931 103.802C112.601 102.812 112.271 101.822 111.931 100.802Z" fill="white"/>
<path d="M186.931 59.8019C190.891 60.1319 194.851 60.4619 198.931 60.8019C197.941 62.2869 197.941 62.2869 196.931 63.8019C193.631 63.4719 190.331 63.1419 186.931 62.8019C186.931 61.8119 186.931 60.8219 186.931 59.8019Z" fill="white"/>
<path d="M205.931 108.802C206.261 108.802 206.591 108.802 206.931 108.802C207.056 115.427 207.056 115.427 205.931 118.802C205.271 118.802 204.611 118.802 203.931 118.802C204.072 117.322 204.219 115.843 204.369 114.364C204.45 113.541 204.531 112.717 204.615 111.868C204.931 109.802 204.931 109.802 205.931 108.802Z" fill="white"/>
<path d="M184.931 157.802C185.921 158.132 186.911 158.462 187.931 158.802C186.941 160.452 185.951 162.102 184.931 163.802C183.611 163.472 182.291 163.142 180.931 162.802C182.251 161.152 183.571 159.502 184.931 157.802Z" fill="white"/>
<path d="M59.9312 57.8019C58.8062 59.3019 58.8062 59.3019 56.9312 60.8019C53.7437 60.9894 53.7437 60.9894 50.9312 60.8019C54.0031 58.0713 55.8352 57.4606 59.9312 57.8019Z" fill="white"/>
</svg>
