<svg width="491" height="97" viewBox="0 0 491 97" fill="none" xmlns="http://www.w3.org/2000/svg">
<path d="M35.7 73C17.6 73 0.1 62.9 0.1 39.4C0.1 16.2 17.2 4 35.5 4C50 4 56.1 10.6 56.1 12.6C56.1 14.6 52.3 20.4 50.6 20.4C48.4 20.4 46 17.1 35.9 17.1C25.3 17.1 16.1 23.6 16.1 39.3C16.1 54.8 26.1 60.1 37.9 60.1C50 60.1 55.7 54 57.7 54C58.7 54 59.2 54.5 59.2 55.6C59.2 57.5 58.6 61.3 57.1 64.8C56.1 67.4 46.9 73 35.7 73ZM92.3805 96.2C84.1805 96.2 76.4805 93.1 75.5805 90.9C74.2805 87.9 73.6805 84.6 73.6805 82.7C73.6805 81.7 74.1805 81.2 75.1805 81.2C76.7805 81.2 81.8805 84.8 89.4805 84.8C96.2805 84.8 100.48 81.5 100.48 74.3V68C98.5805 69.4 93.6805 73 86.0805 73C76.8805 73 69.5805 67.1 69.5805 57V23.4C69.5805 22.1 70.8805 21 76.9805 21C82.9805 21 84.3805 22.1 84.3805 23.4V53.8C84.3805 58.6 86.7805 61.3 91.4805 61.3C96.1805 61.3 100.48 57.8 100.48 54.8V23.4C100.48 22.1 101.78 21 107.88 21C113.88 21 115.28 22.1 115.28 23.4V74.9C115.28 86.1 107.08 96.2 92.3805 96.2ZM127.393 60.8V2.4C127.393 1.09999 128.693 -2.86102e-06 134.793 -2.86102e-06C140.793 -2.86102e-06 142.193 1.09999 142.193 2.4V24.9C142.193 24.9 147.493 20 155.893 20C166.393 20 175.993 28.7 175.993 44.2C175.993 64.7 162.293 73 148.993 73C135.893 73 127.393 66.3 127.393 60.8ZM150.093 30.8C145.893 30.8 142.193 34.2 142.193 37.1V57C142.193 60.6 145.293 63.3 149.693 63.3C155.093 63.3 160.093 59.4 160.093 45.5C160.093 33.6 155.293 30.8 150.093 30.8ZM210.217 73C194.417 73 182.717 64.8 182.717 47.8C182.717 28.1 195.617 20 208.417 20C222.017 20 228.717 26.4 228.717 34.7C228.717 48.1 211.317 53.5 199.417 53.8C201.617 59.9 207.217 61.8 212.917 61.8C220.617 61.8 224.917 57.3 226.517 57.3C227.217 57.3 227.917 57.7 227.917 58.7C227.917 60.3 227.217 63.9 226.017 66.9C225.217 69 218.917 73 210.217 73ZM208.917 29C203.917 29 198.917 33.6 198.517 46.2C206.517 45.4 213.817 41.1 213.817 33.8C213.817 31 211.617 29 208.917 29ZM246.342 72C240.342 72 238.942 70.8 238.942 69.6V34.6C238.942 30.3 236.142 28.8 236.142 27.2C236.142 24.9 244.442 20 247.542 20C250.542 20 251.542 22.2 253.342 26C253.342 26 258.242 20 264.742 20C268.942 20 273.642 21.8 273.642 23.8C273.642 25.5 269.642 31.4 267.442 33.6C266.742 34.3 266.342 34.6 265.642 34.6C264.142 34.6 262.642 32.1 259.642 32.1C256.642 32.1 253.742 35.1 253.742 38.2V69.6C253.742 70.8 252.442 72 246.342 72ZM301.204 73C291.104 73 280.004 66.2 280.004 55.5V23.4C280.004 22.1 281.404 21 287.404 21C293.504 21 294.804 22.1 294.804 23.4V53.3C294.804 58.9 298.904 61.7 303.104 61.7C308.404 61.7 312.204 55.2 312.204 43C312.204 31.1 308.204 25.5 308.204 23.5C308.204 22 310.404 21 314.004 21C319.904 21 323.204 23 324.404 25.8C326.404 30.7 327.304 36 327.304 41.8C327.204 58.9 316.704 73 301.204 73ZM343.961 -2.86102e-06C349.461 -2.86102e-06 351.961 2.3 351.961 7.7C351.961 13.2 349.461 15.3 343.961 15.3C338.461 15.3 335.961 13.2 335.961 7.7C335.961 2.3 338.461 -2.86102e-06 343.961 -2.86102e-06ZM351.361 23.4V58.3C351.361 61.4 352.861 62.6 355.161 62.6H357.261C358.361 62.6 358.661 63.1 358.661 63.9C358.661 66.2 353.161 73 348.361 73C340.961 73 336.561 68.5 336.561 61.1V23.4C336.561 22.1 337.961 21 343.961 21C350.061 21 351.361 22.1 351.361 23.4ZM385.634 73C373.834 73 364.634 66.3 364.634 64.2C364.634 62 369.734 56.2 371.434 56.2C373.334 56.2 378.734 62.7 386.034 62.7C389.634 62.7 391.434 60.8 391.434 57.9C391.434 54.1 386.334 52.7 380.734 50.7C373.934 48.2 366.434 44.9 366.434 36.5C366.434 26.5 375.134 20 387.734 20C398.934 20 404.334 24.6 404.334 26.9C404.334 29.1 399.534 34.9 397.534 34.9C396.134 34.9 392.534 29.7 386.434 29.7C383.134 29.7 380.934 31.7 380.934 34.4C380.934 37.9 384.834 39.2 389.534 40.8C396.834 43.2 406.134 46 406.134 56.1C406.134 66.2 397.534 73 385.634 73ZM414.677 21H417.377V11.4C417.377 9.3 427.377 5.4 430.477 5.4C431.577 5.4 432.177 6 432.177 7.3V21H441.177C442.077 21 442.777 21.7 442.777 22.6C442.777 25.1 439.377 31.3 436.777 31.3H432.177V53.6C432.177 59.9 435.377 62.6 439.877 62.6H442.177C442.977 62.6 443.377 63.3 443.377 64C443.377 66.2 437.577 73 432.877 73C423.077 73 417.377 66.7 417.377 58V31.3H414.677C413.577 31.3 412.577 29.9 412.577 26.2C412.577 22.4 413.577 21 414.677 21ZM469.912 73C458.112 73 448.912 66.3 448.912 64.2C448.912 62 454.012 56.2 455.712 56.2C457.612 56.2 463.012 62.7 470.312 62.7C473.912 62.7 475.712 60.8 475.712 57.9C475.712 54.1 470.612 52.7 465.012 50.7C458.212 48.2 450.712 44.9 450.712 36.5C450.712 26.5 459.412 20 472.012 20C483.212 20 488.612 24.6 488.612 26.9C488.612 29.1 483.812 34.9 481.812 34.9C480.412 34.9 476.812 29.7 470.712 29.7C467.412 29.7 465.212 31.7 465.212 34.4C465.212 37.9 469.112 39.2 473.812 40.8C481.112 43.2 490.412 46 490.412 56.1C490.412 66.2 481.812 73 469.912 73Z" fill="black"/>
</svg>
