<svg xmlns="http://www.w3.org/2000/svg" xmlns:xlink="http://www.w3.org/1999/xlink" width="895" zoomAndPan="magnify" viewBox="0 0 671.25 624.749986" height="833" preserveAspectRatio="xMidYMid meet" version="1.0"><defs><g/><clipPath id="cb38c8073f"><path d="M 78.101562 372.820312 L 523.851562 372.820312 L 523.851562 623.789062 L 78.101562 623.789062 Z M 78.101562 372.820312 " clip-rule="nonzero"/></clipPath><clipPath id="7f7c89482f"><path d="M 0.394531 0.820312 L 445.851562 0.820312 L 445.851562 251.765625 L 0.394531 251.765625 Z M 0.394531 0.820312 " clip-rule="nonzero"/></clipPath><clipPath id="39e23c256a"><path d="M 318 195 L 445.851562 195 L 445.851562 238 L 318 238 Z M 318 195 " clip-rule="nonzero"/></clipPath><clipPath id="9c98ade5eb"><rect x="0" width="446" y="0" height="252"/></clipPath><clipPath id="4981a838ba"><path d="M 146.222656 0.222656 L 591.976562 0.222656 L 591.976562 251.125 L 146.222656 251.125 Z M 146.222656 0.222656 " clip-rule="nonzero"/></clipPath><clipPath id="943da2311b"><path d="M 0.222656 0.222656 L 445.683594 0.222656 L 445.683594 251.125 L 0.222656 251.125 Z M 0.222656 0.222656 " clip-rule="nonzero"/></clipPath><clipPath id="60f52f1839"><path d="M 0.222656 14 L 128 14 L 128 56 L 0.222656 56 Z M 0.222656 14 " clip-rule="nonzero"/></clipPath><clipPath id="440ced35de"><rect x="0" width="446" y="0" height="252"/></clipPath><clipPath id="75ea05e2ba"><path d="M 396.410156 122.675781 L 647.378906 122.675781 L 647.378906 568.429688 L 396.410156 568.429688 Z M 396.410156 122.675781 " clip-rule="nonzero"/></clipPath><clipPath id="b063799e2b"><path d="M 0.480469 0.675781 L 251.378906 0.675781 L 251.378906 446.429688 L 0.480469 446.429688 Z M 0.480469 0.675781 " clip-rule="nonzero"/></clipPath><clipPath id="bed87de2b9"><path d="M 195 0.675781 L 238 0.675781 L 238 129 L 195 129 Z M 195 0.675781 " clip-rule="nonzero"/></clipPath><clipPath id="615b8ec019"><rect x="0" width="252" y="0" height="447"/></clipPath><clipPath id="8b81a1f154"><path d="M 22.699219 55.351562 L 273.667969 55.351562 L 273.667969 501.101562 L 22.699219 501.101562 Z M 22.699219 55.351562 " clip-rule="nonzero"/></clipPath><clipPath id="0da47d5f4b"><path d="M 0.699219 0.351562 L 251.597656 0.351562 L 251.597656 446.101562 L 0.699219 446.101562 Z M 0.699219 0.351562 " clip-rule="nonzero"/></clipPath><clipPath id="e5ad44033c"><path d="M 14 318 L 57 318 L 57 446.101562 L 14 446.101562 Z M 14 318 " clip-rule="nonzero"/></clipPath><clipPath id="de80319e23"><rect x="0" width="252" y="0" height="447"/></clipPath><clipPath id="c2f63961e1"><path d="M 177.1875 134.914062 L 506.871094 134.914062 L 506.871094 464.601562 L 177.1875 464.601562 Z M 177.1875 134.914062 " clip-rule="nonzero"/></clipPath><clipPath id="593665425b"><path d="M 342.03125 134.914062 C 250.988281 134.914062 177.1875 208.71875 177.1875 299.757812 C 177.1875 390.796875 250.988281 464.601562 342.03125 464.601562 C 433.070312 464.601562 506.871094 390.796875 506.871094 299.757812 C 506.871094 208.71875 433.070312 134.914062 342.03125 134.914062 Z M 342.03125 134.914062 " clip-rule="nonzero"/></clipPath><clipPath id="c42df9c278"><path d="M 0.1875 0.914062 L 329.871094 0.914062 L 329.871094 330.601562 L 0.1875 330.601562 Z M 0.1875 0.914062 " clip-rule="nonzero"/></clipPath><clipPath id="88e486f041"><path d="M 165.03125 0.914062 C 73.988281 0.914062 0.1875 74.71875 0.1875 165.757812 C 0.1875 256.796875 73.988281 330.601562 165.03125 330.601562 C 256.070312 330.601562 329.871094 256.796875 329.871094 165.757812 C 329.871094 74.71875 256.070312 0.914062 165.03125 0.914062 Z M 165.03125 0.914062 " clip-rule="nonzero"/></clipPath><clipPath id="3bf4978adb"><rect x="0" width="330" y="0" height="331"/></clipPath><clipPath id="e21893310a"><path d="M 198 135 L 234.386719 135 L 234.386719 170.613281 L 198 170.613281 Z M 198 135 " clip-rule="nonzero"/></clipPath><clipPath id="238de2a0d1"><path d="M 159.46875 95.699219 L 225 95.699219 L 225 161 L 159.46875 161 Z M 159.46875 95.699219 " clip-rule="nonzero"/></clipPath><clipPath id="f6c94a8fdb"><path d="M 470.023438 131 L 544.941406 131 L 544.941406 136 L 470.023438 136 Z M 470.023438 131 " clip-rule="nonzero"/></clipPath><clipPath id="36d10dcab2"><path d="M 475 489 L 513.332031 489 L 513.332031 526.457031 L 475 526.457031 Z M 475 489 " clip-rule="nonzero"/></clipPath><clipPath id="3e32a7ee91"><path d="M 438.414062 451.542969 L 507 451.542969 L 507 513 L 438.414062 513 Z M 438.414062 451.542969 " clip-rule="nonzero"/></clipPath><clipPath id="62418a91c0"><path d="M 123.128906 421 L 198.042969 421 L 198.042969 492 L 123.128906 492 Z M 123.128906 421 " clip-rule="nonzero"/></clipPath></defs><g clip-path="url(#cb38c8073f)"><g transform="matrix(1, 0, 0, 1, 78, 372)"><g clip-path="url(#9c98ade5eb)"><g clip-path="url(#7f7c89482f)"><path fill="#8194b2" d="M 14.039062 0.820312 L 181.304688 0.820312 C 186.941406 0.820312 192.03125 4.210938 194.183594 9.421875 C 196.347656 14.636719 195.148438 20.625 191.160156 24.613281 L 163.652344 52.121094 L 318.691406 195.964844 L 446.144531 195.964844 C 446.144531 226.753906 421.179688 251.71875 390.390625 251.71875 L 167.367188 251.71875 C 156.75 251.71875 147.167969 247.632812 139.789062 241.113281 L 139.5625 241.136719 L 52.339844 163.433594 L 23.894531 191.878906 C 21.226562 194.546875 17.660156 195.964844 14.039062 195.964844 C 12.242188 195.964844 10.433594 195.625 8.703125 194.902344 C 3.492188 192.75 0.101562 187.660156 0.101562 182.027344 L 0.101562 14.757812 C 0.101562 7.054688 6.335938 0.820312 14.039062 0.820312 Z M 14.039062 0.820312 " fill-opacity="1" fill-rule="nonzero"/></g><g clip-path="url(#39e23c256a)"><path fill="#000000" d="M 318.742188 195.964844 L 446.144531 195.964844 C 446.144531 219.058594 421.179688 237.78125 390.390625 237.78125 C 372.769531 237.78125 357.246094 231.527344 347.027344 221.953125 L 346.898438 222.167969 Z M 318.742188 195.964844 " fill-opacity="0.3" fill-rule="nonzero"/></g></g></g></g><g clip-path="url(#4981a838ba)"><g transform="matrix(1, 0, 0, 1, 146, 0.000000000000007938)"><g clip-path="url(#440ced35de)"><g clip-path="url(#943da2311b)"><path fill="#ff796d" d="M 432.035156 251.125 L 264.769531 251.125 C 259.136719 251.125 254.042969 247.734375 251.894531 242.519531 C 249.730469 237.308594 250.925781 231.316406 254.914062 227.328125 L 282.425781 199.820312 L 127.386719 55.980469 L -0.0664062 55.980469 C -0.0664062 25.1875 24.894531 0.222656 55.6875 0.222656 L 278.710938 0.222656 C 289.328125 0.222656 298.910156 4.308594 306.285156 10.828125 L 306.515625 10.804688 L 393.734375 88.507812 L 422.183594 60.0625 C 424.851562 57.394531 428.417969 55.976562 432.035156 55.976562 C 433.832031 55.976562 435.644531 56.316406 437.371094 57.039062 C 442.585938 59.191406 445.976562 64.28125 445.976562 69.917969 L 445.976562 237.183594 C 445.976562 244.886719 439.742188 251.125 432.035156 251.125 Z M 432.035156 251.125 " fill-opacity="1" fill-rule="nonzero"/></g><g clip-path="url(#60f52f1839)"><path fill="#000000" d="M 127.332031 55.980469 L -0.0664062 55.980469 C -0.0664062 32.882812 24.894531 14.164062 55.6875 14.164062 C 73.308594 14.164062 88.832031 20.414062 99.046875 29.988281 L 99.175781 29.773438 Z M 127.332031 55.980469 " fill-opacity="0.3" fill-rule="nonzero"/></g></g></g></g><g clip-path="url(#75ea05e2ba)"><g transform="matrix(1, 0, 0, 1, 396, 122)"><g clip-path="url(#615b8ec019)"><g clip-path="url(#b063799e2b)"><path fill="#007bff" d="M 0.480469 432.78125 L 0.480469 265.515625 C 0.480469 259.878906 3.867188 254.789062 9.082031 252.640625 C 14.292969 250.472656 20.285156 251.671875 24.273438 255.660156 L 51.78125 283.167969 L 195.621094 128.128906 L 195.621094 0.679688 C 226.414062 0.679688 251.378906 25.640625 251.378906 56.433594 L 251.378906 279.453125 C 251.378906 290.070312 247.292969 299.65625 240.773438 307.03125 L 240.796875 307.261719 L 163.09375 394.480469 L 191.539062 422.925781 C 194.207031 425.59375 195.625 429.164062 195.625 432.78125 C 195.625 434.578125 195.285156 436.390625 194.5625 438.117188 C 192.410156 443.332031 187.320312 446.722656 181.683594 446.722656 L 14.417969 446.722656 C 6.714844 446.722656 0.480469 440.484375 0.480469 432.78125 Z M 0.480469 432.78125 " fill-opacity="1" fill-rule="nonzero"/></g><g clip-path="url(#bed87de2b9)"><path fill="#000000" d="M 195.621094 128.078125 L 195.621094 0.679688 C 218.71875 0.679688 237.4375 25.640625 237.4375 56.433594 C 237.4375 74.054688 231.1875 89.578125 221.613281 99.792969 L 221.828125 99.921875 Z M 195.621094 128.078125 " fill-opacity="0.3" fill-rule="nonzero"/></g></g></g></g><g clip-path="url(#8b81a1f154)"><g transform="matrix(1, 0, 0, 1, 22, 55)"><g clip-path="url(#de80319e23)"><g clip-path="url(#0da47d5f4b)"><path fill="#0f149a" d="M 251.597656 13.996094 L 251.597656 181.261719 C 251.597656 186.898438 248.207031 191.988281 242.996094 194.140625 C 237.78125 196.304688 231.792969 195.105469 227.804688 191.117188 L 200.296875 163.609375 L 56.453125 318.648438 L 56.453125 446.101562 C 25.660156 446.101562 0.699219 421.136719 0.699219 390.347656 L 0.699219 167.324219 C 0.699219 156.707031 4.78125 147.125 11.300781 139.746094 L 11.28125 139.519531 L 88.984375 52.296875 L 60.535156 23.851562 C 57.867188 21.183594 56.453125 17.617188 56.453125 13.996094 C 56.453125 12.199219 56.792969 10.390625 57.515625 8.660156 C 59.664062 3.449219 64.757812 0.0585938 70.390625 0.0585938 L 237.660156 0.0585938 C 245.363281 0.0585938 251.597656 6.292969 251.597656 13.996094 Z M 251.597656 13.996094 " fill-opacity="1" fill-rule="nonzero"/></g><g clip-path="url(#e5ad44033c)"><path fill="#000000" d="M 56.453125 318.699219 L 56.453125 446.101562 C 33.359375 446.101562 14.636719 421.136719 14.636719 390.347656 C 14.636719 372.722656 20.890625 357.203125 30.464844 346.984375 L 30.25 346.855469 Z M 56.453125 318.699219 " fill-opacity="0.3" fill-rule="nonzero"/></g></g></g></g><g clip-path="url(#c2f63961e1)"><g clip-path="url(#593665425b)"><g transform="matrix(1, 0, 0, 1, 177, 134)"><g clip-path="url(#3bf4978adb)"><g clip-path="url(#c42df9c278)"><g clip-path="url(#88e486f041)"><path fill="#ffffff" d="M 0.1875 0.914062 L 329.871094 0.914062 L 329.871094 330.601562 L 0.1875 330.601562 Z M 0.1875 0.914062 " fill-opacity="1" fill-rule="nonzero"/></g></g></g></g></g></g><g fill="#000000" fill-opacity="1"><g transform="translate(292.73358, 250.286402)"><g><path d="M 15.15625 0.40625 C 12.5625 0.40625 10.242188 -0.171875 8.203125 -1.328125 C 6.171875 -2.492188 4.566406 -4.101562 3.390625 -6.15625 C 2.222656 -8.21875 1.640625 -10.578125 1.640625 -13.234375 C 1.640625 -15.410156 2.019531 -17.460938 2.78125 -19.390625 C 3.550781 -21.316406 4.617188 -23.003906 5.984375 -24.453125 C 7.347656 -25.898438 8.957031 -27.03125 10.8125 -27.84375 C 12.664062 -28.664062 14.6875 -29.078125 16.875 -29.078125 C 19.632812 -29.078125 22.019531 -28.460938 24.03125 -27.234375 C 26.050781 -26.003906 27.613281 -24.34375 28.71875 -22.25 C 29.832031 -20.164062 30.390625 -17.800781 30.390625 -15.15625 C 30.390625 -12.9375 30.015625 -10.882812 29.265625 -9 C 28.515625 -7.125 27.457031 -5.472656 26.09375 -4.046875 C 24.726562 -2.628906 23.113281 -1.53125 21.25 -0.75 C 19.394531 0.0195312 17.363281 0.40625 15.15625 0.40625 Z M 17.28125 -2.828125 C 19.03125 -2.828125 20.445312 -3.242188 21.53125 -4.078125 C 22.625 -4.910156 23.429688 -6.03125 23.953125 -7.4375 C 24.472656 -8.84375 24.734375 -10.378906 24.734375 -12.046875 C 24.734375 -13.765625 24.507812 -15.460938 24.0625 -17.140625 C 23.613281 -18.816406 22.960938 -20.335938 22.109375 -21.703125 C 21.265625 -23.066406 20.238281 -24.148438 19.03125 -24.953125 C 17.832031 -25.765625 16.472656 -26.171875 14.953125 -26.171875 C 13.253906 -26.171875 11.832031 -25.734375 10.6875 -24.859375 C 9.539062 -23.984375 8.6875 -22.847656 8.125 -21.453125 C 7.570312 -20.066406 7.296875 -18.566406 7.296875 -16.953125 C 7.296875 -15.179688 7.523438 -13.453125 7.984375 -11.765625 C 8.453125 -10.085938 9.113281 -8.570312 9.96875 -7.21875 C 10.832031 -5.875 11.878906 -4.804688 13.109375 -4.015625 C 14.335938 -3.222656 15.726562 -2.828125 17.28125 -2.828125 Z M 17.28125 -2.828125 "/></g></g></g><g fill="#000000" fill-opacity="1"><g transform="translate(324.835593, 250.286402)"><g><path d="M 15.234375 0.40625 C 7.535156 0.40625 3.6875 -3.90625 3.6875 -12.53125 L 3.6875 -21.78125 C 3.6875 -23.007812 3.554688 -23.910156 3.296875 -24.484375 C 3.035156 -25.054688 2.734375 -25.472656 2.390625 -25.734375 C 2.054688 -25.992188 1.757812 -26.226562 1.5 -26.4375 C 1.238281 -26.644531 1.109375 -26.992188 1.109375 -27.484375 C 1.109375 -27.921875 1.269531 -28.21875 1.59375 -28.375 C 1.925781 -28.539062 2.515625 -28.625 3.359375 -28.625 L 9.90625 -28.625 C 10.695312 -28.625 11.269531 -28.539062 11.625 -28.375 C 11.976562 -28.21875 12.15625 -27.921875 12.15625 -27.484375 C 12.15625 -26.992188 12.019531 -26.644531 11.75 -26.4375 C 11.476562 -26.226562 11.171875 -25.992188 10.828125 -25.734375 C 10.484375 -25.472656 10.175781 -25.054688 9.90625 -24.484375 C 9.632812 -23.910156 9.5 -23.007812 9.5 -21.78125 L 9.5 -11.421875 C 9.5 -8.609375 10.117188 -6.472656 11.359375 -5.015625 C 12.609375 -3.554688 14.351562 -2.828125 16.59375 -2.828125 C 18.882812 -2.828125 20.648438 -3.640625 21.890625 -5.265625 C 23.128906 -6.890625 23.75 -9.09375 23.75 -11.875 L 23.71875 -23.546875 C 23.71875 -24.253906 23.609375 -24.800781 23.390625 -25.1875 C 23.171875 -25.570312 22.910156 -25.875 22.609375 -26.09375 C 22.304688 -26.3125 22.046875 -26.523438 21.828125 -26.734375 C 21.609375 -26.953125 21.5 -27.242188 21.5 -27.609375 C 21.5 -28.035156 21.65625 -28.3125 21.96875 -28.4375 C 22.28125 -28.5625 22.753906 -28.625 23.390625 -28.625 L 27.03125 -28.625 C 27.738281 -28.625 28.234375 -28.554688 28.515625 -28.421875 C 28.804688 -28.285156 28.953125 -28 28.953125 -27.5625 C 28.953125 -27.226562 28.84375 -26.953125 28.625 -26.734375 C 28.40625 -26.523438 28.144531 -26.3125 27.84375 -26.09375 C 27.539062 -25.875 27.273438 -25.570312 27.046875 -25.1875 C 26.816406 -24.800781 26.703125 -24.253906 26.703125 -23.546875 L 26.703125 -12.8125 C 26.671875 -8.28125 25.71875 -4.941406 23.84375 -2.796875 C 21.976562 -0.660156 19.109375 0.40625 15.234375 0.40625 Z M 15.234375 0.40625 "/></g></g></g><g fill="#000000" fill-opacity="1"><g transform="translate(354.849344, 250.286402)"><g><path d="M 20.359375 -11.625 L 24.046875 -5.15625 C 24.453125 -4.445312 24.851562 -3.914062 25.25 -3.5625 C 25.644531 -3.207031 26.003906 -2.929688 26.328125 -2.734375 C 26.660156 -2.546875 26.921875 -2.34375 27.109375 -2.125 C 27.296875 -1.90625 27.390625 -1.578125 27.390625 -1.140625 C 27.390625 -0.703125 27.234375 -0.398438 26.921875 -0.234375 C 26.609375 -0.078125 26.070312 0 25.3125 0 L 19.28125 0 C 18.632812 0 18.144531 -0.0859375 17.8125 -0.265625 C 17.488281 -0.441406 17.328125 -0.75 17.328125 -1.1875 C 17.328125 -1.539062 17.421875 -1.847656 17.609375 -2.109375 C 17.796875 -2.367188 17.992188 -2.628906 18.203125 -2.890625 C 18.410156 -3.148438 18.519531 -3.476562 18.53125 -3.875 C 18.539062 -4.269531 18.382812 -4.765625 18.0625 -5.359375 L 15.765625 -9.453125 C 15.460938 -10.054688 15.097656 -10.457031 14.671875 -10.65625 C 14.253906 -10.863281 13.566406 -11.039062 12.609375 -11.1875 C 11.710938 -11.320312 11.003906 -11.351562 10.484375 -11.28125 C 9.960938 -11.21875 9.703125 -10.867188 9.703125 -10.234375 L 9.703125 -6.84375 C 9.703125 -5.613281 9.832031 -4.710938 10.09375 -4.140625 C 10.351562 -3.566406 10.65625 -3.15625 11 -2.90625 C 11.34375 -2.664062 11.640625 -2.4375 11.890625 -2.21875 C 12.148438 -2 12.28125 -1.640625 12.28125 -1.140625 C 12.28125 -0.703125 12.113281 -0.398438 11.78125 -0.234375 C 11.457031 -0.078125 10.875 0 10.03125 0 L 3.515625 0 C 2.703125 0 2.117188 -0.078125 1.765625 -0.234375 C 1.410156 -0.398438 1.234375 -0.703125 1.234375 -1.140625 C 1.234375 -1.640625 1.367188 -2 1.640625 -2.21875 C 1.910156 -2.4375 2.222656 -2.664062 2.578125 -2.90625 C 2.929688 -3.15625 3.242188 -3.566406 3.515625 -4.140625 C 3.796875 -4.710938 3.9375 -5.613281 3.9375 -6.84375 L 3.9375 -21.703125 C 3.9375 -22.765625 3.847656 -23.582031 3.671875 -24.15625 C 3.492188 -24.726562 3.265625 -25.148438 2.984375 -25.421875 C 2.710938 -25.703125 2.441406 -25.914062 2.171875 -26.0625 C 1.898438 -26.21875 1.675781 -26.390625 1.5 -26.578125 C 1.320312 -26.765625 1.234375 -27.078125 1.234375 -27.515625 C 1.234375 -27.984375 1.410156 -28.289062 1.765625 -28.4375 C 2.117188 -28.59375 2.703125 -28.671875 3.515625 -28.671875 L 12.453125 -28.671875 C 15.398438 -28.671875 17.832031 -28.238281 19.75 -27.375 C 21.675781 -26.519531 23.117188 -25.394531 24.078125 -24 C 25.035156 -22.601562 25.515625 -21.085938 25.515625 -19.453125 C 25.515625 -17.597656 25.078125 -16 24.203125 -14.65625 C 23.328125 -13.320312 22.046875 -12.3125 20.359375 -11.625 Z M 13.765625 -13.46875 C 15.097656 -13.332031 16.1875 -13.503906 17.03125 -13.984375 C 17.882812 -14.460938 18.519531 -15.140625 18.9375 -16.015625 C 19.363281 -16.890625 19.578125 -17.84375 19.578125 -18.875 C 19.578125 -20.238281 19.273438 -21.472656 18.671875 -22.578125 C 18.078125 -23.691406 17.234375 -24.570312 16.140625 -25.21875 C 15.046875 -25.875 13.75 -26.203125 12.25 -26.203125 C 11.15625 -26.234375 10.457031 -26.171875 10.15625 -26.015625 C 9.851562 -25.867188 9.703125 -25.578125 9.703125 -25.140625 L 9.703125 -15.390625 C 9.703125 -14.960938 9.921875 -14.609375 10.359375 -14.328125 C 10.796875 -14.054688 11.328125 -13.859375 11.953125 -13.734375 C 12.585938 -13.617188 13.191406 -13.53125 13.765625 -13.46875 Z M 13.765625 -13.46875 "/></g></g></g><g fill="#000000" fill-opacity="1"><g transform="translate(383.113063, 250.286402)"><g/></g></g><g fill="#000000" fill-opacity="1"><g transform="translate(280.67674, 307.222783)"><g><path d="M 15.8125 0.40625 C 13.019531 0.40625 10.554688 -0.171875 8.421875 -1.328125 C 6.296875 -2.492188 4.632812 -4.132812 3.4375 -6.25 C 2.238281 -8.363281 1.640625 -10.867188 1.640625 -13.765625 C 1.640625 -15.890625 2.015625 -17.875 2.765625 -19.71875 C 3.515625 -21.5625 4.5625 -23.1875 5.90625 -24.59375 C 7.257812 -26 8.84375 -27.097656 10.65625 -27.890625 C 12.476562 -28.679688 14.457031 -29.078125 16.59375 -29.078125 C 17.875 -29.078125 18.898438 -28.957031 19.671875 -28.71875 C 20.453125 -28.488281 21.085938 -28.375 21.578125 -28.375 C 22.097656 -28.375 22.488281 -28.484375 22.75 -28.703125 C 23.007812 -28.921875 23.367188 -29.03125 23.828125 -29.03125 C 24.210938 -29.03125 24.523438 -28.882812 24.765625 -28.59375 C 25.015625 -28.3125 25.265625 -27.734375 25.515625 -26.859375 C 25.734375 -26.148438 25.953125 -25.34375 26.171875 -24.4375 C 26.390625 -23.539062 26.59375 -22.476562 26.78125 -21.25 C 26.863281 -20.707031 26.84375 -20.28125 26.71875 -19.96875 C 26.59375 -19.65625 26.300781 -19.46875 25.84375 -19.40625 C 25.40625 -19.382812 25.054688 -19.53125 24.796875 -19.84375 C 24.535156 -20.15625 24.203125 -20.613281 23.796875 -21.21875 C 22.867188 -22.582031 21.773438 -23.773438 20.515625 -24.796875 C 19.265625 -25.816406 17.738281 -26.328125 15.9375 -26.328125 C 14.1875 -26.328125 12.679688 -25.882812 11.421875 -25 C 10.171875 -24.113281 9.207031 -22.921875 8.53125 -21.421875 C 7.863281 -19.921875 7.53125 -18.226562 7.53125 -16.34375 C 7.53125 -13.988281 7.941406 -11.816406 8.765625 -9.828125 C 9.585938 -7.835938 10.757812 -6.238281 12.28125 -5.03125 C 13.8125 -3.832031 15.644531 -3.234375 17.78125 -3.234375 C 19.46875 -3.234375 20.953125 -3.570312 22.234375 -4.25 C 23.515625 -4.9375 24.703125 -5.867188 25.796875 -7.046875 C 26.128906 -7.398438 26.453125 -7.535156 26.765625 -7.453125 C 27.078125 -7.367188 27.296875 -7.15625 27.421875 -6.8125 C 27.546875 -6.476562 27.484375 -6.09375 27.234375 -5.65625 C 26.742188 -4.613281 25.953125 -3.628906 24.859375 -2.703125 C 23.765625 -1.773438 22.453125 -1.023438 20.921875 -0.453125 C 19.398438 0.117188 17.695312 0.40625 15.8125 0.40625 Z M 15.8125 0.40625 "/></g></g></g><g fill="#000000" fill-opacity="1"><g transform="translate(309.298304, 307.222783)"><g><path d="M 15.15625 0.40625 C 12.5625 0.40625 10.242188 -0.171875 8.203125 -1.328125 C 6.171875 -2.492188 4.566406 -4.101562 3.390625 -6.15625 C 2.222656 -8.21875 1.640625 -10.578125 1.640625 -13.234375 C 1.640625 -15.410156 2.019531 -17.460938 2.78125 -19.390625 C 3.550781 -21.316406 4.617188 -23.003906 5.984375 -24.453125 C 7.347656 -25.898438 8.957031 -27.03125 10.8125 -27.84375 C 12.664062 -28.664062 14.6875 -29.078125 16.875 -29.078125 C 19.632812 -29.078125 22.019531 -28.460938 24.03125 -27.234375 C 26.050781 -26.003906 27.613281 -24.34375 28.71875 -22.25 C 29.832031 -20.164062 30.390625 -17.800781 30.390625 -15.15625 C 30.390625 -12.9375 30.015625 -10.882812 29.265625 -9 C 28.515625 -7.125 27.457031 -5.472656 26.09375 -4.046875 C 24.726562 -2.628906 23.113281 -1.53125 21.25 -0.75 C 19.394531 0.0195312 17.363281 0.40625 15.15625 0.40625 Z M 17.28125 -2.828125 C 19.03125 -2.828125 20.445312 -3.242188 21.53125 -4.078125 C 22.625 -4.910156 23.429688 -6.03125 23.953125 -7.4375 C 24.472656 -8.84375 24.734375 -10.378906 24.734375 -12.046875 C 24.734375 -13.765625 24.507812 -15.460938 24.0625 -17.140625 C 23.613281 -18.816406 22.960938 -20.335938 22.109375 -21.703125 C 21.265625 -23.066406 20.238281 -24.148438 19.03125 -24.953125 C 17.832031 -25.765625 16.472656 -26.171875 14.953125 -26.171875 C 13.253906 -26.171875 11.832031 -25.734375 10.6875 -24.859375 C 9.539062 -23.984375 8.6875 -22.847656 8.125 -21.453125 C 7.570312 -20.066406 7.296875 -18.566406 7.296875 -16.953125 C 7.296875 -15.179688 7.523438 -13.453125 7.984375 -11.765625 C 8.453125 -10.085938 9.113281 -8.570312 9.96875 -7.21875 C 10.832031 -5.875 11.878906 -4.804688 13.109375 -4.015625 C 14.335938 -3.222656 15.726562 -2.828125 17.28125 -2.828125 Z M 17.28125 -2.828125 "/></g></g></g><g fill="#000000" fill-opacity="1"><g transform="translate(341.400317, 307.222783)"><g><path d="M 20.359375 -11.625 L 24.046875 -5.15625 C 24.453125 -4.445312 24.851562 -3.914062 25.25 -3.5625 C 25.644531 -3.207031 26.003906 -2.929688 26.328125 -2.734375 C 26.660156 -2.546875 26.921875 -2.34375 27.109375 -2.125 C 27.296875 -1.90625 27.390625 -1.578125 27.390625 -1.140625 C 27.390625 -0.703125 27.234375 -0.398438 26.921875 -0.234375 C 26.609375 -0.078125 26.070312 0 25.3125 0 L 19.28125 0 C 18.632812 0 18.144531 -0.0859375 17.8125 -0.265625 C 17.488281 -0.441406 17.328125 -0.75 17.328125 -1.1875 C 17.328125 -1.539062 17.421875 -1.847656 17.609375 -2.109375 C 17.796875 -2.367188 17.992188 -2.628906 18.203125 -2.890625 C 18.410156 -3.148438 18.519531 -3.476562 18.53125 -3.875 C 18.539062 -4.269531 18.382812 -4.765625 18.0625 -5.359375 L 15.765625 -9.453125 C 15.460938 -10.054688 15.097656 -10.457031 14.671875 -10.65625 C 14.253906 -10.863281 13.566406 -11.039062 12.609375 -11.1875 C 11.710938 -11.320312 11.003906 -11.351562 10.484375 -11.28125 C 9.960938 -11.21875 9.703125 -10.867188 9.703125 -10.234375 L 9.703125 -6.84375 C 9.703125 -5.613281 9.832031 -4.710938 10.09375 -4.140625 C 10.351562 -3.566406 10.65625 -3.15625 11 -2.90625 C 11.34375 -2.664062 11.640625 -2.4375 11.890625 -2.21875 C 12.148438 -2 12.28125 -1.640625 12.28125 -1.140625 C 12.28125 -0.703125 12.113281 -0.398438 11.78125 -0.234375 C 11.457031 -0.078125 10.875 0 10.03125 0 L 3.515625 0 C 2.703125 0 2.117188 -0.078125 1.765625 -0.234375 C 1.410156 -0.398438 1.234375 -0.703125 1.234375 -1.140625 C 1.234375 -1.640625 1.367188 -2 1.640625 -2.21875 C 1.910156 -2.4375 2.222656 -2.664062 2.578125 -2.90625 C 2.929688 -3.15625 3.242188 -3.566406 3.515625 -4.140625 C 3.796875 -4.710938 3.9375 -5.613281 3.9375 -6.84375 L 3.9375 -21.703125 C 3.9375 -22.765625 3.847656 -23.582031 3.671875 -24.15625 C 3.492188 -24.726562 3.265625 -25.148438 2.984375 -25.421875 C 2.710938 -25.703125 2.441406 -25.914062 2.171875 -26.0625 C 1.898438 -26.21875 1.675781 -26.390625 1.5 -26.578125 C 1.320312 -26.765625 1.234375 -27.078125 1.234375 -27.515625 C 1.234375 -27.984375 1.410156 -28.289062 1.765625 -28.4375 C 2.117188 -28.59375 2.703125 -28.671875 3.515625 -28.671875 L 12.453125 -28.671875 C 15.398438 -28.671875 17.832031 -28.238281 19.75 -27.375 C 21.675781 -26.519531 23.117188 -25.394531 24.078125 -24 C 25.035156 -22.601562 25.515625 -21.085938 25.515625 -19.453125 C 25.515625 -17.597656 25.078125 -16 24.203125 -14.65625 C 23.328125 -13.320312 22.046875 -12.3125 20.359375 -11.625 Z M 13.765625 -13.46875 C 15.097656 -13.332031 16.1875 -13.503906 17.03125 -13.984375 C 17.882812 -14.460938 18.519531 -15.140625 18.9375 -16.015625 C 19.363281 -16.890625 19.578125 -17.84375 19.578125 -18.875 C 19.578125 -20.238281 19.273438 -21.472656 18.671875 -22.578125 C 18.078125 -23.691406 17.234375 -24.570312 16.140625 -25.21875 C 15.046875 -25.875 13.75 -26.203125 12.25 -26.203125 C 11.15625 -26.234375 10.457031 -26.171875 10.15625 -26.015625 C 9.851562 -25.867188 9.703125 -25.578125 9.703125 -25.140625 L 9.703125 -15.390625 C 9.703125 -14.960938 9.921875 -14.609375 10.359375 -14.328125 C 10.796875 -14.054688 11.328125 -13.859375 11.953125 -13.734375 C 12.585938 -13.617188 13.191406 -13.53125 13.765625 -13.46875 Z M 13.765625 -13.46875 "/></g></g></g><g fill="#000000" fill-opacity="1"><g transform="translate(369.653371, 307.222783)"><g><path d="M 23.21875 -8.5625 C 23.65625 -8.476562 23.914062 -8.28125 24 -7.96875 C 24.082031 -7.65625 24.109375 -7.222656 24.078125 -6.671875 C 24.054688 -5.554688 23.988281 -4.59375 23.875 -3.78125 C 23.769531 -2.976562 23.632812 -2.289062 23.46875 -1.71875 C 23.300781 -1.113281 23 -0.675781 22.5625 -0.40625 C 22.125 -0.132812 21.28125 0 20.03125 0 L 3.515625 0 C 2.703125 0 2.117188 -0.078125 1.765625 -0.234375 C 1.410156 -0.398438 1.234375 -0.703125 1.234375 -1.140625 C 1.234375 -1.578125 1.320312 -1.890625 1.5 -2.078125 C 1.675781 -2.273438 1.898438 -2.445312 2.171875 -2.59375 C 2.441406 -2.75 2.710938 -2.960938 2.984375 -3.234375 C 3.265625 -3.503906 3.492188 -3.925781 3.671875 -4.5 C 3.847656 -5.070312 3.9375 -5.894531 3.9375 -6.96875 L 3.9375 -21.703125 C 3.9375 -22.765625 3.847656 -23.582031 3.671875 -24.15625 C 3.492188 -24.726562 3.265625 -25.148438 2.984375 -25.421875 C 2.710938 -25.703125 2.441406 -25.914062 2.171875 -26.0625 C 1.898438 -26.21875 1.675781 -26.390625 1.5 -26.578125 C 1.320312 -26.765625 1.234375 -27.078125 1.234375 -27.515625 C 1.234375 -27.984375 1.410156 -28.289062 1.765625 -28.4375 C 2.117188 -28.59375 2.703125 -28.671875 3.515625 -28.671875 L 19.375 -28.671875 C 20.570312 -28.671875 21.378906 -28.585938 21.796875 -28.421875 C 22.222656 -28.253906 22.546875 -27.859375 22.765625 -27.234375 C 22.960938 -26.691406 23.15625 -26.070312 23.34375 -25.375 C 23.53125 -24.675781 23.691406 -23.890625 23.828125 -23.015625 C 23.941406 -22.472656 23.960938 -22.03125 23.890625 -21.6875 C 23.828125 -21.34375 23.601562 -21.117188 23.21875 -21.015625 C 22.832031 -20.898438 22.492188 -20.9375 22.203125 -21.125 C 21.921875 -21.320312 21.617188 -21.679688 21.296875 -22.203125 C 20.503906 -23.484375 19.644531 -24.453125 18.71875 -25.109375 C 17.789062 -25.765625 16.644531 -26.09375 15.28125 -26.09375 L 13.34375 -26.09375 C 11.820312 -26.09375 10.832031 -25.941406 10.375 -25.640625 C 9.925781 -25.335938 9.703125 -24.859375 9.703125 -24.203125 L 9.703125 -20.03125 C 9.703125 -19.15625 9.941406 -18.597656 10.421875 -18.359375 C 10.898438 -18.128906 11.578125 -18.015625 12.453125 -18.015625 L 12.859375 -18.015625 C 13.703125 -18.015625 14.351562 -18.082031 14.8125 -18.21875 C 15.28125 -18.351562 15.640625 -18.515625 15.890625 -18.703125 C 16.140625 -18.898438 16.363281 -19.066406 16.5625 -19.203125 C 16.769531 -19.335938 17.050781 -19.40625 17.40625 -19.40625 C 17.789062 -19.40625 18.070312 -19.296875 18.25 -19.078125 C 18.425781 -18.859375 18.554688 -18.5625 18.640625 -18.1875 L 19.609375 -13.515625 C 19.773438 -12.773438 19.800781 -12.273438 19.6875 -12.015625 C 19.582031 -11.753906 19.34375 -11.585938 18.96875 -11.515625 C 18.46875 -11.398438 18.046875 -11.53125 17.703125 -11.90625 C 17.367188 -12.289062 17.007812 -12.753906 16.625 -13.296875 C 16.238281 -13.847656 15.757812 -14.34375 15.1875 -14.78125 C 14.613281 -15.21875 13.835938 -15.4375 12.859375 -15.4375 L 12.453125 -15.4375 C 11.578125 -15.4375 10.898438 -15.328125 10.421875 -15.109375 C 9.941406 -14.890625 9.703125 -14.332031 9.703125 -13.4375 L 9.703125 -4.5 C 9.703125 -3.820312 9.929688 -3.332031 10.390625 -3.03125 C 10.859375 -2.726562 11.925781 -2.578125 13.59375 -2.578125 L 16.296875 -2.625 C 17.253906 -2.625 18.019531 -2.785156 18.59375 -3.109375 C 19.164062 -3.441406 19.660156 -3.929688 20.078125 -4.578125 C 20.503906 -5.234375 20.9375 -6.039062 21.375 -7 C 21.707031 -7.707031 22.015625 -8.164062 22.296875 -8.375 C 22.585938 -8.582031 22.894531 -8.644531 23.21875 -8.5625 Z M 23.21875 -8.5625 "/></g></g></g><g fill="#000000" fill-opacity="1"><g transform="translate(395.169903, 307.222783)"><g/></g></g><g fill="#000000" fill-opacity="1"><g transform="translate(263.012883, 364.159165)"><g><path d="M 23.546875 -28.625 L 27.234375 -28.625 C 27.859375 -28.625 28.367188 -28.554688 28.765625 -28.421875 C 29.160156 -28.285156 29.359375 -28.015625 29.359375 -27.609375 C 29.359375 -27.222656 29.234375 -26.925781 28.984375 -26.71875 C 28.742188 -26.519531 28.4375 -26.3125 28.0625 -26.09375 C 27.695312 -25.875 27.316406 -25.566406 26.921875 -25.171875 C 26.523438 -24.773438 26.175781 -24.191406 25.875 -23.421875 L 17.28125 -1.3125 C 17.144531 -0.90625 16.953125 -0.597656 16.703125 -0.390625 C 16.460938 -0.179688 15.929688 -0.0234375 15.109375 0.078125 C 14.179688 0.191406 13.546875 0.195312 13.203125 0.09375 C 12.867188 0 12.617188 -0.265625 12.453125 -0.703125 L 3.40625 -23.265625 C 3.070312 -24.109375 2.726562 -24.734375 2.375 -25.140625 C 2.019531 -25.554688 1.695312 -25.863281 1.40625 -26.0625 C 1.125 -26.269531 0.882812 -26.460938 0.6875 -26.640625 C 0.5 -26.816406 0.40625 -27.097656 0.40625 -27.484375 C 0.40625 -27.941406 0.566406 -28.253906 0.890625 -28.421875 C 1.222656 -28.585938 1.785156 -28.671875 2.578125 -28.671875 L 9.171875 -28.671875 C 9.828125 -28.671875 10.316406 -28.585938 10.640625 -28.421875 C 10.972656 -28.253906 11.140625 -27.953125 11.140625 -27.515625 C 11.140625 -27.109375 11.007812 -26.804688 10.75 -26.609375 C 10.488281 -26.421875 10.210938 -26.21875 9.921875 -26 C 9.640625 -25.78125 9.453125 -25.472656 9.359375 -25.078125 C 9.265625 -24.679688 9.367188 -24.078125 9.671875 -23.265625 L 16.296875 -6.34375 L 22.765625 -23.421875 C 23.066406 -24.210938 23.179688 -24.8125 23.109375 -25.21875 C 23.046875 -25.632812 22.90625 -25.941406 22.6875 -26.140625 C 22.46875 -26.347656 22.25 -26.546875 22.03125 -26.734375 C 21.8125 -26.929688 21.703125 -27.207031 21.703125 -27.5625 C 21.703125 -28.019531 21.878906 -28.3125 22.234375 -28.4375 C 22.585938 -28.5625 23.023438 -28.625 23.546875 -28.625 Z M 23.546875 -28.625 "/></g></g></g><g fill="#000000" fill-opacity="1"><g transform="translate(287.457581, 364.159165)"><g><path d="M 7.40625 -7 L 6.671875 -5.234375 C 6.347656 -4.441406 6.21875 -3.84375 6.28125 -3.4375 C 6.351562 -3.03125 6.503906 -2.722656 6.734375 -2.515625 C 6.960938 -2.316406 7.1875 -2.125 7.40625 -1.9375 C 7.625 -1.757812 7.734375 -1.484375 7.734375 -1.109375 C 7.734375 -0.671875 7.554688 -0.382812 7.203125 -0.25 C 6.847656 -0.113281 6.398438 -0.046875 5.859375 -0.046875 L 2.21875 -0.046875 C 1.5625 -0.046875 1.039062 -0.113281 0.65625 -0.25 C 0.269531 -0.382812 0.078125 -0.65625 0.078125 -1.0625 C 0.078125 -1.445312 0.191406 -1.738281 0.421875 -1.9375 C 0.660156 -2.144531 0.960938 -2.359375 1.328125 -2.578125 C 1.703125 -2.796875 2.085938 -3.101562 2.484375 -3.5 C 2.878906 -3.894531 3.222656 -4.472656 3.515625 -5.234375 L 10.890625 -23.59375 C 11.140625 -24.25 11.210938 -24.753906 11.109375 -25.109375 C 11.015625 -25.460938 10.835938 -25.75 10.578125 -25.96875 C 10.328125 -26.1875 10.082031 -26.410156 9.84375 -26.640625 C 9.613281 -26.867188 9.5 -27.175781 9.5 -27.5625 C 9.5 -28.300781 9.9375 -28.671875 10.8125 -28.671875 L 15.4375 -28.671875 C 16.175781 -28.671875 16.679688 -28.328125 16.953125 -27.640625 L 25.765625 -5.40625 C 26.085938 -4.5625 26.425781 -3.929688 26.78125 -3.515625 C 27.132812 -3.109375 27.460938 -2.800781 27.765625 -2.59375 C 28.066406 -2.394531 28.3125 -2.207031 28.5 -2.03125 C 28.695312 -1.851562 28.796875 -1.570312 28.796875 -1.1875 C 28.796875 -0.75 28.628906 -0.441406 28.296875 -0.265625 C 27.972656 -0.0859375 27.414062 0 26.625 0 L 20.03125 0 C 19.375 0 18.878906 -0.078125 18.546875 -0.234375 C 18.222656 -0.398438 18.0625 -0.703125 18.0625 -1.140625 C 18.0625 -1.554688 18.191406 -1.859375 18.453125 -2.046875 C 18.710938 -2.234375 18.984375 -2.4375 19.265625 -2.65625 C 19.554688 -2.875 19.75 -3.179688 19.84375 -3.578125 C 19.9375 -3.972656 19.832031 -4.582031 19.53125 -5.40625 L 18.921875 -6.875 C 18.804688 -7.207031 18.679688 -7.453125 18.546875 -7.609375 C 18.410156 -7.773438 18.171875 -7.898438 17.828125 -7.984375 C 17.492188 -8.066406 16.960938 -8.113281 16.234375 -8.125 C 15.515625 -8.144531 14.5 -8.15625 13.1875 -8.15625 C 11.851562 -8.15625 10.816406 -8.144531 10.078125 -8.125 C 9.335938 -8.113281 8.796875 -8.070312 8.453125 -8 C 8.109375 -7.9375 7.875 -7.828125 7.75 -7.671875 C 7.632812 -7.523438 7.519531 -7.300781 7.40625 -7 Z M 13.234375 -10.734375 C 14.617188 -10.734375 15.597656 -10.742188 16.171875 -10.765625 C 16.742188 -10.796875 17.054688 -10.890625 17.109375 -11.046875 C 17.171875 -11.210938 17.132812 -11.472656 17 -11.828125 L 13.1875 -21.625 L 9.375 -11.953125 C 9.207031 -11.546875 9.148438 -11.253906 9.203125 -11.078125 C 9.265625 -10.898438 9.585938 -10.796875 10.171875 -10.765625 C 10.765625 -10.742188 11.785156 -10.734375 13.234375 -10.734375 Z M 13.234375 -10.734375 "/></g></g></g><g fill="#000000" fill-opacity="1"><g transform="translate(316.775233, 364.159165)"><g><path d="M 21.625 -8.5625 C 22.0625 -8.476562 22.320312 -8.28125 22.40625 -7.96875 C 22.488281 -7.65625 22.515625 -7.222656 22.484375 -6.671875 C 22.453125 -5.554688 22.378906 -4.59375 22.265625 -3.78125 C 22.160156 -2.976562 22.03125 -2.289062 21.875 -1.71875 C 21.707031 -1.113281 21.40625 -0.675781 20.96875 -0.40625 C 20.53125 -0.132812 19.679688 0 18.421875 0 L 3.515625 0 C 2.703125 0 2.117188 -0.078125 1.765625 -0.234375 C 1.410156 -0.398438 1.234375 -0.703125 1.234375 -1.140625 C 1.234375 -1.578125 1.320312 -1.890625 1.5 -2.078125 C 1.675781 -2.273438 1.898438 -2.445312 2.171875 -2.59375 C 2.441406 -2.75 2.710938 -2.960938 2.984375 -3.234375 C 3.265625 -3.503906 3.492188 -3.925781 3.671875 -4.5 C 3.847656 -5.070312 3.9375 -5.894531 3.9375 -6.96875 L 3.9375 -21.828125 C 3.9375 -23.054688 3.804688 -23.957031 3.546875 -24.53125 C 3.285156 -25.101562 2.976562 -25.507812 2.625 -25.75 C 2.269531 -26 1.960938 -26.234375 1.703125 -26.453125 C 1.441406 -26.671875 1.3125 -27.023438 1.3125 -27.515625 C 1.3125 -27.953125 1.476562 -28.253906 1.8125 -28.421875 C 2.15625 -28.585938 2.753906 -28.671875 3.609375 -28.671875 L 10.109375 -28.671875 C 10.898438 -28.671875 11.472656 -28.585938 11.828125 -28.421875 C 12.191406 -28.253906 12.375 -27.953125 12.375 -27.515625 C 12.375 -27.023438 12.234375 -26.671875 11.953125 -26.453125 C 11.679688 -26.234375 11.375 -26 11.03125 -25.75 C 10.695312 -25.507812 10.390625 -25.101562 10.109375 -24.53125 C 9.835938 -23.957031 9.703125 -23.054688 9.703125 -21.828125 L 9.703125 -4.46875 C 9.703125 -3.8125 9.90625 -3.332031 10.3125 -3.03125 C 10.726562 -2.726562 11.578125 -2.578125 12.859375 -2.578125 L 14.703125 -2.625 C 15.660156 -2.625 16.425781 -2.785156 17 -3.109375 C 17.570312 -3.441406 18.066406 -3.929688 18.484375 -4.578125 C 18.910156 -5.234375 19.34375 -6.039062 19.78125 -7 C 20.101562 -7.707031 20.40625 -8.164062 20.6875 -8.375 C 20.976562 -8.582031 21.289062 -8.644531 21.625 -8.5625 Z M 21.625 -8.5625 "/></g></g></g><g fill="#000000" fill-opacity="1"><g transform="translate(340.278494, 364.159165)"><g><path d="M 15.234375 0.40625 C 7.535156 0.40625 3.6875 -3.90625 3.6875 -12.53125 L 3.6875 -21.78125 C 3.6875 -23.007812 3.554688 -23.910156 3.296875 -24.484375 C 3.035156 -25.054688 2.734375 -25.472656 2.390625 -25.734375 C 2.054688 -25.992188 1.757812 -26.226562 1.5 -26.4375 C 1.238281 -26.644531 1.109375 -26.992188 1.109375 -27.484375 C 1.109375 -27.921875 1.269531 -28.21875 1.59375 -28.375 C 1.925781 -28.539062 2.515625 -28.625 3.359375 -28.625 L 9.90625 -28.625 C 10.695312 -28.625 11.269531 -28.539062 11.625 -28.375 C 11.976562 -28.21875 12.15625 -27.921875 12.15625 -27.484375 C 12.15625 -26.992188 12.019531 -26.644531 11.75 -26.4375 C 11.476562 -26.226562 11.171875 -25.992188 10.828125 -25.734375 C 10.484375 -25.472656 10.175781 -25.054688 9.90625 -24.484375 C 9.632812 -23.910156 9.5 -23.007812 9.5 -21.78125 L 9.5 -11.421875 C 9.5 -8.609375 10.117188 -6.472656 11.359375 -5.015625 C 12.609375 -3.554688 14.351562 -2.828125 16.59375 -2.828125 C 18.882812 -2.828125 20.648438 -3.640625 21.890625 -5.265625 C 23.128906 -6.890625 23.75 -9.09375 23.75 -11.875 L 23.71875 -23.546875 C 23.71875 -24.253906 23.609375 -24.800781 23.390625 -25.1875 C 23.171875 -25.570312 22.910156 -25.875 22.609375 -26.09375 C 22.304688 -26.3125 22.046875 -26.523438 21.828125 -26.734375 C 21.609375 -26.953125 21.5 -27.242188 21.5 -27.609375 C 21.5 -28.035156 21.65625 -28.3125 21.96875 -28.4375 C 22.28125 -28.5625 22.753906 -28.625 23.390625 -28.625 L 27.03125 -28.625 C 27.738281 -28.625 28.234375 -28.554688 28.515625 -28.421875 C 28.804688 -28.285156 28.953125 -28 28.953125 -27.5625 C 28.953125 -27.226562 28.84375 -26.953125 28.625 -26.734375 C 28.40625 -26.523438 28.144531 -26.3125 27.84375 -26.09375 C 27.539062 -25.875 27.273438 -25.570312 27.046875 -25.1875 C 26.816406 -24.800781 26.703125 -24.253906 26.703125 -23.546875 L 26.703125 -12.8125 C 26.671875 -8.28125 25.71875 -4.941406 23.84375 -2.796875 C 21.976562 -0.660156 19.109375 0.40625 15.234375 0.40625 Z M 15.234375 0.40625 "/></g></g></g><g fill="#000000" fill-opacity="1"><g transform="translate(370.292244, 364.159165)"><g><path d="M 23.21875 -8.5625 C 23.65625 -8.476562 23.914062 -8.28125 24 -7.96875 C 24.082031 -7.65625 24.109375 -7.222656 24.078125 -6.671875 C 24.054688 -5.554688 23.988281 -4.59375 23.875 -3.78125 C 23.769531 -2.976562 23.632812 -2.289062 23.46875 -1.71875 C 23.300781 -1.113281 23 -0.675781 22.5625 -0.40625 C 22.125 -0.132812 21.28125 0 20.03125 0 L 3.515625 0 C 2.703125 0 2.117188 -0.078125 1.765625 -0.234375 C 1.410156 -0.398438 1.234375 -0.703125 1.234375 -1.140625 C 1.234375 -1.578125 1.320312 -1.890625 1.5 -2.078125 C 1.675781 -2.273438 1.898438 -2.445312 2.171875 -2.59375 C 2.441406 -2.75 2.710938 -2.960938 2.984375 -3.234375 C 3.265625 -3.503906 3.492188 -3.925781 3.671875 -4.5 C 3.847656 -5.070312 3.9375 -5.894531 3.9375 -6.96875 L 3.9375 -21.703125 C 3.9375 -22.765625 3.847656 -23.582031 3.671875 -24.15625 C 3.492188 -24.726562 3.265625 -25.148438 2.984375 -25.421875 C 2.710938 -25.703125 2.441406 -25.914062 2.171875 -26.0625 C 1.898438 -26.21875 1.675781 -26.390625 1.5 -26.578125 C 1.320312 -26.765625 1.234375 -27.078125 1.234375 -27.515625 C 1.234375 -27.984375 1.410156 -28.289062 1.765625 -28.4375 C 2.117188 -28.59375 2.703125 -28.671875 3.515625 -28.671875 L 19.375 -28.671875 C 20.570312 -28.671875 21.378906 -28.585938 21.796875 -28.421875 C 22.222656 -28.253906 22.546875 -27.859375 22.765625 -27.234375 C 22.960938 -26.691406 23.15625 -26.070312 23.34375 -25.375 C 23.53125 -24.675781 23.691406 -23.890625 23.828125 -23.015625 C 23.941406 -22.472656 23.960938 -22.03125 23.890625 -21.6875 C 23.828125 -21.34375 23.601562 -21.117188 23.21875 -21.015625 C 22.832031 -20.898438 22.492188 -20.9375 22.203125 -21.125 C 21.921875 -21.320312 21.617188 -21.679688 21.296875 -22.203125 C 20.503906 -23.484375 19.644531 -24.453125 18.71875 -25.109375 C 17.789062 -25.765625 16.644531 -26.09375 15.28125 -26.09375 L 13.34375 -26.09375 C 11.820312 -26.09375 10.832031 -25.941406 10.375 -25.640625 C 9.925781 -25.335938 9.703125 -24.859375 9.703125 -24.203125 L 9.703125 -20.03125 C 9.703125 -19.15625 9.941406 -18.597656 10.421875 -18.359375 C 10.898438 -18.128906 11.578125 -18.015625 12.453125 -18.015625 L 12.859375 -18.015625 C 13.703125 -18.015625 14.351562 -18.082031 14.8125 -18.21875 C 15.28125 -18.351562 15.640625 -18.515625 15.890625 -18.703125 C 16.140625 -18.898438 16.363281 -19.066406 16.5625 -19.203125 C 16.769531 -19.335938 17.050781 -19.40625 17.40625 -19.40625 C 17.789062 -19.40625 18.070312 -19.296875 18.25 -19.078125 C 18.425781 -18.859375 18.554688 -18.5625 18.640625 -18.1875 L 19.609375 -13.515625 C 19.773438 -12.773438 19.800781 -12.273438 19.6875 -12.015625 C 19.582031 -11.753906 19.34375 -11.585938 18.96875 -11.515625 C 18.46875 -11.398438 18.046875 -11.53125 17.703125 -11.90625 C 17.367188 -12.289062 17.007812 -12.753906 16.625 -13.296875 C 16.238281 -13.847656 15.757812 -14.34375 15.1875 -14.78125 C 14.613281 -15.21875 13.835938 -15.4375 12.859375 -15.4375 L 12.453125 -15.4375 C 11.578125 -15.4375 10.898438 -15.328125 10.421875 -15.109375 C 9.941406 -14.890625 9.703125 -14.332031 9.703125 -13.4375 L 9.703125 -4.5 C 9.703125 -3.820312 9.929688 -3.332031 10.390625 -3.03125 C 10.859375 -2.726562 11.925781 -2.578125 13.59375 -2.578125 L 16.296875 -2.625 C 17.253906 -2.625 18.019531 -2.785156 18.59375 -3.109375 C 19.164062 -3.441406 19.660156 -3.929688 20.078125 -4.578125 C 20.503906 -5.234375 20.9375 -6.039062 21.375 -7 C 21.707031 -7.707031 22.015625 -8.164062 22.296875 -8.375 C 22.585938 -8.582031 22.894531 -8.644531 23.21875 -8.5625 Z M 23.21875 -8.5625 "/></g></g></g><g fill="#000000" fill-opacity="1"><g transform="translate(395.801884, 364.159165)"><g><path d="M 12.65625 0.375 C 11.125 0.375 9.878906 0.25 8.921875 0 C 7.972656 -0.25 7.222656 -0.375 6.671875 -0.375 C 6.296875 -0.375 6 -0.3125 5.78125 -0.1875 C 5.5625 -0.0625 5.363281 0.0664062 5.1875 0.203125 C 5.007812 0.335938 4.78125 0.40625 4.5 0.40625 C 4.125 0.40625 3.804688 0.25 3.546875 -0.0625 C 3.285156 -0.375 3.085938 -0.96875 2.953125 -1.84375 C 2.785156 -2.820312 2.625 -3.796875 2.46875 -4.765625 C 2.320312 -5.734375 2.207031 -6.753906 2.125 -7.828125 C 2.101562 -8.367188 2.160156 -8.800781 2.296875 -9.125 C 2.429688 -9.457031 2.691406 -9.625 3.078125 -9.625 C 3.453125 -9.625 3.753906 -9.492188 3.984375 -9.234375 C 4.222656 -8.972656 4.519531 -8.53125 4.875 -7.90625 C 5.28125 -7.132812 5.832031 -6.3125 6.53125 -5.4375 C 7.226562 -4.570312 8.113281 -3.832031 9.1875 -3.21875 C 10.269531 -2.601562 11.578125 -2.296875 13.109375 -2.296875 C 14.628906 -2.296875 15.734375 -2.679688 16.421875 -3.453125 C 17.109375 -4.234375 17.460938 -5.101562 17.484375 -6.0625 C 17.515625 -7.019531 17.203125 -7.835938 16.546875 -8.515625 C 15.890625 -9.203125 15.035156 -9.835938 13.984375 -10.421875 C 12.929688 -11.003906 11.832031 -11.582031 10.6875 -12.15625 C 9.21875 -12.925781 7.867188 -13.664062 6.640625 -14.375 C 5.410156 -15.082031 4.425781 -15.941406 3.6875 -16.953125 C 2.945312 -17.960938 2.578125 -19.273438 2.578125 -20.890625 C 2.578125 -22.390625 3.003906 -23.753906 3.859375 -24.984375 C 4.722656 -26.210938 5.925781 -27.191406 7.46875 -27.921875 C 9.007812 -28.660156 10.789062 -29.03125 12.8125 -29.03125 C 13.820312 -29.03125 14.726562 -28.9375 15.53125 -28.75 C 16.34375 -28.5625 16.984375 -28.46875 17.453125 -28.46875 C 17.960938 -28.46875 18.332031 -28.5625 18.5625 -28.75 C 18.800781 -28.9375 19.125 -29.03125 19.53125 -29.03125 C 19.914062 -29.03125 20.222656 -28.882812 20.453125 -28.59375 C 20.679688 -28.3125 20.894531 -27.734375 21.09375 -26.859375 C 21.257812 -26.148438 21.414062 -25.378906 21.5625 -24.546875 C 21.707031 -23.710938 21.820312 -22.847656 21.90625 -21.953125 C 21.957031 -21.398438 21.910156 -20.960938 21.765625 -20.640625 C 21.617188 -20.316406 21.328125 -20.15625 20.890625 -20.15625 C 20.554688 -20.15625 20.242188 -20.289062 19.953125 -20.5625 C 19.671875 -20.832031 19.34375 -21.269531 18.96875 -21.875 C 18.53125 -22.550781 17.984375 -23.238281 17.328125 -23.9375 C 16.671875 -24.632812 15.914062 -25.226562 15.0625 -25.71875 C 14.21875 -26.207031 13.265625 -26.453125 12.203125 -26.453125 C 10.890625 -26.453125 9.882812 -26.125 9.1875 -25.46875 C 8.5 -24.8125 8.15625 -23.96875 8.15625 -22.9375 C 8.15625 -22.0625 8.40625 -21.300781 8.90625 -20.65625 C 9.414062 -20.019531 10.160156 -19.414062 11.140625 -18.84375 C 12.117188 -18.269531 13.320312 -17.613281 14.75 -16.875 C 16.332031 -16.082031 17.769531 -15.320312 19.0625 -14.59375 C 20.363281 -13.875 21.410156 -13.03125 22.203125 -12.0625 C 22.992188 -11.09375 23.390625 -9.84375 23.390625 -8.3125 C 23.410156 -6.476562 22.910156 -4.910156 21.890625 -3.609375 C 20.867188 -2.316406 19.535156 -1.328125 17.890625 -0.640625 C 16.253906 0.0351562 14.507812 0.375 12.65625 0.375 Z M 12.65625 0.375 "/></g></g></g><g fill="#f2f9ff" fill-opacity="1"><g transform="translate(65.471147, 272.329275)"><g><path d="M 16.046875 0.46875 C 14.109375 0.46875 12.53125 0.3125 11.3125 0 C 10.101562 -0.3125 9.15625 -0.46875 8.46875 -0.46875 C 7.976562 -0.46875 7.59375 -0.390625 7.3125 -0.234375 C 7.039062 -0.078125 6.789062 0.0820312 6.5625 0.25 C 6.34375 0.425781 6.0625 0.515625 5.71875 0.515625 C 5.226562 0.515625 4.816406 0.316406 4.484375 -0.078125 C 4.160156 -0.472656 3.910156 -1.226562 3.734375 -2.34375 C 3.523438 -3.582031 3.328125 -4.816406 3.140625 -6.046875 C 2.953125 -7.273438 2.804688 -8.566406 2.703125 -9.921875 C 2.671875 -10.609375 2.738281 -11.160156 2.90625 -11.578125 C 3.082031 -11.992188 3.410156 -12.203125 3.890625 -12.203125 C 4.378906 -12.203125 4.769531 -12.035156 5.0625 -11.703125 C 5.351562 -11.378906 5.726562 -10.820312 6.1875 -10.03125 C 6.695312 -9.050781 7.394531 -8.007812 8.28125 -6.90625 C 9.164062 -5.800781 10.289062 -4.859375 11.65625 -4.078125 C 13.03125 -3.296875 14.6875 -2.90625 16.625 -2.90625 C 18.5625 -2.90625 19.960938 -3.398438 20.828125 -4.390625 C 21.691406 -5.378906 22.140625 -6.476562 22.171875 -7.6875 C 22.210938 -8.894531 21.816406 -9.929688 20.984375 -10.796875 C 20.148438 -11.660156 19.066406 -12.460938 17.734375 -13.203125 C 16.398438 -13.953125 15.007812 -14.691406 13.5625 -15.421875 C 11.6875 -16.390625 9.96875 -17.320312 8.40625 -18.21875 C 6.851562 -19.125 5.609375 -20.21875 4.671875 -21.5 C 3.734375 -22.78125 3.265625 -24.441406 3.265625 -26.484375 C 3.265625 -28.390625 3.8125 -30.117188 4.90625 -31.671875 C 6 -33.234375 7.519531 -34.484375 9.46875 -35.421875 C 11.425781 -36.359375 13.6875 -36.828125 16.25 -36.828125 C 17.53125 -36.828125 18.679688 -36.703125 19.703125 -36.453125 C 20.734375 -36.210938 21.539062 -36.09375 22.125 -36.09375 C 22.78125 -36.09375 23.253906 -36.210938 23.546875 -36.453125 C 23.847656 -36.703125 24.257812 -36.828125 24.78125 -36.828125 C 25.257812 -36.828125 25.644531 -36.644531 25.9375 -36.28125 C 26.238281 -35.914062 26.507812 -35.179688 26.75 -34.078125 C 26.957031 -33.171875 27.15625 -32.1875 27.34375 -31.125 C 27.53125 -30.070312 27.675781 -28.976562 27.78125 -27.84375 C 27.851562 -27.144531 27.789062 -26.585938 27.59375 -26.171875 C 27.40625 -25.753906 27.035156 -25.546875 26.484375 -25.546875 C 26.066406 -25.546875 25.675781 -25.71875 25.3125 -26.0625 C 24.957031 -26.414062 24.535156 -26.972656 24.046875 -27.734375 C 23.492188 -28.597656 22.800781 -29.472656 21.96875 -30.359375 C 21.132812 -31.242188 20.179688 -31.992188 19.109375 -32.609375 C 18.035156 -33.234375 16.828125 -33.546875 15.484375 -33.546875 C 13.816406 -33.546875 12.539062 -33.128906 11.65625 -32.296875 C 10.769531 -31.472656 10.328125 -30.398438 10.328125 -29.078125 C 10.328125 -27.972656 10.644531 -27.015625 11.28125 -26.203125 C 11.925781 -25.390625 12.875 -24.617188 14.125 -23.890625 C 15.375 -23.160156 16.898438 -22.328125 18.703125 -21.390625 C 20.703125 -20.390625 22.523438 -19.429688 24.171875 -18.515625 C 25.816406 -17.597656 27.140625 -16.523438 28.140625 -15.296875 C 29.148438 -14.066406 29.65625 -12.484375 29.65625 -10.546875 C 29.6875 -8.222656 29.050781 -6.238281 27.75 -4.59375 C 26.457031 -2.945312 24.769531 -1.691406 22.6875 -0.828125 C 20.613281 0.0351562 18.398438 0.46875 16.046875 0.46875 Z M 16.046875 0.46875 "/></g></g></g><g fill="#f2f9ff" fill-opacity="1"><g transform="translate(573.215798, 385.4949)"><g><path d="M 30.171875 -29.1875 C 30.316406 -28.5 30.34375 -27.9375 30.25 -27.5 C 30.164062 -27.070312 29.878906 -26.785156 29.390625 -26.640625 C 28.910156 -26.503906 28.488281 -26.554688 28.125 -26.796875 C 27.757812 -27.035156 27.351562 -27.488281 26.90625 -28.15625 C 25.894531 -29.78125 24.800781 -31.003906 23.625 -31.828125 C 22.445312 -32.660156 21.015625 -33.078125 19.328125 -33.078125 L 16.9375 -33.078125 C 14.988281 -33.078125 13.726562 -32.882812 13.15625 -32.5 C 12.59375 -32.125 12.3125 -31.539062 12.3125 -30.75 L 12.3125 -24.875 C 12.3125 -23.800781 12.613281 -23.109375 13.21875 -22.796875 C 13.820312 -22.484375 14.675781 -22.328125 15.78125 -22.328125 L 16.78125 -22.328125 C 17.882812 -22.328125 18.722656 -22.414062 19.296875 -22.59375 C 19.867188 -22.769531 20.3125 -22.976562 20.625 -23.21875 C 20.9375 -23.457031 21.21875 -23.660156 21.46875 -23.828125 C 21.726562 -24.003906 22.085938 -24.09375 22.546875 -24.09375 C 23.023438 -24.09375 23.375 -23.953125 23.59375 -23.671875 C 23.820312 -23.398438 23.988281 -23.023438 24.09375 -22.546875 L 25.390625 -16.671875 C 25.566406 -15.734375 25.582031 -15.097656 25.4375 -14.765625 C 25.300781 -14.441406 24.992188 -14.210938 24.515625 -14.078125 C 23.890625 -13.941406 23.367188 -14.113281 22.953125 -14.59375 C 22.535156 -15.082031 22.082031 -15.679688 21.59375 -16.390625 C 21.113281 -17.097656 20.5 -17.726562 19.75 -18.28125 C 19.007812 -18.832031 18.019531 -19.109375 16.78125 -19.109375 L 15.78125 -19.109375 C 14.675781 -19.109375 13.820312 -18.960938 13.21875 -18.671875 C 12.613281 -18.378906 12.3125 -17.675781 12.3125 -16.5625 L 12.3125 -8.671875 C 12.3125 -7.117188 12.472656 -5.976562 12.796875 -5.25 C 13.128906 -4.519531 13.507812 -4 13.9375 -3.6875 C 14.375 -3.375 14.753906 -3.078125 15.078125 -2.796875 C 15.410156 -2.523438 15.578125 -2.078125 15.578125 -1.453125 C 15.578125 -0.898438 15.367188 -0.519531 14.953125 -0.3125 C 14.535156 -0.101562 13.789062 0 12.71875 0 L 4.46875 0 C 3.425781 0 2.679688 -0.101562 2.234375 -0.3125 C 1.785156 -0.519531 1.5625 -0.898438 1.5625 -1.453125 C 1.5625 -2.078125 1.734375 -2.523438 2.078125 -2.796875 C 2.421875 -3.078125 2.816406 -3.375 3.265625 -3.6875 C 3.722656 -4 4.125 -4.519531 4.46875 -5.25 C 4.8125 -5.976562 4.984375 -7.117188 4.984375 -8.671875 L 4.984375 -27.53125 C 4.984375 -28.875 4.867188 -29.910156 4.640625 -30.640625 C 4.421875 -31.367188 4.132812 -31.90625 3.78125 -32.25 C 3.4375 -32.59375 3.09375 -32.859375 2.75 -33.046875 C 2.40625 -33.242188 2.117188 -33.460938 1.890625 -33.703125 C 1.671875 -33.953125 1.5625 -34.351562 1.5625 -34.90625 C 1.5625 -35.488281 1.785156 -35.875 2.234375 -36.0625 C 2.679688 -36.257812 3.425781 -36.359375 4.46875 -36.359375 L 24.46875 -36.359375 C 25.988281 -36.359375 27.023438 -36.253906 27.578125 -36.046875 C 28.128906 -35.835938 28.546875 -35.332031 28.828125 -34.53125 C 29.066406 -33.84375 29.304688 -33.054688 29.546875 -32.171875 C 29.796875 -31.285156 30.003906 -30.289062 30.171875 -29.1875 Z M 30.171875 -29.1875 "/></g></g></g><g fill="#ffffff" fill-opacity="1"><g transform="translate(382.203634, 67.192384)"><g><path d="M 9.40625 -8.875 L 8.46875 -6.640625 C 8.050781 -5.640625 7.882812 -4.878906 7.96875 -4.359375 C 8.0625 -3.835938 8.253906 -3.445312 8.546875 -3.1875 C 8.835938 -2.925781 9.117188 -2.679688 9.390625 -2.453125 C 9.671875 -2.234375 9.8125 -1.882812 9.8125 -1.40625 C 9.8125 -0.851562 9.585938 -0.488281 9.140625 -0.3125 C 8.691406 -0.132812 8.117188 -0.046875 7.421875 -0.046875 L 2.796875 -0.046875 C 1.972656 -0.046875 1.316406 -0.132812 0.828125 -0.3125 C 0.347656 -0.488281 0.109375 -0.832031 0.109375 -1.34375 C 0.109375 -1.832031 0.253906 -2.207031 0.546875 -2.46875 C 0.835938 -2.726562 1.21875 -2.992188 1.6875 -3.265625 C 2.15625 -3.546875 2.640625 -3.9375 3.140625 -4.4375 C 3.640625 -4.9375 4.082031 -5.671875 4.46875 -6.640625 L 13.8125 -29.921875 C 14.125 -30.742188 14.21875 -31.378906 14.09375 -31.828125 C 13.976562 -32.285156 13.753906 -32.648438 13.421875 -32.921875 C 13.097656 -33.203125 12.785156 -33.488281 12.484375 -33.78125 C 12.191406 -34.082031 12.046875 -34.472656 12.046875 -34.953125 C 12.046875 -35.890625 12.601562 -36.359375 13.71875 -36.359375 L 19.578125 -36.359375 C 20.515625 -36.359375 21.15625 -35.925781 21.5 -35.0625 L 32.671875 -6.859375 C 33.085938 -5.785156 33.519531 -4.988281 33.96875 -4.46875 C 34.414062 -3.945312 34.828125 -3.554688 35.203125 -3.296875 C 35.585938 -3.035156 35.898438 -2.789062 36.140625 -2.5625 C 36.390625 -2.34375 36.515625 -1.988281 36.515625 -1.5 C 36.515625 -0.945312 36.304688 -0.554688 35.890625 -0.328125 C 35.472656 -0.109375 34.765625 0 33.765625 0 L 25.390625 0 C 24.566406 0 23.945312 -0.101562 23.53125 -0.3125 C 23.113281 -0.519531 22.90625 -0.898438 22.90625 -1.453125 C 22.90625 -1.972656 23.066406 -2.351562 23.390625 -2.59375 C 23.722656 -2.832031 24.070312 -3.09375 24.4375 -3.375 C 24.800781 -3.65625 25.039062 -4.046875 25.15625 -4.546875 C 25.28125 -5.046875 25.15625 -5.816406 24.78125 -6.859375 L 24 -8.71875 C 23.851562 -9.132812 23.691406 -9.445312 23.515625 -9.65625 C 23.347656 -9.863281 23.046875 -10.019531 22.609375 -10.125 C 22.179688 -10.226562 21.507812 -10.285156 20.59375 -10.296875 C 19.675781 -10.316406 18.382812 -10.328125 16.71875 -10.328125 C 15.019531 -10.328125 13.703125 -10.316406 12.765625 -10.296875 C 11.835938 -10.285156 11.15625 -10.238281 10.71875 -10.15625 C 10.289062 -10.070312 10 -9.929688 9.84375 -9.734375 C 9.6875 -9.546875 9.539062 -9.257812 9.40625 -8.875 Z M 16.78125 -13.609375 C 18.539062 -13.609375 19.785156 -13.625 20.515625 -13.65625 C 21.242188 -13.695312 21.640625 -13.816406 21.703125 -14.015625 C 21.773438 -14.222656 21.722656 -14.554688 21.546875 -15.015625 L 16.71875 -27.421875 L 11.890625 -15.171875 C 11.679688 -14.648438 11.613281 -14.273438 11.6875 -14.046875 C 11.757812 -13.828125 12.164062 -13.695312 12.90625 -13.65625 C 13.644531 -13.625 14.9375 -13.609375 16.78125 -13.609375 Z M 16.78125 -13.609375 "/></g></g></g><g fill="#f2f9ff" fill-opacity="1"><g transform="translate(260.068058, 576.675189)"><g><path d="M 29.453125 -10.859375 C 30.003906 -10.753906 30.332031 -10.5 30.4375 -10.09375 C 30.539062 -9.695312 30.578125 -9.15625 30.546875 -8.46875 C 30.503906 -7.050781 30.414062 -5.828125 30.28125 -4.796875 C 30.144531 -3.773438 29.972656 -2.90625 29.765625 -2.1875 C 29.554688 -1.414062 29.171875 -0.859375 28.609375 -0.515625 C 28.054688 -0.171875 26.984375 0 25.390625 0 L 4.46875 0 C 3.425781 0 2.679688 -0.101562 2.234375 -0.3125 C 1.785156 -0.519531 1.5625 -0.898438 1.5625 -1.453125 C 1.5625 -2.003906 1.671875 -2.398438 1.890625 -2.640625 C 2.117188 -2.890625 2.40625 -3.109375 2.75 -3.296875 C 3.09375 -3.484375 3.4375 -3.75 3.78125 -4.09375 C 4.132812 -4.445312 4.421875 -4.984375 4.640625 -5.703125 C 4.867188 -6.429688 4.984375 -7.472656 4.984375 -8.828125 L 4.984375 -27.53125 C 4.984375 -28.875 4.867188 -29.910156 4.640625 -30.640625 C 4.421875 -31.367188 4.132812 -31.90625 3.78125 -32.25 C 3.4375 -32.59375 3.09375 -32.859375 2.75 -33.046875 C 2.40625 -33.242188 2.117188 -33.460938 1.890625 -33.703125 C 1.671875 -33.953125 1.5625 -34.351562 1.5625 -34.90625 C 1.5625 -35.488281 1.785156 -35.875 2.234375 -36.0625 C 2.679688 -36.257812 3.425781 -36.359375 4.46875 -36.359375 L 24.5625 -36.359375 C 26.09375 -36.359375 27.125 -36.253906 27.65625 -36.046875 C 28.195312 -35.835938 28.601562 -35.332031 28.875 -34.53125 C 29.113281 -33.84375 29.351562 -33.054688 29.59375 -32.171875 C 29.84375 -31.285156 30.054688 -30.289062 30.234375 -29.1875 C 30.367188 -28.5 30.390625 -27.9375 30.296875 -27.5 C 30.210938 -27.070312 29.929688 -26.785156 29.453125 -26.640625 C 28.960938 -26.503906 28.535156 -26.554688 28.171875 -26.796875 C 27.804688 -27.035156 27.414062 -27.488281 27 -28.15625 C 26 -29.78125 24.910156 -31.003906 23.734375 -31.828125 C 22.554688 -32.660156 21.101562 -33.078125 19.375 -33.078125 L 16.9375 -33.078125 C 14.988281 -33.078125 13.726562 -32.882812 13.15625 -32.5 C 12.59375 -32.125 12.3125 -31.519531 12.3125 -30.6875 L 12.3125 -25.390625 C 12.3125 -24.285156 12.613281 -23.585938 13.21875 -23.296875 C 13.820312 -23.003906 14.675781 -22.859375 15.78125 -22.859375 L 16.3125 -22.859375 C 17.382812 -22.859375 18.210938 -22.941406 18.796875 -23.109375 C 19.390625 -23.285156 19.84375 -23.492188 20.15625 -23.734375 C 20.46875 -23.972656 20.75 -24.179688 21 -24.359375 C 21.257812 -24.535156 21.617188 -24.625 22.078125 -24.625 C 22.554688 -24.625 22.90625 -24.484375 23.125 -24.203125 C 23.351562 -23.921875 23.519531 -23.539062 23.625 -23.0625 L 24.875 -17.140625 C 25.082031 -16.203125 25.117188 -15.566406 24.984375 -15.234375 C 24.847656 -14.910156 24.535156 -14.695312 24.046875 -14.59375 C 23.421875 -14.457031 22.890625 -14.628906 22.453125 -15.109375 C 22.023438 -15.597656 21.566406 -16.1875 21.078125 -16.875 C 20.597656 -17.570312 19.992188 -18.195312 19.265625 -18.75 C 18.535156 -19.300781 17.550781 -19.578125 16.3125 -19.578125 L 15.78125 -19.578125 C 14.675781 -19.578125 13.820312 -19.4375 13.21875 -19.15625 C 12.613281 -18.882812 12.3125 -18.175781 12.3125 -17.03125 L 12.3125 -5.71875 C 12.3125 -4.851562 12.601562 -4.226562 13.1875 -3.84375 C 13.78125 -3.457031 15.132812 -3.265625 17.25 -3.265625 L 20.671875 -3.328125 C 21.878906 -3.328125 22.847656 -3.535156 23.578125 -3.953125 C 24.304688 -4.367188 24.9375 -4.988281 25.46875 -5.8125 C 26.007812 -6.644531 26.554688 -7.664062 27.109375 -8.875 C 27.523438 -9.78125 27.914062 -10.363281 28.28125 -10.625 C 28.644531 -10.882812 29.035156 -10.960938 29.453125 -10.859375 Z M 29.453125 -10.859375 "/></g></g></g><g clip-path="url(#e21893310a)"><path fill="#ffffff" d="M 234.035156 148.511719 C 233.804688 147.582031 233.105469 147.113281 232.175781 146.882812 L 222.402344 145.488281 L 218.214844 136.644531 C 217.75 135.714844 216.820312 135.25 216.121094 135.25 C 215.191406 135.25 214.492188 135.714844 214.027344 136.644531 L 209.605469 145.488281 L 200.066406 146.882812 C 199.136719 147.113281 198.441406 147.582031 198.207031 148.511719 C 197.972656 149.441406 198.207031 150.371094 198.671875 150.835938 L 205.652344 157.816406 L 204.023438 167.589844 C 203.789062 168.519531 204.257812 169.449219 204.953125 169.914062 C 205.652344 170.382812 206.582031 170.613281 207.511719 170.148438 L 216.121094 165.496094 L 224.730469 170.148438 C 224.960938 170.382812 225.429688 170.382812 225.894531 170.382812 C 226.359375 170.382812 226.824219 170.148438 227.289062 169.914062 C 227.988281 169.449219 228.453125 168.519531 228.21875 167.589844 L 226.589844 157.816406 L 233.570312 150.835938 C 234.035156 150.140625 234.269531 149.210938 234.035156 148.511719 Z M 222.171875 155.257812 C 221.707031 155.722656 221.472656 156.652344 221.472656 157.351562 L 222.636719 163.632812 L 217.050781 160.609375 C 216.820312 160.375 216.355469 160.375 215.890625 160.375 C 215.421875 160.375 215.191406 160.375 214.726562 160.609375 L 209.140625 163.632812 L 210.304688 157.351562 C 210.539062 156.652344 210.074219 155.957031 209.605469 155.257812 L 205.1875 150.835938 L 211.46875 149.90625 C 212.167969 149.90625 212.863281 149.210938 213.328125 148.511719 L 216.121094 142.925781 L 218.914062 148.511719 C 219.144531 149.210938 219.84375 149.675781 220.773438 149.90625 L 227.058594 150.835938 Z M 222.171875 155.257812 " fill-opacity="1" fill-rule="nonzero"/></g><g clip-path="url(#238de2a0d1)"><path fill="#ffffff" d="M 166.566406 160.84375 L 194.484375 160.84375 C 195.878906 160.84375 196.8125 159.910156 196.8125 158.515625 C 196.8125 157.121094 195.878906 156.1875 194.484375 156.1875 L 166.566406 156.1875 C 165.167969 156.1875 164.238281 155.257812 164.238281 153.863281 L 164.238281 121.289062 L 220.078125 121.289062 L 220.078125 128.269531 C 220.078125 129.664062 221.007812 130.597656 222.402344 130.597656 C 223.800781 130.597656 224.730469 129.664062 224.730469 128.269531 L 224.730469 109.65625 C 224.730469 105.703125 221.707031 102.675781 217.75 102.675781 L 210.769531 102.675781 L 210.769531 98.023438 C 210.769531 96.628906 209.839844 95.699219 208.445312 95.699219 C 207.046875 95.699219 206.117188 96.628906 206.117188 98.023438 L 206.117188 102.675781 L 178.199219 102.675781 L 178.199219 98.023438 C 178.199219 96.628906 177.269531 95.699219 175.871094 95.699219 C 174.476562 95.699219 173.546875 96.628906 173.546875 98.023438 L 173.546875 102.675781 L 166.566406 102.675781 C 162.609375 102.675781 159.585938 105.703125 159.585938 109.65625 L 159.585938 153.863281 C 159.585938 157.816406 162.609375 160.84375 166.566406 160.84375 Z M 166.566406 107.332031 L 217.75 107.332031 C 219.144531 107.332031 220.078125 108.261719 220.078125 109.65625 L 220.078125 116.636719 L 164.238281 116.636719 L 164.238281 109.65625 C 164.238281 108.261719 165.167969 107.332031 166.566406 107.332031 Z M 166.566406 107.332031 " fill-opacity="1" fill-rule="nonzero"/></g><g clip-path="url(#f6c94a8fdb)"><path fill="#ffffff" d="M 542.597656 135.976562 L 472.367188 135.976562 C 470.960938 135.976562 470.023438 135.039062 470.023438 133.632812 C 470.023438 132.230469 470.960938 131.292969 472.367188 131.292969 L 542.597656 131.292969 C 544.003906 131.292969 544.941406 132.230469 544.941406 133.632812 C 544.941406 135.039062 544.003906 135.976562 542.597656 135.976562 Z M 542.597656 135.976562 " fill-opacity="1" fill-rule="nonzero"/></g><path fill="#ffffff" d="M 530.894531 175.773438 L 484.070312 175.773438 C 480.089844 175.773438 477.046875 172.730469 477.046875 168.75 L 477.046875 133.632812 C 477.046875 132.230469 477.984375 131.292969 479.390625 131.292969 L 535.574219 131.292969 C 536.980469 131.292969 537.917969 132.230469 537.917969 133.632812 L 537.917969 168.75 C 537.917969 172.730469 534.875 175.773438 530.894531 175.773438 Z M 481.730469 135.976562 L 481.730469 168.75 C 481.730469 170.15625 482.667969 171.09375 484.070312 171.09375 L 530.894531 171.09375 C 532.296875 171.09375 533.234375 170.15625 533.234375 168.75 L 533.234375 135.976562 Z M 481.730469 135.976562 " fill-opacity="1" fill-rule="nonzero"/><path fill="#ffffff" d="M 491.09375 194.503906 C 490.859375 194.503906 490.625 194.503906 490.15625 194.269531 C 488.988281 193.800781 488.285156 192.394531 488.753906 191.226562 L 495.777344 172.496094 C 496.246094 171.324219 497.648438 170.625 498.820312 171.09375 C 499.992188 171.558594 500.691406 172.964844 500.226562 174.136719 L 493.203125 192.863281 C 492.96875 194.035156 492.03125 194.503906 491.09375 194.503906 Z M 491.09375 194.503906 " fill-opacity="1" fill-rule="nonzero"/><path fill="#ffffff" d="M 523.871094 194.503906 C 522.933594 194.503906 521.996094 194.035156 521.761719 193.097656 L 514.738281 174.371094 C 514.273438 173.199219 514.972656 171.792969 516.144531 171.324219 C 517.316406 170.859375 518.71875 171.558594 519.1875 172.730469 L 526.210938 191.460938 C 526.679688 192.628906 525.976562 194.035156 524.808594 194.503906 C 524.339844 194.503906 524.105469 194.503906 523.871094 194.503906 Z M 523.871094 194.503906 " fill-opacity="1" fill-rule="nonzero"/><path fill="#ffffff" d="M 507.480469 135.976562 C 506.078125 135.976562 505.140625 135.039062 505.140625 133.632812 L 505.140625 126.609375 C 505.140625 125.207031 506.078125 124.269531 507.480469 124.269531 C 508.886719 124.269531 509.824219 125.207031 509.824219 126.609375 L 509.824219 133.632812 C 509.824219 135.039062 508.886719 135.976562 507.480469 135.976562 Z M 507.480469 135.976562 " fill-opacity="1" fill-rule="nonzero"/><path fill="#ffffff" d="M 500.457031 164.070312 C 499.757812 164.070312 499.289062 163.835938 498.820312 163.367188 C 497.882812 162.429688 497.882812 161.023438 498.820312 160.089844 L 514.039062 144.871094 C 514.972656 143.933594 516.378906 143.933594 517.316406 144.871094 C 518.25 145.808594 518.25 147.210938 517.316406 148.148438 L 502.097656 163.367188 C 501.628906 163.835938 501.160156 164.070312 500.457031 164.070312 Z M 500.457031 164.070312 " fill-opacity="1" fill-rule="nonzero"/><path fill="#ffffff" d="M 516.847656 157.046875 C 515.441406 157.046875 514.503906 156.109375 514.503906 154.703125 L 514.503906 147.679688 L 507.480469 147.679688 C 506.078125 147.679688 505.140625 146.746094 505.140625 145.339844 C 505.140625 143.933594 506.078125 143 507.480469 143 L 516.847656 143 C 518.25 143 519.1875 143.933594 519.1875 145.339844 L 519.1875 154.703125 C 519.1875 156.109375 518.25 157.046875 516.847656 157.046875 Z M 516.847656 157.046875 " fill-opacity="1" fill-rule="nonzero"/><g clip-path="url(#36d10dcab2)"><path fill="#f2f9ff" d="M 494.601562 489 C 484.300781 489 475.875 497.425781 475.875 507.730469 C 475.875 518.03125 484.300781 526.457031 494.601562 526.457031 C 504.902344 526.457031 513.332031 518.03125 513.332031 507.730469 C 513.332031 497.425781 504.902344 489 494.601562 489 Z M 494.601562 521.777344 C 486.875 521.777344 480.554688 515.453125 480.554688 507.730469 C 480.554688 500.003906 486.875 493.683594 494.601562 493.683594 C 502.328125 493.683594 508.648438 500.003906 508.648438 507.730469 C 508.648438 515.453125 502.328125 521.777344 494.601562 521.777344 Z M 494.601562 521.777344 " fill-opacity="1" fill-rule="nonzero"/></g><path fill="#f2f9ff" d="M 499.753906 501.640625 L 492.027344 511.242188 L 489.21875 508.429688 C 488.28125 507.496094 486.875 507.496094 485.941406 508.429688 C 485.003906 509.367188 485.003906 510.773438 485.941406 511.707031 L 490.621094 516.390625 C 491.089844 516.859375 491.558594 517.09375 492.261719 517.09375 C 492.261719 517.09375 492.261719 517.09375 492.496094 517.09375 C 493.199219 517.09375 493.664062 516.625 494.132812 516.15625 L 503.5 504.449219 C 504.199219 503.515625 504.199219 501.875 503.03125 501.171875 C 502.09375 500.472656 500.6875 500.472656 499.753906 501.640625 Z M 499.753906 501.640625 " fill-opacity="1" fill-rule="nonzero"/><g clip-path="url(#3e32a7ee91)"><path fill="#f2f9ff" d="M 445.4375 512.410156 L 468.851562 512.410156 C 470.253906 512.410156 471.191406 511.472656 471.191406 510.070312 C 471.191406 508.664062 470.253906 507.730469 468.851562 507.730469 L 445.4375 507.730469 C 444.035156 507.730469 443.097656 506.792969 443.097656 505.386719 L 443.097656 479.636719 C 443.097656 478.230469 444.035156 477.292969 445.4375 477.292969 L 499.285156 477.292969 C 500.6875 477.292969 501.625 478.230469 501.625 479.636719 L 501.625 481.976562 C 501.625 483.378906 502.5625 484.316406 503.964844 484.316406 C 505.371094 484.316406 506.308594 483.378906 506.308594 481.976562 L 506.308594 467.929688 C 506.308594 463.949219 503.265625 460.90625 499.285156 460.90625 L 468.851562 460.90625 C 468.148438 460.90625 467.445312 460.671875 466.976562 459.96875 L 462.761719 454.351562 C 461.359375 452.476562 459.25 451.542969 457.144531 451.542969 L 445.4375 451.542969 C 441.457031 451.542969 438.414062 454.585938 438.414062 458.566406 L 438.414062 505.386719 C 438.414062 509.367188 441.457031 512.410156 445.4375 512.410156 Z M 445.4375 456.222656 L 457.144531 456.222656 C 457.847656 456.222656 458.546875 456.457031 459.015625 457.160156 L 463.230469 462.777344 C 464.636719 464.652344 466.742188 465.589844 468.851562 465.589844 L 499.285156 465.589844 C 500.6875 465.589844 501.625 466.523438 501.625 467.929688 L 501.625 473.078125 C 500.921875 472.847656 500.222656 472.613281 499.285156 472.613281 L 445.4375 472.613281 C 444.5 472.613281 443.800781 472.847656 443.097656 473.078125 L 443.097656 458.566406 C 443.097656 457.160156 444.035156 456.222656 445.4375 456.222656 Z M 445.4375 456.222656 " fill-opacity="1" fill-rule="nonzero"/></g><g clip-path="url(#62418a91c0)"><path fill="#f7fbff" d="M 146.539062 491.902344 C 146.304688 491.902344 145.835938 491.902344 145.601562 491.667969 C 144.667969 491.199219 144.199219 490.496094 144.199219 489.5625 L 144.199219 477.152344 C 131.324219 472.238281 123.128906 462.171875 123.128906 450.933594 C 123.128906 434.777344 139.984375 421.667969 160.585938 421.667969 C 181.1875 421.667969 198.042969 434.777344 198.042969 450.933594 C 198.042969 466.617188 182.359375 479.496094 162.460938 480.195312 L 147.945312 491.433594 C 147.476562 491.667969 147.007812 491.902344 146.539062 491.902344 Z M 160.585938 426.351562 C 142.558594 426.351562 127.8125 437.355469 127.8125 450.933594 C 127.8125 460.53125 135.535156 469.425781 147.242188 473.40625 C 148.179688 473.640625 148.882812 474.578125 148.882812 475.515625 L 148.882812 484.878906 L 160.117188 475.984375 C 160.585938 475.75 161.054688 475.515625 161.523438 475.515625 C 179.082031 475.046875 193.363281 464.042969 193.363281 450.933594 C 193.363281 437.355469 178.613281 426.351562 160.585938 426.351562 Z M 160.585938 426.351562 " fill-opacity="1" fill-rule="nonzero"/></g><path fill="#f7fbff" d="M 160.585938 463.808594 C 154.96875 463.808594 150.050781 460.53125 147.710938 455.378906 C 147.242188 454.210938 147.710938 452.804688 148.882812 452.335938 C 150.050781 451.871094 151.457031 452.335938 151.925781 453.507812 C 153.5625 457.019531 156.839844 459.125 160.585938 459.125 C 165.738281 459.125 169.953125 454.914062 169.953125 449.761719 C 169.953125 444.613281 165.738281 440.398438 160.585938 440.398438 C 156.839844 440.398438 153.5625 442.503906 151.925781 446.015625 C 151.457031 447.1875 150.050781 447.65625 148.882812 447.1875 C 147.710938 446.71875 147.242188 445.3125 147.710938 444.144531 C 150.050781 438.992188 154.96875 435.714844 160.585938 435.714844 C 168.3125 435.714844 174.632812 442.035156 174.632812 449.761719 C 174.632812 457.488281 168.3125 463.808594 160.585938 463.808594 Z M 160.585938 463.808594 " fill-opacity="1" fill-rule="nonzero"/><path fill="#f7fbff" d="M 155.90625 447.421875 L 148.882812 447.421875 C 147.476562 447.421875 146.539062 446.484375 146.539062 445.078125 L 146.539062 438.054688 C 146.539062 436.652344 147.476562 435.714844 148.882812 435.714844 C 150.285156 435.714844 151.222656 436.652344 151.222656 438.054688 L 151.222656 442.738281 L 155.90625 442.738281 C 157.308594 442.738281 158.246094 443.675781 158.246094 445.078125 C 158.246094 446.484375 157.308594 447.421875 155.90625 447.421875 Z M 155.90625 447.421875 " fill-opacity="1" fill-rule="nonzero"/></svg>