<svg width="1451" height="1522" viewBox="0 0 1451 1522" fill="none" xmlns="http://www.w3.org/2000/svg">
<mask id="mask0_386_316" style="mask-type:luminance" maskUnits="userSpaceOnUse" x="0" y="0" width="1451" height="1522">
<path d="M1450.43 0H0V1522H1450.43V0Z" fill="white"/>
</mask>
<g mask="url(#mask0_386_316)">
<mask id="mask1_386_316" style="mask-type:luminance" maskUnits="userSpaceOnUse" x="599" y="456" width="174" height="264">
<path d="M599.02 456.6H772.331V719.662H599.02V456.6Z" fill="white"/>
</mask>
<g mask="url(#mask1_386_316)">
<mask id="mask2_386_316" style="mask-type:luminance" maskUnits="userSpaceOnUse" x="1" y="-11" width="1449" height="1534">
<path d="M116.326 -10.6795L1449.67 126.048L1334.85 1522.38L1.50513 1385.65L116.326 -10.6795Z" fill="white"/>
</mask>
<g mask="url(#mask2_386_316)">
<mask id="mask3_386_316" style="mask-type:luminance" maskUnits="userSpaceOnUse" x="1" y="-11" width="1449" height="1534">
<path d="M116.326 -10.6795L1449.67 126.048L1334.85 1522.38L1.50513 1385.65L116.326 -10.6795Z" fill="white"/>
</mask>
<g mask="url(#mask3_386_316)">
<path d="M768.848 457.275L770.852 457.481L761.532 570.838L760.52 570.735C679.996 562.478 608.471 628.911 601.077 718.84L599.072 718.634C606.539 627.847 678.485 560.665 759.711 568.394L768.848 457.275Z" fill="white"/>
</g>
</g>
</g>
<mask id="mask4_386_316" style="mask-type:luminance" maskUnits="userSpaceOnUse" x="731" y="745" width="266" height="156">
<path d="M731.948 745.968H996.122V900.047H731.948V745.968Z" fill="white"/>
</mask>
<g mask="url(#mask4_386_316)">
<mask id="mask5_386_316" style="mask-type:luminance" maskUnits="userSpaceOnUse" x="1" y="-11" width="1449" height="1534">
<path d="M116.326 -10.6796L1449.67 126.048L1334.85 1522.38L1.50537 1385.65L116.326 -10.6796Z" fill="white"/>
</mask>
<g mask="url(#mask5_386_316)">
<mask id="mask6_386_316" style="mask-type:luminance" maskUnits="userSpaceOnUse" x="1" y="-11" width="1449" height="1534">
<path d="M116.326 -10.6796L1449.67 126.048L1334.85 1522.38L1.50537 1385.65L116.326 -10.6796Z" fill="white"/>
</mask>
<g mask="url(#mask6_386_316)">
<path d="M893.245 747.678L994.755 758.086L994.571 760.325L895.066 750.122C887.066 840.719 814.825 907.475 733.532 899.144L733.716 896.905C814.24 905.163 885.758 838.722 893.153 748.801L893.245 747.678Z" fill="white"/>
</g>
</g>
</g>
<mask id="mask7_386_316" style="mask-type:luminance" maskUnits="userSpaceOnUse" x="721" y="757" width="277" height="258">
<path d="M721.852 757.242H997.805V1014.67H721.852V757.242Z" fill="white"/>
</mask>
<g mask="url(#mask7_386_316)">
<mask id="mask8_386_316" style="mask-type:luminance" maskUnits="userSpaceOnUse" x="1" y="-11" width="1449" height="1534">
<path d="M116.326 -10.6796L1449.67 126.048L1334.85 1522.38L1.50537 1385.65L116.326 -10.6796Z" fill="white"/>
</mask>
<g mask="url(#mask8_386_316)">
<mask id="mask9_386_316" style="mask-type:luminance" maskUnits="userSpaceOnUse" x="1" y="-11" width="1449" height="1534">
<path d="M116.326 -10.6796L1449.67 126.048L1334.85 1522.38L1.50537 1385.65L116.326 -10.6796Z" fill="white"/>
</mask>
<g mask="url(#mask9_386_316)">
<path d="M992.652 758.989L996.675 759.4C993.579 797.002 983.969 832.821 968.116 865.887C967.557 867.054 966.979 868.229 966.407 869.396L962.877 867.216C963.449 866.078 964.008 864.933 964.56 863.773C980.151 831.25 989.609 796.004 992.652 759.004V758.989ZM949.666 890.923L952.985 893.5C948.548 900.627 943.763 907.592 938.742 914.228L935.659 911.321C940.582 904.796 945.301 897.933 949.666 890.923ZM731.606 897.808L735.629 898.219L735.123 904.341L731.1 903.93L731.606 897.808ZM913.088 937.444L915.803 940.783C913.062 943.558 910.229 946.318 907.383 948.96C882.367 972.198 854.038 989.542 823.166 1000.52C821.713 1001.04 820.228 1001.56 818.762 1002.05L817.605 997.734C819.058 997.256 820.51 996.75 821.943 996.244C852.323 985.425 880.198 968.367 904.806 945.503C907.62 942.897 910.4 940.189 913.101 937.458L913.088 937.444ZM728.793 931.983L732.816 932.401L726.585 1008.2C736.733 1009.15 746.967 1009.41 757.023 1008.97L757.181 1013.48C746.277 1013.95 735.195 1013.61 724.212 1012.49L722.194 1012.28L728.793 931.975V931.983Z" fill="white"/>
</g>
</g>
</g>
<mask id="mask10_386_316" style="mask-type:luminance" maskUnits="userSpaceOnUse" x="304" y="272" width="869" height="760">
<path d="M304.558 272.457H1172.8V1031.58H304.558V272.457Z" fill="white"/>
</mask>
<g mask="url(#mask10_386_316)">
<mask id="mask11_386_316" style="mask-type:luminance" maskUnits="userSpaceOnUse" x="1" y="-11" width="1449" height="1534">
<path d="M116.326 -10.6795L1449.67 126.048L1334.85 1522.38L1.50513 1385.65L116.326 -10.6795Z" fill="white"/>
</mask>
<g mask="url(#mask11_386_316)">
<mask id="mask12_386_316" style="mask-type:luminance" maskUnits="userSpaceOnUse" x="1" y="-11" width="1449" height="1534">
<path d="M116.326 -10.6795L1449.67 126.048L1334.85 1522.38L1.50513 1385.65L116.326 -10.6795Z" fill="white"/>
</mask>
<g mask="url(#mask12_386_316)">
<path d="M908.217 273.345L909.893 274.321C934.081 284.993 957.592 298.168 979.782 313.494C1001.63 328.585 1022.41 345.936 1041.58 365.028L1042.91 366.341L1041.74 367.839L788.566 684.643L787.245 683.344C781.941 678.059 775.986 673.934 769.531 671.079L767.901 670.551L768.447 668.459L908.217 273.36V273.345ZM1037.93 366.679C1019.27 348.241 999.093 331.492 977.922 316.856C956.396 301.985 933.595 289.133 910.137 278.674L772.364 668.114C778.095 670.852 783.426 674.536 788.25 679.094L1037.93 366.672V366.679ZM347.787 520.09L349.7 521.154L693.28 703.125L692.445 704.938C690.96 708.468 689.803 711.955 688.902 715.595C687.949 719.478 687.312 723.42 686.957 727.655C686.313 735.604 686.832 743.113 688.528 750.592L689.218 752.508L687.272 753.154L319.313 859.281L318.689 857.402C312.438 830.406 308.225 802.537 306.161 774.535C304.065 746.041 304.203 717.144 306.549 688.651C308.935 659.585 313.641 630.57 320.589 602.436C327.372 574.897 336.337 547.923 347.241 522.241L347.8 520.09H347.787ZM688.541 704.975L349.732 525.544C339.222 550.529 330.56 576.732 323.967 603.479C317.092 631.392 312.405 660.157 310.046 689.01C307.719 717.276 307.581 745.931 309.658 774.197C311.65 801.318 315.685 828.336 321.653 854.518L684.716 749.792C683.224 742.452 682.803 735.076 683.434 727.281C683.802 722.803 684.479 718.642 685.485 714.539C686.28 711.287 687.279 708.145 688.534 704.975H688.541ZM805.498 751.502L807.213 752.038L1171.71 873.286L1171.1 875.209C1163.64 903.166 1153.88 930.559 1142.1 956.586C1130.54 982.144 1116.88 1006.73 1101.5 1029.67L1100.69 1031.13L1099.1 1030.26L1098.95 1030.14L794.449 775.562L795.704 774.006C799.891 767.731 803.006 760.802 804.991 753.389L805.498 751.502ZM1167.23 875.913L807.857 756.369C805.918 762.938 803.125 769.147 799.51 774.865L1099.68 1025.82C1114.53 1003.5 1127.74 979.619 1138.96 954.825C1150.39 929.553 1159.89 903.027 1167.23 875.921L1167.23 875.913Z" fill="white"/>
</g>
</g>
</g>
<mask id="mask13_386_316" style="mask-type:luminance" maskUnits="userSpaceOnUse" x="459" y="276" width="462" height="918">
<path d="M459.36 276.215H920.403V1193.17H459.36V276.215Z" fill="white"/>
</mask>
<g mask="url(#mask13_386_316)">
<mask id="mask14_386_316" style="mask-type:luminance" maskUnits="userSpaceOnUse" x="1" y="-11" width="1449" height="1534">
<path d="M116.326 -10.6795L1449.67 126.048L1334.85 1522.38L1.50513 1385.65L116.326 -10.6795Z" fill="white"/>
</mask>
<g mask="url(#mask14_386_316)">
<mask id="mask15_386_316" style="mask-type:luminance" maskUnits="userSpaceOnUse" x="1" y="-11" width="1449" height="1534">
<path d="M116.326 -10.6795L1449.67 126.048L1334.85 1522.38L1.50513 1385.65L116.326 -10.6795Z" fill="white"/>
</mask>
<g mask="url(#mask15_386_316)">
<path d="M711.04 278.057L711.244 279.481L731.554 515.062L730.272 515.253C707.799 517.683 685.997 524.391 665.51 535.225C645.377 545.868 627.105 560.159 611.205 577.694L610.252 578.883L609.326 577.679L460.484 409.316L461.352 408.245C477.718 390.203 495.544 373.601 514.362 358.884C533.245 344.109 553.391 331.022 574.227 319.99C595.293 308.841 617.364 299.658 639.817 292.686C662.677 285.603 686.241 280.722 709.844 278.189L711.053 278.057H711.04ZM728.806 512.567L708.851 281.118C685.781 283.68 662.802 288.472 640.481 295.401C618.159 302.33 596.226 311.446 575.298 322.53C554.587 333.481 534.573 346.487 515.801 361.181C497.443 375.546 480.019 391.708 464.007 409.265L610.298 574.728C626.211 557.406 644.418 543.255 664.445 532.656C684.827 521.881 706.485 515.128 728.819 512.567H728.806ZM831.289 933.906L831.73 935.088L918.76 1150.87L917.597 1151.49C886.133 1167.34 852.868 1178.68 818.735 1185.2C783.604 1191.9 747.756 1193.44 712.177 1189.8L711.973 1189.77C689.08 1187.43 666.279 1182.93 644.194 1176.4L642.932 1175.99L643.274 1174.65L697.539 945.76L698.795 946.186C709.39 949.312 720.393 951.485 731.501 952.623C765.765 956.094 798.905 949.958 830.021 934.354L830.185 934.288L831.302 933.921L831.289 933.906ZM915.441 1149.48L829.922 937.466C798.734 952.865 765.548 958.891 731.258 955.419C720.439 954.311 709.699 952.234 699.314 949.232L646.015 1174.01C667.58 1180.31 689.843 1184.66 712.197 1186.95L712.394 1186.97C747.762 1190.6 783.393 1189.06 818.295 1182.41C851.816 1176 884.49 1164.93 915.428 1149.48H915.441Z" fill="white"/>
</g>
</g>
</g>
<mask id="mask16_386_316" style="mask-type:luminance" maskUnits="userSpaceOnUse" x="370" y="313" width="755" height="841">
<path d="M370.181 313.795H1124V1153.71H370.181V313.795Z" fill="white"/>
</mask>
<g mask="url(#mask16_386_316)">
<mask id="mask17_386_316" style="mask-type:luminance" maskUnits="userSpaceOnUse" x="1" y="-11" width="1449" height="1534">
<path d="M116.326 -10.6795L1449.67 126.048L1334.85 1522.38L1.50537 1385.65L116.326 -10.6795Z" fill="white"/>
</mask>
<g mask="url(#mask17_386_316)">
<mask id="mask18_386_316" style="mask-type:luminance" maskUnits="userSpaceOnUse" x="1" y="-11" width="1449" height="1534">
<path d="M116.326 -10.6795L1449.67 126.048L1334.85 1522.38L1.50537 1385.65L116.326 -10.6795Z" fill="white"/>
</mask>
<g mask="url(#mask18_386_316)">
<path d="M781.744 315.858C798.544 317.582 815.212 320.57 831.671 324.812L832.69 325.077L827.668 349.328L826.649 349.063C794.245 340.703 760.914 337.532 727.597 339.617L726.552 339.683L725.303 314.837L726.348 314.771C744.857 313.612 763.379 313.979 781.757 315.858H781.744ZM830.179 326.838C796.572 318.272 762.038 314.984 727.511 317.047L728.524 337.209C761.355 335.264 794.173 338.391 826.104 346.509L830.179 326.838ZM664.143 324.533L669.119 348.784L668.093 349.041C632.817 358.084 599.131 373.013 567.989 393.396L567.082 393.983L555.803 372.522L556.717 371.934C589.818 350.267 625.607 334.406 663.104 324.79L664.13 324.533H664.143ZM666.608 347.03L662.559 327.337C625.988 336.828 591.047 352.308 558.689 373.366L567.845 390.791C598.612 370.782 631.831 356.058 666.608 347.03ZM909.506 355.346L910.452 355.853C919.97 360.998 929.435 366.672 938.577 372.727L938.623 372.756C962.476 388.523 984.732 407.181 1004.78 428.209L1005.53 429.009L990.273 447.146L989.517 446.346C970.672 426.565 949.725 409.001 927.246 394.152C918.622 388.464 909.716 383.113 900.751 378.269L899.798 377.755L909.499 355.354L909.506 355.346ZM937.506 374.738C928.712 368.925 919.628 363.464 910.479 358.473L902.604 376.669C911.307 381.403 919.95 386.607 928.298 392.126C950.619 406.88 971.428 424.268 990.187 443.836L1002.57 429.119C982.852 408.538 960.964 390.255 937.526 374.753L938.039 373.74L937.5 374.753L937.506 374.738ZM529.216 391.803L542.171 412.047L541.317 412.73C535.231 417.589 529.21 422.726 523.419 428.011L522.604 428.752L508.505 409.471L509.32 408.729C515.473 403.122 521.868 397.646 528.349 392.486L529.203 391.796L529.216 391.803ZM539.246 411.504L528.737 395.077C522.867 399.782 517.076 404.729 511.483 409.808L522.92 425.45C528.224 420.649 533.706 415.959 539.246 411.504ZM1046.79 480.425L1047.42 481.358C1068.68 512.912 1085.85 547.71 1098.43 584.777L1098.81 585.87L1077.97 594.685L1077.6 593.592C1065.75 558.727 1049.61 525.984 1029.62 496.309L1028.99 495.377L1046.81 480.411L1046.79 480.425ZM1096.09 584.512C1083.74 548.429 1067.02 514.519 1046.38 483.706L1031.92 495.854C1051.54 525.14 1067.43 557.377 1079.18 591.669L1096.09 584.505L1096.09 584.512ZM490.549 427.057L505.817 445.187L505.061 445.994C480.9 471.353 459.998 500.522 442.935 532.707C440.129 538.007 437.388 543.468 434.785 548.929L434.292 549.963L414.613 538.286L415.106 537.258C417.853 531.474 420.772 525.676 423.762 520.024C441.883 485.842 464.1 454.831 489.793 427.864L490.549 427.057ZM502.846 445.084L490.457 430.36C465.237 456.989 443.408 487.545 425.55 521.213C422.75 526.498 420.022 531.907 417.433 537.31L433.405 546.785C435.869 541.64 438.459 536.495 441.108 531.504C458.085 499.472 478.849 470.406 502.84 445.084H502.846ZM404.129 562.243L424.479 572.387L424.058 573.451C410.465 607.472 401.296 643.393 396.781 680.217L396.636 681.377L374.558 678.001L374.703 676.841C379.488 637.683 389.242 599.486 403.689 563.307L404.116 562.243H404.129ZM421.712 573.576L405.201 565.348C391.207 600.653 381.696 637.859 376.938 676.019L394.855 678.749C399.39 642.505 408.428 607.134 421.712 573.576ZM1119.09 673.956L1119.24 675.116C1124.65 717.687 1124.2 760.699 1117.89 802.933L1117.72 804.093L1095.73 799.997L1095.9 798.837C1101.84 759.114 1102.26 718.649 1097.17 678.602L1097.02 677.435L1119.08 673.942L1119.09 673.956ZM1116 801.392C1122.04 760.141 1122.49 718.172 1117.31 676.606L1099.41 679.447C1104.32 718.972 1103.9 758.857 1098.15 798.081L1115.99 801.406L1116 801.392ZM393.738 746.027L393.777 747.194C395.032 787.512 401.776 827.265 413.811 865.351L414.159 866.46L393.146 874.739L392.791 873.631C380.007 833.151 372.849 790.895 371.502 748.067L371.462 746.9L393.738 746.027ZM411.478 865.036C399.706 827.426 393.061 788.202 391.707 748.456L373.638 749.153C375.045 790.962 382.038 832.197 394.421 871.744L411.484 865.021L411.478 865.036ZM1081.36 862.709L1102.39 870.93L1102.05 872.031C1093.86 898.168 1083.25 923.608 1070.51 947.632C1065.22 957.614 1059.5 967.449 1053.52 976.866L1052.92 977.82L1034.73 963.427L1035.34 962.473C1040.96 953.606 1046.34 944.336 1051.32 934.948C1063.32 912.334 1073.3 888.399 1081 863.81L1081.35 862.694L1081.36 862.709ZM1099.72 872.368L1082.64 865.704C1074.94 890.05 1065.02 913.751 1053.12 936.159C1048.3 945.275 1043.09 954.259 1037.65 962.898L1052.41 974.576C1058.13 965.504 1063.61 956.043 1068.69 946.457C1081.18 922.903 1091.61 897.984 1099.72 872.383V872.368ZM425.287 897.206L425.721 898.263C428.83 905.853 432.189 913.435 435.725 920.782L436.224 921.824L416.585 933.583L416.085 932.541C412.339 924.731 408.75 916.679 405.457 908.613L405.017 907.548L425.287 897.206ZM433.378 920.863C430.171 914.14 427.101 907.233 424.249 900.319L407.803 908.715C410.814 916.026 414.054 923.314 417.446 930.427L433.385 920.878L433.378 920.863ZM1021.18 983.289L1038.43 999.047L1037.77 999.95C1032.75 1006.83 1027.45 1013.59 1022.05 1020.08L1021.33 1020.94L1005.02 1003.98L1005.74 1003.12C1010.82 997.029 1015.79 990.658 1020.52 984.199L1021.18 983.289ZM1035.47 999.37L1021.47 986.577C1017.14 992.471 1012.61 998.269 1007.99 1003.85L1021.22 1017.6C1026.11 1011.7 1030.89 1005.58 1035.47 999.356V999.37ZM447.47 943.418L448.029 944.409C465.789 975.912 487.433 1004.4 512.37 1029.06L513.152 1029.84L498.383 1048.47L497.595 1047.7C471.073 1021.46 448.062 991.172 429.178 957.665L428.613 956.674L447.477 943.418H447.47ZM510.182 1030.04C485.691 1005.66 464.382 977.615 446.807 946.648L431.492 957.408C449.975 990.005 472.408 1019.52 498.186 1045.16L510.182 1030.04ZM983.838 1027.18L998.719 1045.71L997.937 1046.5C969.371 1075.08 937.092 1098.55 901.987 1116.23L901.027 1116.71L891.865 1094.02L892.824 1093.54C925.833 1076.9 956.206 1054.85 983.056 1027.95L983.838 1027.17V1027.18ZM995.754 1045.53L983.674 1030.49C957.106 1056.93 927.161 1078.69 894.638 1095.19L902.072 1113.6C936.29 1096.23 967.794 1073.35 995.741 1045.52L995.754 1045.53ZM559.668 1068.51L560.562 1069.13C562.692 1070.6 564.854 1072.06 567.023 1073.5C596.055 1092.7 627.197 1107.13 659.568 1116.39L660.587 1116.68L655.066 1140.79L654.047 1140.49C619.625 1130.65 586.531 1115.33 555.679 1094.91C553.378 1093.39 551.064 1091.82 548.81 1090.27L547.916 1089.66L559.668 1068.51ZM658.03 1118.37C625.83 1109.04 594.859 1094.63 565.958 1075.53C564.085 1074.3 562.205 1073.02 560.345 1071.75L550.815 1088.91C552.76 1090.26 554.758 1091.6 556.756 1092.92C587.136 1113 619.698 1128.15 653.561 1137.95L658.057 1118.39L658.03 1118.37ZM837.152 1115.58L842.772 1139.67L841.753 1139.96C807.424 1149.93 772.101 1154.45 736.727 1153.4L735.675 1153.37L736.273 1128.49L737.325 1128.52C770.596 1129.51 803.841 1125.26 836.14 1115.88L837.152 1115.58ZM840.202 1137.98L835.654 1118.45C803.822 1127.58 771.083 1131.77 738.317 1130.89L737.824 1151.08C772.299 1152.01 806.734 1147.61 840.202 1137.98ZM689.639 1123.45L690.677 1123.64C698.032 1124.97 705.525 1126.04 712.953 1126.85L713.991 1126.95L711.848 1151.73L710.803 1151.62C702.909 1150.76 694.937 1149.62 687.122 1148.2L686.09 1148.02L689.639 1123.45ZM711.704 1129.07C704.921 1128.32 698.098 1127.33 691.381 1126.15L688.495 1146.09C695.594 1147.35 702.804 1148.38 709.969 1149.17L711.704 1129.07Z" fill="white"/>
</g>
</g>
</g>
<mask id="mask19_386_316" style="mask-type:luminance" maskUnits="userSpaceOnUse" x="568" y="535" width="358" height="397">
<path d="M568.732 535.518H925.452V931.99H568.732V535.518Z" fill="white"/>
</mask>
<g mask="url(#mask19_386_316)">
<mask id="mask20_386_316" style="mask-type:luminance" maskUnits="userSpaceOnUse" x="1" y="-11" width="1449" height="1534">
<path d="M116.326 -10.6795L1449.67 126.048L1334.85 1522.38L1.50537 1385.65L116.326 -10.6795Z" fill="white"/>
</mask>
<g mask="url(#mask20_386_316)">
<mask id="mask21_386_316" style="mask-type:luminance" maskUnits="userSpaceOnUse" x="1" y="-11" width="1449" height="1534">
<path d="M116.326 -10.6795L1449.67 126.048L1334.85 1522.38L1.50537 1385.65L116.326 -10.6795Z" fill="white"/>
</mask>
<g mask="url(#mask21_386_316)">
<path d="M762.913 536.84C768.907 537.449 774.901 538.41 780.896 539.71C793.108 542.367 805.051 546.418 816.402 551.791L817.336 552.239L808.679 575.059L807.746 574.618C797.821 569.913 787.357 566.353 776.67 564.041C752.869 558.881 729.056 559.894 705.867 567.073L704.894 567.374L698.966 543.475L699.932 543.174C720.617 536.774 741.728 534.652 762.926 536.825L762.913 536.84ZM814.68 553.435C803.73 548.341 792.241 544.466 780.515 541.912C753.954 536.142 727.354 537.214 701.431 545.053L706.281 564.599C729.47 557.604 753.27 556.665 777.044 561.825C787.541 564.1 797.808 567.565 807.588 572.108L814.68 553.421V553.435ZM668.251 556.76L678.261 578.897L677.361 579.404C670.939 583.03 664.689 587.184 658.767 591.779L657.938 592.417L645.273 572.049L646.101 571.418C652.858 566.177 660.009 561.421 667.351 557.281L668.251 556.775V556.76ZM675.56 577.899L667.37 559.784C660.732 563.579 654.251 567.895 648.099 572.607L658.464 589.276C663.926 585.092 669.671 581.275 675.56 577.899ZM870.437 591.852L871.16 592.652C884.194 606.958 895.158 623.377 903.715 641.433C912.352 659.651 918.36 679.138 921.567 699.36L921.738 700.475L899.87 704.806L899.699 703.69C894.126 668.583 878.469 635.429 855.602 610.334L854.879 609.534L870.437 591.852ZM919.385 698.64C916.177 679.05 910.301 660.157 901.921 642.483C893.613 624.955 883.031 609.006 870.464 595.038L857.725 609.505C880.264 634.57 895.769 667.394 901.5 702.178L919.385 698.64ZM625.981 589.547L641.25 607.56L640.514 608.345C616.983 633.22 601.281 665.207 595.069 700.857L594.872 701.958L573.07 697.224L573.254 696.123C580.353 655.364 598.323 618.79 625.225 590.326L625.962 589.547H625.981ZM638.397 607.471L625.909 592.733C599.953 620.492 582.542 655.951 575.463 695.44L593.295 699.308C599.644 664.011 615.215 632.302 638.411 607.471H638.397ZM924.19 728.11L924.216 729.233C924.393 738.408 924.006 747.693 923.033 756.838L922.921 757.961L900.869 755.055L900.988 753.932C901.836 745.939 902.184 737.813 902.026 729.805L902 728.682L924.203 728.125L924.19 728.11ZM921.14 755.451C921.981 747.15 922.336 738.745 922.218 730.422L904.057 730.87C904.156 738.239 903.84 745.704 903.104 753.066L921.153 755.451H921.14ZM592.204 732.932L592.21 734.055C592.21 772.876 604.212 811.073 625.994 841.636L626.632 842.517L609.26 857.96L608.623 857.079C583.718 822.141 570.014 778.454 570.007 734.063L570.001 732.94L592.204 732.932ZM623.786 842.157C602.326 811.653 590.429 773.749 590.192 735.178L572.019 735.186C572.249 778.322 585.559 820.71 609.569 854.797L623.779 842.157H623.786ZM894.77 786.227L915.888 793.853L915.573 794.932C909.361 816.38 899.982 836.307 887.711 854.18C875.748 871.575 861.36 886.556 844.928 898.711L844.087 899.335L831.822 878.666L832.663 878.049C861.801 856.492 883.741 824.263 894.454 787.299L894.77 786.227ZM913.351 795.307L896.065 789.06C885.219 825.701 863.45 857.666 834.635 879.29L844.665 896.201C860.565 884.303 874.506 869.696 886.12 852.8C898.056 835.441 907.219 816.101 913.351 795.307ZM646.508 865.395L647.277 866.129C652.785 871.319 658.655 876.112 664.754 880.383L665.615 880.985L653.804 901.97L652.943 901.375C645.976 896.494 639.252 890.997 632.955 885.059L632.186 884.325L646.508 865.381V865.395ZM662.829 881.683C657.248 877.704 651.839 873.308 646.751 868.559L635.032 884.061C640.777 889.419 646.863 894.381 653.173 898.865L662.842 881.683H662.829ZM684.65 892.149L685.584 892.597C695.798 897.515 706.564 901.221 717.6 903.629C738.317 908.113 759.186 907.901 779.64 902.998L780.626 902.77L785.3 927.014L784.307 927.249C760.915 932.864 737.042 933.113 713.367 927.975C700.78 925.237 688.476 920.995 676.796 915.365L675.862 914.925L684.663 892.149H684.65ZM733.059 908.363C727.768 907.82 722.477 906.968 717.199 905.831C706.367 903.475 695.771 899.863 685.695 895.107L678.498 913.736C689.77 919.087 701.615 923.124 713.728 925.751C736.805 930.764 760.06 930.596 782.881 925.267L779.055 905.442C763.872 908.972 748.452 909.956 733.046 908.378L733.059 908.363Z" fill="white"/>
</g>
</g>
</g>
<mask id="mask22_386_316" style="mask-type:luminance" maskUnits="userSpaceOnUse" x="602" y="573" width="290" height="324">
<path d="M602.385 573.099H891.799V896.289H602.385V573.099Z" fill="white"/>
</mask>
<g mask="url(#mask22_386_316)">
<mask id="mask23_386_316" style="mask-type:luminance" maskUnits="userSpaceOnUse" x="1" y="-11" width="1449" height="1534">
<path d="M116.326 -10.6796L1449.67 126.048L1334.85 1522.38L1.50513 1385.65L116.326 -10.6796Z" fill="white"/>
</mask>
<g mask="url(#mask23_386_316)">
<mask id="mask24_386_316" style="mask-type:luminance" maskUnits="userSpaceOnUse" x="1" y="-11" width="1449" height="1534">
<path d="M116.326 -10.6796L1449.67 126.048L1334.85 1522.38L1.50513 1385.65L116.326 -10.6796Z" fill="white"/>
</mask>
<g mask="url(#mask24_386_316)">
<path d="M760.264 573.877C785.51 576.468 809.724 586.443 830.277 602.752L827.063 607.809C807.305 592.138 784.024 582.538 759.758 580.05C747.499 578.795 735.195 579.352 723.18 581.694L722.227 575.587C734.709 573.143 747.512 572.57 760.264 573.877ZM690.257 586.259L692.452 591.948C685.518 595.28 678.774 599.295 672.405 603.875L669.401 598.664C676.027 593.907 683.04 589.738 690.257 586.259ZM649.111 616.265L652.89 620.808C627.973 646.689 612.533 681.817 609.418 719.706L603.89 719.141C607.13 679.725 623.188 643.195 649.111 616.265ZM872.343 654.784C886.817 683.322 893.041 715.728 890.346 748.5C889.801 755.084 888.887 761.683 887.645 768.105L882.216 766.784C883.412 760.611 884.286 754.262 884.805 747.935C887.395 716.418 881.414 685.267 867.499 657.83L872.33 654.77L872.343 654.784ZM608.984 741.131C609.332 749.579 610.312 758.042 611.902 766.292L606.473 767.591C604.823 759.004 603.798 750.203 603.437 741.417L608.984 741.131ZM874.847 793.09L879.974 795.475C876.964 803.593 873.309 811.491 869.129 818.948L864.423 815.66C868.446 808.496 871.955 800.892 874.861 793.097L874.847 793.09ZM619.238 792.628C632.245 827.808 656.275 856.309 686.891 872.867L684.473 878.438C652.634 861.226 627.638 831.602 614.104 794.998L619.238 792.635V792.628ZM844.35 843.618L848.247 848.022C834.826 862.841 819.196 874.394 801.804 882.402C783.913 890.645 764.996 894.689 745.593 894.432L745.659 888.244C782.776 888.721 817.828 872.875 844.35 843.633V843.618Z" fill="white"/>
</g>
</g>
</g>
<mask id="mask25_386_316" style="mask-type:luminance" maskUnits="userSpaceOnUse" x="472" y="295" width="467" height="653">
<path d="M472.822 295.005H938.913V947.022H472.822V295.005Z" fill="white"/>
</mask>
<g mask="url(#mask25_386_316)">
<mask id="mask26_386_316" style="mask-type:luminance" maskUnits="userSpaceOnUse" x="1" y="-11" width="1449" height="1534">
<path d="M116.326 -10.6795L1449.67 126.048L1334.85 1522.38L1.50513 1385.65L116.326 -10.6795Z" fill="white"/>
</mask>
<g mask="url(#mask26_386_316)">
<mask id="mask27_386_316" style="mask-type:luminance" maskUnits="userSpaceOnUse" x="1" y="-11" width="1449" height="1534">
<path d="M116.326 -10.6795L1449.67 126.048L1334.85 1522.38L1.50513 1385.65L116.326 -10.6795Z" fill="white"/>
</mask>
<g mask="url(#mask27_386_316)">
<path d="M478.402 295.878L644.181 562.705L641.9 564.482C558.288 629.256 537.452 757.932 595.463 851.303C623.562 896.538 665.766 926.845 714.274 936.629C762.787 946.428 811.814 934.53 852.316 903.144C892.817 871.766 919.963 824.637 928.718 770.468C937.493 716.293 926.838 661.544 898.739 616.316L903.301 612.778C917.932 636.325 927.988 662.374 933.207 690.185C938.242 717.063 938.564 744.441 934.18 771.562C929.783 798.698 920.903 824.211 907.751 847.42C894.152 871.436 876.556 891.9 855.457 908.238C834.378 924.577 811.045 935.814 786.141 941.635C762.084 947.264 737.554 947.617 713.268 942.721C688.968 937.818 666.121 927.894 645.345 913.207C623.838 898.021 605.513 878.372 590.876 854.818C576.245 831.272 566.188 805.223 560.969 777.405C555.935 750.548 555.613 723.155 559.997 696.027C564.394 668.892 573.274 643.378 586.426 620.177C599.539 597.019 616.365 577.18 636.438 561.142L473.807 299.38L478.369 295.834L478.402 295.878Z" fill="white"/>
</g>
</g>
</g>
<mask id="mask28_386_316" style="mask-type:luminance" maskUnits="userSpaceOnUse" x="526" y="488" width="442" height="493">
<path d="M526.666 488.543H967.517V980.844H526.666V488.543Z" fill="white"/>
</mask>
<g mask="url(#mask28_386_316)">
<mask id="mask29_386_316" style="mask-type:luminance" maskUnits="userSpaceOnUse" x="1" y="-11" width="1449" height="1534">
<path d="M116.326 -10.6795L1449.67 126.048L1334.85 1522.38L1.50513 1385.65L116.326 -10.6795Z" fill="white"/>
</mask>
<g mask="url(#mask29_386_316)">
<mask id="mask30_386_316" style="mask-type:luminance" maskUnits="userSpaceOnUse" x="1" y="-11" width="1449" height="1534">
<path d="M116.326 -10.6795L1449.67 126.048L1334.85 1522.38L1.50513 1385.65L116.326 -10.6795Z" fill="white"/>
</mask>
<g mask="url(#mask30_386_316)">
<path d="M767.191 489.732C771.819 490.202 776.492 490.848 781.067 491.648L779.903 500.001C775.48 499.223 770.977 498.614 766.501 498.158C752.514 496.72 738.402 496.823 724.573 498.467L723.778 490.063C738.12 488.367 752.718 488.257 767.204 489.747L767.191 489.732ZM806.135 497.689C844.192 509.506 878.765 532.715 906.108 564.827L900.626 570.647C874.223 539.651 840.853 517.227 804.117 505.836L806.135 497.689ZM662.795 507.465L665.707 515.275C658.116 518.813 650.629 522.879 643.452 527.393L639.738 520.024C647.178 515.363 654.934 511.135 662.795 507.48V507.465ZM630.043 526.468L634.085 533.617C601.701 556.459 575.449 588.593 558.15 626.533L551.406 622.702C569.317 583.397 596.515 550.125 630.043 526.468ZM913.673 574.192C919.227 581.415 924.459 589.085 929.218 596.975L922.947 601.702C918.34 594.084 913.292 586.67 907.935 579.697L913.673 574.192ZM956.554 660.282C962.312 680.694 965.644 701.914 966.439 723.346L958.874 723.691C958.099 703 954.891 682.529 949.33 662.814L956.554 660.282ZM541.126 648.979L548.231 651.9C541.856 671.218 537.767 691.506 536.072 712.197C533.357 745.146 536.703 777.632 546.023 808.753L538.845 811.432C529.196 779.196 525.733 745.55 528.533 711.426C530.301 689.994 534.54 668.987 541.133 648.979H541.126ZM966.012 751.987C965.92 753.403 965.815 754.834 965.697 756.266C962.187 798.911 948.745 839.852 926.819 874.673L920.62 869.821C941.785 836.205 954.773 796.665 958.164 755.495C958.276 754.115 958.388 752.743 958.467 751.355L966.012 751.987ZM555.231 834.421C563.112 853.116 573.169 870.621 585.118 886.446L579.334 891.892C566.951 875.502 556.539 857.373 548.383 838.01L555.231 834.406V834.421ZM914.113 879.598L920.075 884.802C914.817 892.296 909.111 899.526 903.104 906.293L897.727 900.348C903.531 893.808 909.046 886.828 914.113 879.598ZM849.227 941.253L852.881 948.652C836.055 959.001 818.091 966.847 799.497 971.941L797.696 963.728C815.653 958.81 832.985 951.235 849.233 941.238L849.227 941.253ZM630.529 931.542C637.411 936.614 644.628 941.268 651.977 945.4L648.578 952.953C640.967 948.681 633.494 943.844 626.362 938.596L630.529 931.542ZM661.862 950.582C682.698 960.807 704.861 967.163 727.728 969.512C742.964 971.075 758.305 970.818 773.337 968.734L774.264 977.123C758.686 979.281 742.806 979.553 727.025 977.931C703.336 975.501 680.384 968.902 658.812 958.326L661.849 950.582H661.862Z" fill="white"/>
</g>
</g>
</g>
<mask id="mask31_386_316" style="mask-type:luminance" maskUnits="userSpaceOnUse" x="770" y="501" width="188" height="249">
<path d="M770.649 501.696H957.422V749.726H770.649V501.696Z" fill="white"/>
</mask>
<g mask="url(#mask31_386_316)">
<mask id="mask32_386_316" style="mask-type:luminance" maskUnits="userSpaceOnUse" x="1" y="-11" width="1449" height="1534">
<path d="M116.326 -10.6796L1449.67 126.048L1334.85 1522.38L1.50537 1385.65L116.326 -10.6796Z" fill="white"/>
</mask>
<g mask="url(#mask32_386_316)">
<mask id="mask33_386_316" style="mask-type:luminance" maskUnits="userSpaceOnUse" x="1" y="-11" width="1449" height="1534">
<path d="M116.326 -10.6796L1449.67 126.048L1334.85 1522.38L1.50537 1385.65L116.326 -10.6796Z" fill="white"/>
</mask>
<g mask="url(#mask33_386_316)">
<path d="M772.607 502.467C882.505 517.492 962.798 625.917 955.391 749.293L951.874 749.029C959.157 627.737 880.224 521.147 772.18 506.379L772.607 502.467Z" fill="white"/>
</g>
</g>
</g>
<mask id="mask34_386_316" style="mask-type:luminance" maskUnits="userSpaceOnUse" x="536" y="712" width="188" height="254">
<path d="M536.762 712.146H723.535V965.812H536.762V712.146Z" fill="white"/>
</mask>
<g mask="url(#mask34_386_316)">
<mask id="mask35_386_316" style="mask-type:luminance" maskUnits="userSpaceOnUse" x="1" y="-11" width="1449" height="1534">
<path d="M116.326 -10.6796L1449.67 126.048L1334.85 1522.38L1.50537 1385.65L116.326 -10.6796Z" fill="white"/>
</mask>
<g mask="url(#mask35_386_316)">
<mask id="mask36_386_316" style="mask-type:luminance" maskUnits="userSpaceOnUse" x="1" y="-11" width="1449" height="1534">
<path d="M116.326 -10.6796L1449.67 126.048L1334.85 1522.38L1.50537 1385.65L116.326 -10.6796Z" fill="white"/>
</mask>
<g mask="url(#mask36_386_316)">
<path d="M539.26 712.498L542.783 712.858C532.555 837.239 611.488 946.369 722.47 961.306L722.056 965.21C667.949 957.929 619.218 927.828 584.881 880.449C550.466 832.982 534.271 773.331 539.273 712.498H539.26Z" fill="white"/>
</g>
</g>
</g>
<mask id="mask37_386_316" style="mask-type:luminance" maskUnits="userSpaceOnUse" x="450" y="403" width="592" height="661">
<path d="M450.947 403.988H1041.55V1063.52H450.947V403.988Z" fill="white"/>
</mask>
<g mask="url(#mask37_386_316)">
<mask id="mask38_386_316" style="mask-type:luminance" maskUnits="userSpaceOnUse" x="1" y="-11" width="1449" height="1534">
<path d="M116.326 -10.6795L1449.67 126.048L1334.85 1522.38L1.50513 1385.65L116.326 -10.6795Z" fill="white"/>
</mask>
<g mask="url(#mask38_386_316)">
<mask id="mask39_386_316" style="mask-type:luminance" maskUnits="userSpaceOnUse" x="1" y="-11" width="1449" height="1534">
<path d="M116.326 -10.6795L1449.67 126.048L1334.85 1522.38L1.50513 1385.65L116.326 -10.6795Z" fill="white"/>
</mask>
<g mask="url(#mask39_386_316)">
<path d="M774.079 406.035L773.567 412.208C614.761 395.921 473.709 526.953 459.13 704.285C444.545 881.609 561.883 1039.14 720.675 1055.42C879.474 1071.7 1020.54 940.673 1035.12 763.349L1040.65 763.914C1037.01 808.159 1025.72 850.297 1007.09 889.132C989.089 926.647 965.046 959.537 935.606 986.87C906.18 1014.2 872.843 1034.62 836.528 1047.56C798.931 1060.93 759.777 1065.67 720.156 1061.61C680.535 1057.54 642.801 1044.94 608.024 1024.12C574.43 1004.03 544.978 977.182 520.501 944.306C496.023 911.446 477.738 874.218 466.157 833.665C454.181 791.673 449.935 747.957 453.576 703.712C457.218 659.467 468.503 617.329 487.144 578.494C505.133 540.979 529.177 508.089 558.616 480.756C588.043 453.422 621.38 433.002 657.695 420.069C695.298 406.696 734.445 401.955 774.066 406.021L774.079 406.035Z" fill="white"/>
</g>
</g>
</g>
<mask id="mask40_386_316" style="mask-type:luminance" maskUnits="userSpaceOnUse" x="785" y="422" width="237" height="242">
<path d="M785.792 422.778H1021.36V663.291H785.792V422.778Z" fill="white"/>
</mask>
<g mask="url(#mask40_386_316)">
<mask id="mask41_386_316" style="mask-type:luminance" maskUnits="userSpaceOnUse" x="1" y="-11" width="1449" height="1534">
<path d="M116.326 -10.6795L1449.67 126.048L1334.85 1522.38L1.50513 1385.65L116.326 -10.6795Z" fill="white"/>
</mask>
<g mask="url(#mask41_386_316)">
<mask id="mask42_386_316" style="mask-type:luminance" maskUnits="userSpaceOnUse" x="1" y="-11" width="1449" height="1534">
<path d="M116.326 -10.6795L1449.67 126.048L1334.85 1522.38L1.50513 1385.65L116.326 -10.6795Z" fill="white"/>
</mask>
<g mask="url(#mask42_386_316)">
<path d="M787.534 424.246C843.824 433.362 895.637 460.997 937.375 504.162C957.573 525.059 974.886 549.09 988.827 575.594C1002.94 602.422 1013.36 631.319 1019.76 661.471L1013.38 663.167C987.696 542.389 896.564 449.282 786.601 431.483L787.548 424.231L787.534 424.246Z" fill="white"/>
</g>
</g>
</g>
<mask id="mask43_386_316" style="mask-type:luminance" maskUnits="userSpaceOnUse" x="405" y="353" width="684" height="764">
<path d="M405.516 353.254H1088.67V1116.13H405.516V353.254Z" fill="white"/>
</mask>
<g mask="url(#mask43_386_316)">
<mask id="mask44_386_316" style="mask-type:luminance" maskUnits="userSpaceOnUse" x="1" y="-11" width="1449" height="1534">
<path d="M116.326 -10.6795L1449.67 126.048L1334.85 1522.38L1.50537 1385.65L116.326 -10.6795Z" fill="white"/>
</mask>
<g mask="url(#mask44_386_316)">
<mask id="mask45_386_316" style="mask-type:luminance" maskUnits="userSpaceOnUse" x="1" y="-11" width="1449" height="1534">
<path d="M116.326 -10.6795L1449.67 126.048L1334.85 1522.38L1.50537 1385.65L116.326 -10.6795Z" fill="white"/>
</mask>
<g mask="url(#mask45_386_316)">
<path d="M778.28 354.928C784.268 355.537 790.328 356.337 796.27 357.306L797.518 357.512L792.957 392.648L791.701 392.442C786.312 391.569 780.804 390.842 775.375 390.284C768.565 389.587 761.677 389.132 754.874 388.926L753.605 388.89L754.434 353.401L755.696 353.438C763.182 353.658 770.774 354.157 778.267 354.928H778.28ZM794.653 359.89C789.164 359.024 783.577 358.304 778.05 357.732C771.023 357.012 763.925 356.528 756.898 356.3L756.202 386.152C762.643 386.372 769.163 386.812 775.605 387.473C780.666 387.994 785.779 388.655 790.827 389.447L794.653 359.89ZM672.372 362.503L679.458 397.103L678.222 397.419C646.364 405.551 615.964 419.262 587.852 438.184L586.774 438.918L570.362 408.509L571.44 407.775C602.437 386.908 635.985 371.78 671.136 362.818L672.372 362.503ZM676.434 394.996L670.479 365.872C636.445 374.716 603.936 389.374 573.833 409.471L587.642 435.05C615.314 416.59 645.18 403.114 676.434 394.996ZM520.159 450.024L541.422 476.425L540.482 477.372C514 503.964 492.027 535.108 475.175 569.943L474.57 571.176L446.603 554.309L447.207 553.076C465.795 514.651 490.023 480.308 519.219 450.97L520.159 450.024ZM1078.41 644.457L1078.71 645.822C1087.03 684.907 1089.7 725.189 1086.66 765.573L1086.55 766.975L1054.88 764.009L1054.99 762.608C1057.73 725.974 1055.31 689.458 1047.78 654.028L1047.49 652.663L1078.41 644.457ZM432.892 586.45L462.253 600.066L461.766 601.365C458.953 608.918 456.357 616.683 454.043 624.449L453.642 625.785L423.486 614.555L423.887 613.219C426.444 604.653 429.303 596.087 432.405 587.749L432.879 586.45H432.892ZM416.821 640.229L447.674 648.788L447.372 650.16C443.592 667.152 440.93 684.687 439.484 702.281C437.94 721.049 437.756 740.015 438.939 758.651L439.024 760.053L407.31 762.556L407.225 761.147C405.924 740.603 406.121 719.684 407.823 699.022C409.414 679.652 412.332 660.326 416.506 641.587L416.808 640.215L416.821 640.229ZM444.624 650.843L418.668 643.635C414.685 661.809 411.892 680.518 410.347 699.279C408.697 719.324 408.467 739.59 409.664 759.539L436.349 757.426C435.245 739.09 435.462 720.455 436.98 702.009C438.4 684.761 440.976 667.556 444.624 650.843ZM1052.27 787.827L1083.65 793.494L1083.45 794.888C1082.15 803.799 1080.57 812.776 1078.72 821.532L1078.43 822.905L1047.48 814.765L1047.78 813.392C1049.46 805.443 1050.89 797.303 1052.07 789.222L1052.27 787.827ZM448.404 822.156L448.739 823.514C457.954 861.718 472.92 897.669 493.211 930.324L493.934 931.484L467.813 951.712L467.097 950.56C444.71 914.529 428.205 874.886 418.05 832.74L417.715 831.382L448.417 822.149L448.404 822.156ZM947.812 996.126L968.365 1023.22L967.399 1024.13C939.813 1050.24 908.888 1071.18 875.505 1086.38L874.335 1086.91L862.339 1054.04L863.503 1053.5C893.784 1039.72 921.83 1020.73 946.853 997.044L947.812 996.126ZM511.43 956.858L512.252 957.929C517.017 964.146 522.026 970.26 527.179 976.088L528.066 977.086L505.416 1002.01L504.535 1001.01C498.863 994.577 493.329 987.847 488.077 980.977L487.256 979.905L511.43 956.843V956.858ZM524.497 977.057C519.909 971.816 515.433 966.363 511.148 960.821L490.811 980.213C495.504 986.298 500.414 992.273 505.436 998.013L524.497 977.057ZM543.716 993.513L544.669 994.438C569.442 1018.48 597.278 1037.84 627.414 1051.96L628.578 1052.51L616.267 1085.25L615.103 1084.7C581.845 1069.11 551.137 1047.75 523.814 1021.24L522.86 1020.3L543.716 993.513ZM842.194 1062.19L851.862 1096.01L850.66 1096.43C842.969 1099.16 835.082 1101.63 827.241 1103.75L826.018 1104.08L818.545 1069.57L819.767 1069.24C826.873 1067.32 834.011 1065.09 840.984 1062.6L842.194 1062.18V1062.19ZM848.688 1094.18L840.551 1065.74C834.3 1067.92 827.944 1069.92 821.588 1071.66L827.878 1100.69C834.852 1098.77 841.839 1096.59 848.688 1094.18ZM790.407 1075.51L794.705 1110.69L793.456 1110.89C767.934 1114.77 741.873 1115.38 716.002 1112.74C702.975 1111.4 689.915 1109.21 677.19 1106.25L675.954 1105.97L682.448 1071.22L683.684 1071.51C695.232 1074.2 707.083 1076.18 718.908 1077.39C742.386 1079.79 766.035 1079.23 789.158 1075.71L790.407 1075.51Z" fill="white"/>
</g>
</g>
</g>
<mask id="mask46_386_316" style="mask-type:luminance" maskUnits="userSpaceOnUse" x="794" y="426" width="226" height="238">
<path d="M794.206 426.536H1019.68V663.291H794.206V426.536Z" fill="white"/>
</mask>
<g mask="url(#mask46_386_316)">
<mask id="mask47_386_316" style="mask-type:luminance" maskUnits="userSpaceOnUse" x="1" y="-11" width="1449" height="1534">
<path d="M116.326 -10.6795L1449.67 126.048L1334.85 1522.38L1.50513 1385.65L116.326 -10.6795Z" fill="white"/>
</mask>
<g mask="url(#mask47_386_316)">
<mask id="mask48_386_316" style="mask-type:luminance" maskUnits="userSpaceOnUse" x="1" y="-11" width="1449" height="1534">
<path d="M116.326 -10.6795L1449.67 126.048L1334.85 1522.38L1.50513 1385.65L116.326 -10.6795Z" fill="white"/>
</mask>
<g mask="url(#mask48_386_316)">
<path d="M1017.77 661.853L1018.75 661.596C1016.09 649.368 1012.81 637.315 1008.9 625.52L1007.41 621.102C1006.91 619.634 1006.44 618.158 1005.86 616.705L1002.58 608.007L999.021 599.456C998.719 598.744 998.443 598.018 998.121 597.32L997.154 595.214L995.242 591.015C990.056 579.844 984.298 569.01 977.988 558.588C971.645 548.195 964.711 538.242 957.317 528.758C957.593 526.424 957.862 524.068 958.105 521.69C958.224 520.516 958.362 519.297 958.454 518.123L958.749 514.57L953.826 508.779C952.17 506.871 950.454 505.036 948.765 503.157L946.222 500.353C945.361 499.436 944.48 498.547 943.592 497.652L938.334 492.265L932.905 487.083C931.998 486.231 931.098 485.35 930.191 484.506L927.391 482.033C925.517 480.381 923.677 478.715 921.777 477.1L916.026 472.373C911.872 473.291 907.672 474.495 903.604 475.662L900.567 473.35C899.548 472.579 898.496 471.882 897.471 471.133L891.233 466.766C886.987 464.05 882.794 461.187 878.417 458.692L875.17 456.761C874.617 456.439 874.085 456.116 873.533 455.8L871.89 454.897L865.271 451.308C863.056 450.148 860.788 449.084 858.547 447.961L855.175 446.302L851.757 444.79C842.687 440.592 833.353 437.186 823.941 434.111L816.842 431.938C815.666 431.556 814.457 431.292 813.273 430.976L809.691 430.044L806.102 429.119C804.913 428.818 803.697 428.591 802.501 428.319L795.27 426.763L795.093 427.864C821.667 433.054 847.564 442.544 871.673 456.049C895.795 469.548 918.116 487.002 937.749 507.664C957.376 528.311 974.32 552.173 987.86 578.229C1001.4 604.279 1011.52 632.559 1017.75 661.853H1017.77Z" fill="white"/>
</g>
</g>
</g>
<mask id="mask49_386_316" style="mask-type:luminance" maskUnits="userSpaceOnUse" x="486" y="443" width="522" height="488">
<path d="M486.283 443.447H1007.9V930.111H486.283V443.447Z" fill="white"/>
</mask>
<g mask="url(#mask49_386_316)">
<mask id="mask50_386_316" style="mask-type:luminance" maskUnits="userSpaceOnUse" x="1" y="-11" width="1449" height="1534">
<path d="M116.326 -10.6795L1449.67 126.048L1334.85 1522.38L1.50513 1385.65L116.326 -10.6795Z" fill="white"/>
</mask>
<g mask="url(#mask50_386_316)">
<mask id="mask51_386_316" style="mask-type:luminance" maskUnits="userSpaceOnUse" x="1" y="-11" width="1449" height="1534">
<path d="M116.326 -10.6795L1449.67 126.048L1334.85 1522.38L1.50513 1385.65L116.326 -10.6795Z" fill="white"/>
</mask>
<g mask="url(#mask51_386_316)">
<path d="M938.511 927.961L939.261 928.724C950.513 914.874 960.59 899.834 969.259 883.848C977.942 867.869 985.218 850.943 990.956 833.386C1002.46 798.287 1007.74 760.662 1006.51 723.288C1005.3 685.92 997.581 648.832 983.838 614.745C976.976 597.702 968.615 581.4 958.92 566.17C949.225 550.932 938.203 536.752 926.082 523.855C901.822 498.056 873.112 477.548 841.931 463.918C810.769 450.258 777.208 443.484 743.726 444.005C710.251 444.482 676.861 452.24 646.021 466.795C630.602 474.054 615.819 483.009 601.951 493.483C588.089 503.95 575.14 515.928 563.322 529.17C560.779 529.537 558.189 529.911 555.612 530.366C553.049 530.843 550.466 531.32 547.857 531.856C539.949 541.625 532.595 551.945 525.857 562.757L525.923 564.959L526.041 567.161L526.304 571.528C526.403 572.981 526.475 574.405 526.607 575.859L526.994 580.174C511.634 607.538 500.414 637.793 494.032 669.295C487.636 700.791 485.974 733.483 489.115 765.587L490.114 765.463C488.971 753.535 488.458 741.527 488.596 729.534C488.59 728.037 488.655 726.532 488.695 725.042L488.826 720.543L489.063 716.051C489.135 714.546 489.201 713.056 489.332 711.559C489.569 708.579 489.753 705.577 490.068 702.604L490.509 698.134L491.054 693.679C491.383 690.706 491.869 687.748 492.29 684.783C492.494 683.3 492.757 681.825 493.013 680.357L493.762 675.931L494.61 671.527C494.899 670.066 495.162 668.598 495.498 667.145C496.142 664.231 496.746 661.317 497.483 658.425C500.289 646.85 503.694 635.444 507.789 624.346C515.965 602.157 526.561 581.077 539.424 561.854C545.839 552.224 552.793 543.035 560.194 534.337C567.628 525.668 575.535 517.514 583.843 509.895C592.157 502.306 600.925 495.34 610.022 488.94C619.119 482.576 628.61 476.88 638.331 471.801C648.098 466.795 658.115 462.406 668.356 458.773C670.926 457.899 673.476 456.967 676.066 456.182C677.361 455.778 678.649 455.352 679.95 454.963L683.855 453.84L685.807 453.275L687.772 452.769L691.696 451.756L695.646 450.853L697.625 450.405L699.603 449.994L703.573 449.179L707.556 448.482C710.205 447.976 712.873 447.638 715.542 447.227C720.873 446.537 726.223 445.935 731.599 445.605C736.956 445.201 742.333 445.091 747.709 445.062C750.398 445.113 753.079 445.091 755.768 445.238L759.797 445.392L763.819 445.664L765.831 445.803L767.835 446.009L771.851 446.361L775.854 446.838C777.195 446.992 778.516 447.154 779.85 447.374L783.847 447.954C785.181 448.159 786.502 448.416 787.836 448.644C790.492 449.077 793.134 449.656 795.77 450.178C806.332 452.424 816.757 455.433 826.977 459.096C837.192 462.832 847.215 467.214 856.936 472.307C866.651 477.431 876.109 483.17 885.186 489.608C894.25 496.037 902.979 503.084 911.287 510.695C919.569 518.343 927.449 526.535 934.87 535.218C942.265 543.93 949.166 553.156 955.548 562.801C961.93 572.46 967.728 582.597 972.992 593.049C978.218 603.523 982.852 614.378 986.9 625.491C990.89 636.626 994.334 648.032 997.062 659.621C999.783 671.233 1001.95 683.006 1003.35 694.912L1003.88 699.374L1004.31 703.852L1004.52 706.09L1004.7 708.336L1005.03 712.821C1005.38 718.803 1005.67 724.807 1005.69 730.804C1005.95 754.812 1003.46 778.829 998.423 802.155C995.872 813.811 992.691 825.297 988.885 836.513C985.034 847.714 980.623 858.672 975.569 869.271C970.495 879.848 964.882 890.094 958.69 899.907C952.479 909.706 945.748 919.087 938.538 927.975L938.511 927.961Z" fill="white"/>
</g>
</g>
</g>
<mask id="mask52_386_316" style="mask-type:luminance" maskUnits="userSpaceOnUse" x="481" y="764" width="465" height="270">
<path d="M481.235 764.758H945.643V1033.46H481.235V764.758Z" fill="white"/>
</mask>
<g mask="url(#mask52_386_316)">
<mask id="mask53_386_316" style="mask-type:luminance" maskUnits="userSpaceOnUse" x="1" y="-11" width="1449" height="1534">
<path d="M116.326 -10.6796L1449.67 126.048L1334.85 1522.38L1.50537 1385.65L116.326 -10.6796Z" fill="white"/>
</mask>
<g mask="url(#mask53_386_316)">
<mask id="mask54_386_316" style="mask-type:luminance" maskUnits="userSpaceOnUse" x="1" y="-11" width="1449" height="1534">
<path d="M116.326 -10.6796L1449.67 126.048L1334.85 1522.38L1.50537 1385.65L116.326 -10.6796Z" fill="white"/>
</mask>
<g mask="url(#mask54_386_316)">
<path d="M487.88 765.756C490.167 788.994 494.952 811.873 502.084 833.768L496.392 836.08C489.083 813.678 484.193 790.264 481.853 766.498L487.867 765.756H487.88ZM515.065 866.937C518.549 874.504 522.368 881.991 526.43 889.177L521.316 892.78C517.162 885.426 513.245 877.77 509.682 870.012L515.065 866.922V866.937ZM940.168 929.656L944.651 934.199C921.028 963.251 893.081 986.437 861.597 1003.1L859.001 997C889.768 980.705 917.078 958.054 940.168 929.656ZM540.745 911.982C550.019 925.34 560.45 937.943 571.762 949.4C585.637 963.486 600.84 975.883 616.944 986.254L613.914 992.119C597.436 981.505 581.891 968.807 567.687 954.406C556.126 942.684 545.451 929.788 535.967 916.129L540.758 911.982H540.745ZM835.989 1007.7L838.053 1014.06C830.724 1017.02 823.185 1019.64 815.646 1021.87L814.102 1015.34C821.47 1013.16 828.838 1010.59 836.002 1007.7H835.989ZM782.309 1022.41L783.124 1029.1C763.064 1032.14 742.675 1032.64 722.516 1030.57C705.243 1028.8 688.068 1025.13 671.472 1019.67L673.187 1013.18C689.402 1018.52 706.189 1022.12 723.068 1023.84C742.76 1025.86 762.696 1025.38 782.309 1022.41Z" fill="white"/>
</g>
</g>
</g>
<mask id="mask55_386_316" style="mask-type:luminance" maskUnits="userSpaceOnUse" x="763" y="529" width="92" height="43">
<path d="M763.918 529.881H854.781V571.22H763.918V529.881Z" fill="white"/>
</mask>
<g mask="url(#mask55_386_316)">
<mask id="mask56_386_316" style="mask-type:luminance" maskUnits="userSpaceOnUse" x="1" y="-11" width="1449" height="1534">
<path d="M116.326 -10.6796L1449.67 126.048L1334.85 1522.38L1.50537 1385.65L116.326 -10.6796Z" fill="white"/>
</mask>
<g mask="url(#mask56_386_316)">
<mask id="mask57_386_316" style="mask-type:luminance" maskUnits="userSpaceOnUse" x="1" y="-11" width="1449" height="1534">
<path d="M116.326 -10.6796L1449.67 126.048L1334.85 1522.38L1.50537 1385.65L116.326 -10.6796Z" fill="white"/>
</mask>
<g mask="url(#mask57_386_316)">
<path d="M764.825 530.755C796.835 534.036 827.523 546.653 853.591 567.256L851.172 571.08C825.709 550.954 795.711 538.638 764.444 535.43L764.825 530.77V530.755Z" fill="white"/>
</g>
</g>
</g>
<mask id="mask58_386_316" style="mask-type:luminance" maskUnits="userSpaceOnUse" x="758" y="58" width="52" height="478">
<path d="M758.87 58.2494H809.349V535.519H758.87V58.2494Z" fill="white"/>
</mask>
<g mask="url(#mask58_386_316)">
<mask id="mask59_386_316" style="mask-type:luminance" maskUnits="userSpaceOnUse" x="1" y="-11" width="1449" height="1534">
<path d="M116.326 -10.6795L1449.67 126.048L1334.85 1522.38L1.50513 1385.65L116.326 -10.6795Z" fill="white"/>
</mask>
<g mask="url(#mask59_386_316)">
<mask id="mask60_386_316" style="mask-type:luminance" maskUnits="userSpaceOnUse" x="1" y="-11" width="1449" height="1534">
<path d="M116.326 -10.6795L1449.67 126.048L1334.85 1522.38L1.50513 1385.65L116.326 -10.6795Z" fill="white"/>
</mask>
<g mask="url(#mask60_386_316)">
<path d="M797.788 59.4972L809.284 60.6789L770.386 533.676L758.89 532.495L797.788 59.4972Z" fill="white"/>
</g>
</g>
</g>
<mask id="mask61_386_316" style="mask-type:luminance" maskUnits="userSpaceOnUse" x="538" y="229" width="136" height="324">
<path d="M538.445 229.24H673.056V552.43H538.445V229.24Z" fill="white"/>
</mask>
<g mask="url(#mask61_386_316)">
<mask id="mask62_386_316" style="mask-type:luminance" maskUnits="userSpaceOnUse" x="1" y="-11" width="1449" height="1534">
<path d="M116.326 -10.6795L1449.67 126.048L1334.85 1522.38L1.50513 1385.65L116.326 -10.6795Z" fill="white"/>
</mask>
<g mask="url(#mask62_386_316)">
<mask id="mask63_386_316" style="mask-type:luminance" maskUnits="userSpaceOnUse" x="1" y="-11" width="1449" height="1534">
<path d="M116.326 -10.6795L1449.67 126.048L1334.85 1522.38L1.50513 1385.65L116.326 -10.6795Z" fill="white"/>
</mask>
<g mask="url(#mask63_386_316)">
<path d="M539.772 230.715L540.725 230.223L672.95 550.477L671.997 550.969L539.772 230.715Z" fill="white"/>
</g>
</g>
</g>
<mask id="mask64_386_316" style="mask-type:luminance" maskUnits="userSpaceOnUse" x="95" y="217" width="508" height="404">
<path d="M95.9104 217.965H602.385V620.074H95.9104V217.965Z" fill="white"/>
</mask>
<g mask="url(#mask64_386_316)">
<mask id="mask65_386_316" style="mask-type:luminance" maskUnits="userSpaceOnUse" x="1" y="-11" width="1449" height="1534">
<path d="M116.326 -10.6795L1449.67 126.048L1334.85 1522.38L1.50513 1385.65L116.326 -10.6795Z" fill="white"/>
</mask>
<g mask="url(#mask65_386_316)">
<mask id="mask66_386_316" style="mask-type:luminance" maskUnits="userSpaceOnUse" x="1" y="-11" width="1449" height="1534">
<path d="M116.326 -10.6795L1449.67 126.048L1334.85 1522.38L1.50513 1385.65L116.326 -10.6795Z" fill="white"/>
</mask>
<g mask="url(#mask66_386_316)">
<path d="M99.5255 219.235L288.941 368.712L286.522 372.536L97.1067 223.067L99.5255 219.235ZM344.658 412.671L384.095 443.777L381.67 447.609L342.24 416.495L344.658 412.671ZM426.937 477.607L601.78 615.575L599.361 619.406L424.518 481.431L426.937 477.607Z" fill="white"/>
</g>
</g>
</g>
<mask id="mask67_386_316" style="mask-type:luminance" maskUnits="userSpaceOnUse" x="230" y="672" width="341" height="52">
<path d="M230.521 672.686H570.415V723.42H230.521V672.686Z" fill="white"/>
</mask>
<g mask="url(#mask67_386_316)">
<mask id="mask68_386_316" style="mask-type:luminance" maskUnits="userSpaceOnUse" x="1" y="-11" width="1449" height="1534">
<path d="M116.326 -10.6796L1449.67 126.048L1334.85 1522.38L1.50513 1385.65L116.326 -10.6796Z" fill="white"/>
</mask>
<g mask="url(#mask68_386_316)">
<mask id="mask69_386_316" style="mask-type:luminance" maskUnits="userSpaceOnUse" x="1" y="-11" width="1449" height="1534">
<path d="M116.326 -10.6796L1449.67 126.048L1334.85 1522.38L1.50513 1385.65L116.326 -10.6796Z" fill="white"/>
</mask>
<g mask="url(#mask69_386_316)">
<path d="M232.171 674.543L568.804 709.063L567.753 721.9L231.12 687.381L232.171 674.543Z" fill="white"/>
</g>
</g>
</g>
<mask id="mask70_386_316" style="mask-type:luminance" maskUnits="userSpaceOnUse" x="67" y="813" width="522" height="274">
<path d="M67.3057 813.612H588.924V1086.07H67.3057V813.612Z" fill="white"/>
</mask>
<g mask="url(#mask70_386_316)">
<mask id="mask71_386_316" style="mask-type:luminance" maskUnits="userSpaceOnUse" x="1" y="-11" width="1449" height="1534">
<path d="M116.326 -10.6795L1449.67 126.048L1334.85 1522.38L1.50513 1385.65L116.326 -10.6795Z" fill="white"/>
</mask>
<g mask="url(#mask71_386_316)">
<mask id="mask72_386_316" style="mask-type:luminance" maskUnits="userSpaceOnUse" x="1" y="-11" width="1449" height="1534">
<path d="M116.326 -10.6795L1449.67 126.048L1334.85 1522.38L1.50513 1385.65L116.326 -10.6795Z" fill="white"/>
</mask>
<g mask="url(#mask72_386_316)">
<path d="M68.7844 1080.48L586.262 814.038L588.457 819.352L70.9797 1085.8L68.7844 1080.48Z" fill="white"/>
</g>
</g>
</g>
<mask id="mask73_386_316" style="mask-type:luminance" maskUnits="userSpaceOnUse" x="312" y="894" width="336" height="525">
<path d="M312.971 894.41H647.816V1418.65H312.971V894.41Z" fill="white"/>
</mask>
<g mask="url(#mask73_386_316)">
<mask id="mask74_386_316" style="mask-type:luminance" maskUnits="userSpaceOnUse" x="1" y="-11" width="1449" height="1534">
<path d="M116.326 -10.6795L1449.67 126.048L1334.85 1522.38L1.50537 1385.65L116.326 -10.6795Z" fill="white"/>
</mask>
<g mask="url(#mask74_386_316)">
<mask id="mask75_386_316" style="mask-type:luminance" maskUnits="userSpaceOnUse" x="1" y="-11" width="1449" height="1534">
<path d="M116.326 -10.6795L1449.67 126.048L1334.85 1522.38L1.50537 1385.65L116.326 -10.6795Z" fill="white"/>
</mask>
<g mask="url(#mask75_386_316)">
<path d="M313.701 1412.3L640.448 895.937L647.31 901.353L320.563 1417.71L313.701 1412.3Z" fill="white"/>
</g>
</g>
</g>
<mask id="mask76_386_316" style="mask-type:luminance" maskUnits="userSpaceOnUse" x="699" y="930" width="37" height="356">
<path d="M699.978 930.111H735.313V1285.24H699.978V930.111Z" fill="white"/>
</mask>
<g mask="url(#mask76_386_316)">
<mask id="mask77_386_316" style="mask-type:luminance" maskUnits="userSpaceOnUse" x="1" y="-11" width="1449" height="1534">
<path d="M116.326 -10.6795L1449.67 126.048L1334.85 1522.38L1.50537 1385.65L116.326 -10.6795Z" fill="white"/>
</mask>
<g mask="url(#mask77_386_316)">
<mask id="mask78_386_316" style="mask-type:luminance" maskUnits="userSpaceOnUse" x="1" y="-11" width="1449" height="1534">
<path d="M116.326 -10.6795L1449.67 126.048L1334.85 1522.38L1.50537 1385.65L116.326 -10.6795Z" fill="white"/>
</mask>
<g mask="url(#mask78_386_316)">
<path d="M729.234 931.63L734.452 932.166L705.552 1283.63L700.326 1283.09L729.234 931.63Z" fill="white"/>
</g>
</g>
</g>
<mask id="mask79_386_316" style="mask-type:luminance" maskUnits="userSpaceOnUse" x="819" y="911" width="245" height="583">
<path d="M819.445 911.321H1063.43V1493.81H819.445V911.321Z" fill="white"/>
</mask>
<g mask="url(#mask79_386_316)">
<mask id="mask80_386_316" style="mask-type:luminance" maskUnits="userSpaceOnUse" x="1" y="-11" width="1449" height="1534">
<path d="M116.326 -10.6795L1449.67 126.048L1334.85 1522.38L1.50537 1385.65L116.326 -10.6795Z" fill="white"/>
</mask>
<g mask="url(#mask80_386_316)">
<mask id="mask81_386_316" style="mask-type:luminance" maskUnits="userSpaceOnUse" x="1" y="-11" width="1449" height="1534">
<path d="M116.326 -10.6795L1449.67 126.048L1334.85 1522.38L1.50537 1385.65L116.326 -10.6795Z" fill="white"/>
</mask>
<g mask="url(#mask81_386_316)">
<path d="M823.856 913.149L901.882 1102.11L899.022 1103.58L820.997 914.617L823.856 913.149ZM930.44 1171.29L950.652 1220.25L947.793 1221.72L927.581 1172.75L930.44 1171.29ZM972.631 1273.46L1062.28 1490.56L1059.42 1492.04L969.772 1274.92L972.631 1273.46Z" fill="white"/>
</g>
</g>
</g>
<mask id="mask82_386_316" style="mask-type:luminance" maskUnits="userSpaceOnUse" x="893" y="847" width="364" height="290">
<path d="M893.481 847.435H1256.93V1136.8H893.481V847.435Z" fill="white"/>
</mask>
<g mask="url(#mask82_386_316)">
<mask id="mask83_386_316" style="mask-type:luminance" maskUnits="userSpaceOnUse" x="1" y="-11" width="1449" height="1534">
<path d="M116.326 -10.6795L1449.67 126.048L1334.85 1522.38L1.50537 1385.65L116.326 -10.6795Z" fill="white"/>
</mask>
<g mask="url(#mask83_386_316)">
<mask id="mask84_386_316" style="mask-type:luminance" maskUnits="userSpaceOnUse" x="1" y="-11" width="1449" height="1534">
<path d="M116.326 -10.6795L1449.67 126.048L1334.85 1522.38L1.50537 1385.65L116.326 -10.6795Z" fill="white"/>
</mask>
<g mask="url(#mask84_386_316)">
<path d="M894.77 851.787L896.584 848.917L1255.45 1132.11L1253.64 1134.97L894.77 851.787Z" fill="white"/>
</g>
</g>
</g>
<mask id="mask85_386_316" style="mask-type:luminance" maskUnits="userSpaceOnUse" x="927" y="751" width="320" height="37">
<path d="M927.134 751.605H1246.84V787.306H927.134V751.605Z" fill="white"/>
</mask>
<g mask="url(#mask85_386_316)">
<mask id="mask86_386_316" style="mask-type:luminance" maskUnits="userSpaceOnUse" x="1" y="-11" width="1449" height="1534">
<path d="M116.326 -10.6796L1449.67 126.048L1334.85 1522.38L1.50537 1385.65L116.326 -10.6796Z" fill="white"/>
</mask>
<g mask="url(#mask86_386_316)">
<mask id="mask87_386_316" style="mask-type:luminance" maskUnits="userSpaceOnUse" x="1" y="-11" width="1449" height="1534">
<path d="M116.326 -10.6796L1449.67 126.048L1334.85 1522.38L1.50537 1385.65L116.326 -10.6796Z" fill="white"/>
</mask>
<g mask="url(#mask87_386_316)">
<path d="M928.022 751.774L1246.04 784.385L1245.95 785.552L927.923 752.941L928.022 751.774Z" fill="white"/>
</g>
</g>
</g>
<mask id="mask88_386_316" style="mask-type:luminance" maskUnits="userSpaceOnUse" x="913" y="379" width="516" height="274">
<path d="M913.673 379.56H1428.56V652.017H913.673V379.56Z" fill="white"/>
</mask>
<g mask="url(#mask88_386_316)">
<mask id="mask89_386_316" style="mask-type:luminance" maskUnits="userSpaceOnUse" x="1" y="-11" width="1449" height="1534">
<path d="M116.326 -10.6795L1449.67 126.048L1334.85 1522.38L1.50513 1385.65L116.326 -10.6795Z" fill="white"/>
</mask>
<g mask="url(#mask89_386_316)">
<mask id="mask90_386_316" style="mask-type:luminance" maskUnits="userSpaceOnUse" x="1" y="-11" width="1449" height="1534">
<path d="M116.326 -10.6795L1449.67 126.048L1334.85 1522.38L1.50513 1385.65L116.326 -10.6795Z" fill="white"/>
</mask>
<g mask="url(#mask90_386_316)">
<path d="M914.554 643.107L1424.6 380.485L1428.12 389L918.07 651.621L914.554 643.107Z" fill="white"/>
</g>
</g>
</g>
<mask id="mask91_386_316" style="mask-type:luminance" maskUnits="userSpaceOnUse" x="849" y="259" width="201" height="313">
<path d="M849.733 259.304H1049.97V571.22H849.733V259.304Z" fill="white"/>
</mask>
<g mask="url(#mask91_386_316)">
<mask id="mask92_386_316" style="mask-type:luminance" maskUnits="userSpaceOnUse" x="1" y="-11" width="1449" height="1534">
<path d="M116.326 -10.6795L1449.67 126.048L1334.85 1522.38L1.50537 1385.65L116.326 -10.6795Z" fill="white"/>
</mask>
<g mask="url(#mask92_386_316)">
<mask id="mask93_386_316" style="mask-type:luminance" maskUnits="userSpaceOnUse" x="1" y="-11" width="1449" height="1534">
<path d="M116.326 -10.6795L1449.67 126.048L1334.85 1522.38L1.50537 1385.65L116.326 -10.6795Z" fill="white"/>
</mask>
<g mask="url(#mask93_386_316)">
<path d="M851.067 568.1L1046.15 259.81L1048.72 261.836L853.637 570.126L851.067 568.1Z" fill="white"/>
</g>
</g>
</g>
</g>
</svg>
