<svg width="951" height="891" viewBox="0 0 951 891" fill="none" xmlns="http://www.w3.org/2000/svg">
<g clip-path="url(#clip0_377_10)">
<path d="M474.563 -0.187487C475.328 -0.18722 476.093 -0.186954 476.882 -0.186679C499.976 -0.176575 522.979 -0.00364041 546 2.00001C547.55 2.13031 549.101 2.26051 550.651 2.39064C633.528 9.45716 715.978 26.5699 809 64C810.056 64.4533 811.112 64.9065 812.201 65.3736C842.327 78.3196 870.889 93.1221 899 110C899.719 109.242 900.439 108.484 901.18 107.703C903.745 105.244 906.07 103.525 909.125 101.75C909.973 101.25 910.821 100.75 911.695 100.234C917.956 96.8811 925.814 96.9034 932.609 98.6836C940.71 102.049 946.214 107.136 950 115C952.439 122.449 952.261 132.387 949 139.5C944.823 146.592 938.848 151.477 931 154C923.147 155.674 915.786 154.881 908.75 150.813C905.455 148.565 902.967 145.979 900.52 142.844C895.94 137.287 890.904 133.887 884.75 130.313C883.856 129.786 882.962 129.26 882.041 128.718C880.215 127.644 878.389 126.573 876.56 125.505C874.336 124.197 872.127 122.869 869.926 121.523C832.771 98.9511 792.294 81.1767 751.227 67.1069C748.207 66.0712 745.195 65.0159 742.184 63.957C671.887 39.5488 597.105 27.2898 523 23C522.008 22.9407 521.016 22.8814 519.993 22.8203C473.454 20.151 426.314 21.8157 380 27C379.282 27.0804 378.564 27.1607 377.824 27.2435C294.846 36.6352 212.791 57.6118 137 93C136.055 93.4389 135.11 93.8779 134.137 94.3301C102.706 108.985 72.0059 125.341 44.4375 146.5C38.2129 151.162 31.7812 152.592 24.0664 151.637C15.8147 149.923 9.25885 146.705 4.37111 139.648C-0.095479 131.835 -0.853138 124.973 1.97291e-05 116C2.81199 107.132 8.32181 101.842 16.0352 97.0156C21.8524 94.0087 28.642 94.2748 35 95C43.1441 97.6057 48.7123 101.591 53 109C59.7768 105.788 66.2675 102.301 72.6875 98.4375C126.866 66.099 188.073 43.8391 249 28C250.095 27.7082 251.19 27.4164 252.319 27.1157C306.994 12.5536 363.545 4.26955 420 1.00001C421.014 0.936461 421.014 0.936461 422.049 0.871625C439.542 -0.207519 457.044 -0.201172 474.563 -0.187487Z" fill="#0D1186"/>
<path d="M474.188 117.812C475.187 117.813 475.187 117.813 476.206 117.813C496.208 117.823 516.083 117.971 536 120C537.307 120.129 538.615 120.258 539.961 120.391C572.678 123.669 605.087 129.066 637 137C638.17 137.291 639.339 137.581 640.544 137.881C672.963 146.087 704.472 157.396 735 171C736.424 171.634 736.424 171.634 737.876 172.281C749.606 177.558 760.841 183.614 772 190C772.248 189.278 772.495 188.556 772.75 187.812C775.737 181.092 780.172 178.228 786.641 175.176C793.713 172.7 800.909 172.834 807.875 175.625C814.53 179.105 820.31 183.786 823 191C825.31 199.463 825.713 207.111 821.992 215.187C817.819 222.484 811.993 227.336 804 230C796.266 231.648 788.861 231.004 782 226.812C779.971 225.433 777.994 223.996 776.02 222.539C766.838 215.876 756.922 210.466 747 205C746.052 204.476 745.104 203.952 744.128 203.412C706.723 182.905 666.327 168.332 625 158C623.79 157.698 622.58 157.395 621.334 157.083C593.205 150.169 564.75 145.572 535.938 142.687C535.129 142.606 534.32 142.525 533.487 142.441C513.902 140.501 494.365 139.79 474.688 139.812C473.687 139.813 472.686 139.814 471.655 139.814C378.176 139.966 284.331 160.654 198.75 206.5C197.839 206.992 196.927 207.485 195.989 207.992C190.306 211.123 185.204 214.122 181.313 219.437C176.803 224.814 170.504 227.826 163.625 229C154.735 229.503 146.652 226.79 139.91 221.039C133.188 213.863 131.583 206.233 131.652 196.656C132.287 189.982 135.123 185.282 139.313 180.187C147.21 173.759 153.241 171.509 163.469 171.59C170.639 172.423 177.456 175.783 182.25 181.25C184 184 184 184 184 186C184.608 185.709 185.215 185.417 185.842 185.117C190.852 182.716 195.864 180.32 200.879 177.93C204.315 176.29 207.744 174.641 211.152 172.945C277.361 140.313 353.661 123.748 427 119C428.192 118.914 429.384 118.828 430.613 118.739C445.125 117.758 459.648 117.8 474.188 117.812Z" fill="#0D1186"/>
<path d="M476 235.687C477.588 235.69 477.588 235.69 479.208 235.693C497.307 235.745 515.052 236.548 533 239C534.231 239.166 535.461 239.333 536.729 239.504C581.12 245.731 623.23 259.323 663 280C663.299 279.062 663.598 278.123 663.906 277.156C666.49 269.7 672.23 266.428 679 263C686.678 260.446 695.1 261.121 702.375 264.437C710.145 268.841 714.473 274.273 717.063 282.812C718.744 291.07 717.8 298.637 713.375 305.875C708.189 312.862 701.508 317.338 692.938 318.812C684.52 319.601 676.704 316.989 670 312C669.022 311.6 668.043 311.201 667.035 310.789C661.639 308.542 656.752 305.375 651.75 302.375C625.779 287.05 597.837 276.154 568.563 268.937C567.869 268.766 567.176 268.594 566.462 268.418C481.989 247.64 381.953 254.817 306.065 299.542C303.959 301.029 302.559 302.522 301 304.562C296.732 309.985 290.357 312.851 283.625 314C274.735 314.503 266.652 311.79 259.91 306.039C253.188 298.863 251.583 291.233 251.652 281.656C252.287 274.982 255.123 270.282 259.313 265.187C267.206 258.762 273.245 256.494 283.473 256.598C290.295 257.376 296.32 260.194 301.082 265.18C302.518 267.07 303.812 268.947 305 271C308.753 270.458 311.918 269.234 315.363 267.677C345.954 253.911 378.816 245.308 411.875 240.187C413.132 239.992 414.389 239.797 415.684 239.596C435.718 236.687 455.77 235.614 476 235.687Z" fill="#0D1186"/>
<path d="M413.324 346.082C418.665 349.91 422.534 354.558 424 361C424.552 360.859 425.105 360.718 425.674 360.573C459.766 351.951 495.066 350.587 529 361C529.299 360.062 529.598 359.123 529.906 358.156C532.49 350.7 538.23 347.428 545 344C552.678 341.446 561.1 342.121 568.375 345.437C576.145 349.841 580.473 355.273 583.062 363.812C584.743 372.07 583.8 379.637 579.375 386.875C574.189 393.862 567.508 398.338 558.937 399.812C549.646 400.632 541.91 397.702 534.84 391.816C533 390 533 390 531.769 387.969C529.017 384.906 525.613 384.138 521.75 382.937C520.951 382.681 520.152 382.424 519.329 382.159C488.897 372.655 452.891 372.523 423.437 385.875C419.821 387.853 416.965 390.629 413.93 393.387C408.804 397.672 402.552 399.142 396 399C387.566 397.941 380.868 395.264 375 389C369.225 380.663 368.043 373.069 369 363C371.812 354.132 377.322 348.842 385.035 344.016C394.044 339.359 404.858 341.361 413.324 346.082Z" fill="#027AFD"/>
<path d="M571.332 347.113C578.454 352.15 581.959 358.39 583.687 366.883C584.52 375.19 582.757 382.319 577.777 389.027C571.95 395.495 565.274 399.254 556.59 400.02C548.252 399.957 541.157 397.368 534.84 391.965C532.03 388.964 530.443 385.813 529 382C528.646 381.212 528.291 380.425 527.926 379.613C525.268 372.11 526.614 364.18 529.883 357.113C533.479 350.312 539.603 345.795 546.937 343.355C555.898 341.811 563.382 342.608 571.332 347.113Z" fill="#037AFD"/>
<path d="M705.332 266.113C712.454 271.15 715.959 277.39 717.688 285.883C718.52 294.19 716.757 301.319 711.777 308.027C705.944 314.501 699.281 318.23 690.598 319.027C683.599 318.954 676.053 317.097 670.527 312.652C663.773 305.345 660.511 296.952 660.68 287.141C661.366 280.412 664.048 273.691 669 269C680.702 261.016 692.423 258.798 705.332 266.113Z" fill="#037AFD"/>
<path d="M296.328 261.094C301.63 264.877 304.864 269.382 307.438 275.313C309.013 285.638 308.355 294.033 302.75 303C298.102 309.127 291.157 312.715 283.625 314C274.735 314.503 266.652 311.79 259.91 306.039C253.188 298.863 251.583 291.233 251.652 281.656C252.287 274.983 255.123 270.283 259.313 265.188C270.684 255.932 282.985 253.61 296.328 261.094Z" fill="#027AFD"/>
<path d="M176.398 176.164C180.287 178.908 182.743 181.834 185 186C185.336 186.616 185.673 187.232 186.02 187.867C189.376 195.255 189.115 203.781 186.375 211.312C182.812 219.031 178.351 223.551 170.566 227.055C162.425 230.053 155.048 229.108 147 226C139.142 221.615 134.811 215.432 132 207C131.015 196.178 132.38 188.619 139.313 180.187C150.741 170.885 163.012 168.641 176.398 176.164Z" fill="#027AFD"/>
<path d="M44.3985 99.164C48.287 101.908 50.7431 104.834 53 109C53.3365 109.616 53.6729 110.232 54.0196 110.867C57.3763 118.255 57.1148 126.781 54.375 134.312C50.8125 142.031 46.3514 146.551 38.5665 150.055C30.4254 153.053 23.0482 152.108 15 149C7.14243 144.615 2.8109 138.432 4.48525e-05 130C-0.985075 119.178 0.37992 111.619 7.31254 103.187C18.7411 93.8852 31.0121 91.6408 44.3985 99.164Z" fill="#027AFD"/>
<path d="M807.875 175.625C814.53 179.105 820.31 183.786 823 191C825.31 199.463 825.713 207.111 821.992 215.188C817.819 222.484 811.993 227.336 804 230C796.217 231.659 788.875 230.852 781.813 227C776.119 223.108 772.598 217.197 769.563 211.125C767.621 200.338 769.301 192.011 775 182.75C783.414 173.771 796.579 171.099 807.875 175.625Z" fill="#027AFD"/>
<path d="M934.875 99.625C942.277 103.496 947.922 108.652 950.578 116.766C952.189 125.296 952.086 134.261 947.617 141.848C942.257 148.982 935.932 152.949 927.188 154.813C918.88 155.568 911.446 153.226 905 148C898.3 141.908 895.939 135.058 895.5 126.125C895.718 117.593 899.309 110.275 905 104C914.085 97.606 924.362 95.4125 934.875 99.625Z" fill="#027AFD"/>
<path d="M529 361C528.84 361.543 528.68 362.085 528.516 362.645C527.919 365.372 527.794 367.895 527.75 370.687C527.724 371.661 527.698 372.634 527.672 373.637C528.1 378.028 529.473 381.88 531 386C529.802 385.602 528.605 385.203 527.371 384.793C490.9 372.852 455.821 373.293 420 387C420.289 386.299 420.577 385.597 420.875 384.875C421.246 383.926 421.618 382.977 422 382C422.351 381.113 422.701 380.226 423.062 379.312C424.137 375.516 424.223 372.028 424.125 368.125C424.111 367.092 424.111 367.092 424.098 366.039C424.074 364.359 424.038 362.68 424 361C458.706 352.141 494.395 350.381 529 361Z" fill="#0D1185"/>
<path d="M413.328 346.094C418.63 349.877 421.864 354.382 424.438 360.313C425.99 370.49 425.165 378.14 420.313 387.125C415.217 393.461 408.944 397.435 400.938 398.813C393.024 399.51 385.517 397.493 379.063 392.875C373.439 388.078 369.404 381.439 368.727 373.996C368.446 364.156 370.05 357.804 376.313 350.188C387.684 340.932 399.985 338.61 413.328 346.094ZM376 354C372.758 359.194 370.852 364.156 370.75 370.313C370.711 371.699 370.711 371.699 370.672 373.113C370.91 376.678 370.91 376.678 374 382C389.18 382 404.36 382 420 382C423.6 374.799 424.576 369 422.121 361.211C418.374 353.023 412.691 348.051 404.387 344.695C393.693 341.58 383.205 345.784 376 354Z" fill="#72C1E9"/>
<path d="M571.332 347.113C578.454 352.15 581.959 358.39 583.687 366.883C584.52 375.19 582.757 382.319 577.777 389.027C571.95 395.495 565.274 399.254 556.59 400.02C548.252 399.957 541.157 397.368 534.84 391.965C532.03 388.964 530.443 385.813 529 382C528.646 381.212 528.291 380.425 527.926 379.613C525.268 372.11 526.614 364.18 529.883 357.113C533.479 350.312 539.603 345.795 546.937 343.355C555.898 341.811 563.382 342.608 571.332 347.113ZM534 355C529.19 361.82 527.645 368.737 529 377C529.99 378.98 530.98 380.96 532 383C547.18 383 562.36 383 578 383C581.6 375.799 582.576 370 580.121 362.211C576.374 354.023 570.691 349.051 562.387 345.695C551.719 342.588 541.154 346.763 534 355Z" fill="#72C1E9"/>
<path d="M176.398 176.164C180.287 178.908 182.743 181.834 185 186C185.336 186.616 185.673 187.232 186.02 187.867C189.376 195.255 189.115 203.781 186.375 211.312C182.812 219.031 178.351 223.551 170.566 227.055C162.425 230.053 155.048 229.108 147 226C139.142 221.615 134.811 215.432 132 207C131.015 196.178 132.38 188.619 139.313 180.187C150.741 170.885 163.012 168.641 176.398 176.164ZM139 184C135.758 189.194 133.852 194.156 133.75 200.312C133.711 201.699 133.711 201.699 133.672 203.113C133.91 206.678 133.91 206.678 137 212C152.18 212 167.36 212 183 212C186.6 204.799 187.576 199 185.121 191.211C181.374 183.023 175.691 178.051 167.387 174.695C156.693 171.58 146.205 175.784 139 184Z" fill="#72C1E9"/>
<path d="M705.332 266.113C712.454 271.15 715.959 277.39 717.688 285.883C718.52 294.19 716.757 301.319 711.777 308.027C705.944 314.501 699.281 318.23 690.598 319.027C683.599 318.954 676.053 317.097 670.527 312.652C663.773 305.345 660.511 296.952 660.68 287.141C661.366 280.412 664.048 273.691 669 269C680.702 261.016 692.423 258.798 705.332 266.113ZM668 274C663.19 280.82 661.645 287.737 663 296C663.99 297.98 664.98 299.96 666 302C681.18 302 696.36 302 712 302C715.6 294.799 716.576 289 714.121 281.211C710.374 273.023 704.691 268.051 696.387 264.695C685.719 261.588 675.154 265.763 668 274Z" fill="#72C1E9"/>
<path d="M296.328 261.094C301.63 264.877 304.864 269.382 307.438 275.313C309.013 285.638 308.355 294.033 302.75 303C298.102 309.127 291.157 312.715 283.625 314C274.735 314.503 266.652 311.79 259.91 306.039C253.188 298.863 251.583 291.233 251.652 281.656C252.287 274.983 255.123 270.283 259.313 265.188C270.684 255.932 282.985 253.61 296.328 261.094ZM259 269C255.758 274.194 253.852 279.156 253.75 285.313C253.711 286.699 253.711 286.699 253.672 288.113C253.91 291.678 253.91 291.678 257 297C272.18 297 287.36 297 303 297C306.6 289.799 307.576 284 305.121 276.211C301.374 268.023 295.691 263.051 287.387 259.695C276.693 256.58 266.205 260.784 259 269Z" fill="#72C1E9"/>
<path d="M44.3985 99.164C48.287 101.908 50.7431 104.834 53 109C53.3365 109.616 53.6729 110.232 54.0196 110.867C57.3763 118.255 57.1148 126.781 54.375 134.312C50.8125 142.031 46.3514 146.551 38.5665 150.055C30.4254 153.053 23.0482 152.108 15 149C7.14243 144.615 2.8109 138.432 4.48525e-05 130C-0.985075 119.178 0.37992 111.619 7.31254 103.187C18.7411 93.8852 31.0121 91.6408 44.3985 99.164ZM7.00004 107C3.75756 112.194 1.85222 117.156 1.75004 123.312C1.71137 124.699 1.71137 124.699 1.67192 126.113C1.90977 129.678 1.90977 129.678 5.00004 135C20.18 135 35.36 135 51 135C54.6005 127.799 55.5757 122 53.1211 114.211C49.3737 106.023 43.6911 101.051 35.3868 97.6953C24.6926 94.5798 14.2052 98.7842 7.00004 107Z" fill="#72C1E9"/>
<path d="M807.875 175.625C814.53 179.105 820.31 183.786 823 191C825.31 199.463 825.713 207.111 821.992 215.188C817.819 222.484 811.993 227.336 804 230C796.217 231.659 788.875 230.852 781.813 227C776.119 223.108 772.598 217.197 769.563 211.125C767.621 200.338 769.301 192.011 775 182.75C783.414 173.771 796.579 171.099 807.875 175.625ZM775.406 186.836C771.298 193.157 769.79 200.535 771 208C771.99 209.98 772.98 211.96 774 214C788.85 214 803.7 214 819 214C822.6 206.8 823.545 201.044 821.156 193.246C817.775 185.763 812.689 181.158 805.688 177.063C793.635 173.59 783.215 177.002 775.406 186.836Z" fill="#72C1E9"/>
<path d="M934.875 99.625C942.277 103.496 947.922 108.652 950.578 116.766C952.189 125.296 952.086 134.261 947.617 141.848C942.257 148.982 935.932 152.949 927.188 154.813C918.88 155.568 911.446 153.226 905 148C898.3 141.908 895.939 135.058 895.5 126.125C895.718 117.593 899.309 110.275 905 104C914.085 97.606 924.362 95.4125 934.875 99.625ZM902.406 110.836C898.298 117.157 896.79 124.535 898 132C898.99 133.98 899.98 135.96 901 138C915.85 138 930.7 138 946 138C949.6 130.799 950.545 125.044 948.156 117.246C944.774 109.763 939.689 105.158 932.688 101.063C920.635 97.5899 910.215 101.002 902.406 110.836Z" fill="#72C1E9"/>
<path d="M935.375 100.163C942.777 104.034 948.422 109.191 951.078 117.304C952.689 125.834 952.586 134.8 948.117 142.386C942.757 149.521 936.432 153.487 927.688 155.351C919.38 156.106 911.946 153.765 905.5 148.538C898.8 142.446 896.439 135.596 896 126.663C896.218 118.131 899.809 110.814 905.5 104.538C914.585 98.1445 924.862 95.951 935.375 100.163ZM902.906 111.374C898.761 117.754 897.301 125.023 898.5 132.538C901.373 141.423 906.898 146.847 914.812 151.476C921.935 153.528 928.106 153.549 934.875 150.351C942.33 146.111 946.733 140.659 949.5 132.538C950.867 124.241 949.398 117.377 944.5 110.538C938.844 104.267 932.752 100.508 924.188 100.038C915.244 100.333 908.413 104.439 902.906 111.374Z" fill="#F77067"/>
<path d="M413.328 346.094C418.63 349.877 421.864 354.382 424.438 360.313C425.99 370.49 425.165 378.14 420.313 387.125C415.217 393.461 408.944 397.435 400.938 398.813C393.024 399.51 385.517 397.493 379.063 392.875C373.439 388.078 369.404 381.439 368.727 373.996C368.446 364.156 370.05 357.804 376.313 350.188C387.684 340.932 399.985 338.61 413.328 346.094ZM376 354C371.592 361.061 370.065 367.704 371 376C373.75 384.88 379.441 390.282 387.25 394.938C394.491 396.989 401.37 397.132 408.313 394C415.394 389.97 420.762 383.899 423 376C424.063 367.581 422.925 360.983 418 354C413.222 348.499 406.742 344.732 399.52 343.617C390.294 343.188 382.077 347.07 376 354Z" fill="#F87065"/>
<path d="M807.875 175.625C814.53 179.105 820.31 183.786 823 191C825.31 199.463 825.713 207.111 821.992 215.188C817.819 222.484 811.993 227.336 804 230C796.217 231.659 788.875 230.852 781.813 227C776.119 223.108 772.598 217.197 769.563 211.125C767.621 200.338 769.301 192.011 775 182.75C783.414 173.771 796.579 171.099 807.875 175.625ZM775.406 186.836C771.261 193.215 769.801 200.485 771 208C773.873 216.885 779.398 222.309 787.313 226.938C794.435 228.99 800.606 229.011 807.375 225.813C814.83 221.573 819.233 216.121 822 208C823.367 199.702 821.898 192.839 817 186C811.344 179.729 805.252 175.969 796.688 175.5C787.744 175.794 780.913 179.9 775.406 186.836Z" fill="#F67066"/>
<path d="M571.332 347.113C578.454 352.15 581.959 358.39 583.687 366.883C584.52 375.19 582.757 382.319 577.777 389.027C571.95 395.495 565.274 399.254 556.59 400.02C548.252 399.957 541.157 397.368 534.84 391.965C532.03 388.964 530.443 385.813 529 382C528.646 381.212 528.291 380.425 527.926 379.613C525.268 372.11 526.614 364.18 529.883 357.113C533.479 350.312 539.603 345.795 546.937 343.355C555.898 341.811 563.382 342.608 571.332 347.113ZM534 355C529.135 361.897 527.657 368.666 529 377C531.764 385.888 537.423 391.271 545.25 395.937C552.491 397.989 559.37 398.132 566.312 395C573.394 390.97 578.762 384.899 581 377C582.063 368.581 580.925 361.983 576 355C571.222 349.499 564.741 345.732 557.52 344.617C548.31 344.189 540.035 348.052 534 355Z" fill="#F77066"/>
<path d="M176.398 176.164C180.287 178.908 182.743 181.834 185 186C185.336 186.616 185.673 187.232 186.02 187.867C189.376 195.255 189.115 203.781 186.375 211.312C182.812 219.031 178.351 223.551 170.566 227.055C162.425 230.053 155.048 229.108 147 226C139.142 221.615 134.811 215.432 132 207C131.015 196.178 132.38 188.619 139.313 180.187C150.741 170.885 163.012 168.641 176.398 176.164ZM139 184C134.592 191.061 133.065 197.704 134 206C136.75 214.88 142.441 220.282 150.25 224.937C157.491 226.989 164.37 227.132 171.313 224C178.394 219.97 183.762 213.899 186 206C187.063 197.581 185.925 190.983 181 184C176.222 178.499 169.742 174.732 162.52 173.617C153.294 173.188 145.077 177.07 139 184Z" fill="#F87065"/>
<path d="M296.328 261.094C301.63 264.877 304.864 269.382 307.438 275.313C309.013 285.638 308.355 294.033 302.75 303C298.102 309.127 291.157 312.715 283.625 314C274.735 314.503 266.652 311.79 259.91 306.039C253.188 298.863 251.583 291.233 251.652 281.656C252.287 274.983 255.123 270.283 259.313 265.188C270.684 255.932 282.985 253.61 296.328 261.094ZM259 269C254.592 276.061 253.065 282.704 254 291C256.75 299.88 262.441 305.282 270.25 309.938C277.491 311.989 284.37 312.132 291.313 309C298.394 304.97 303.762 298.899 306 291C307.063 282.581 305.925 275.983 301 269C296.222 263.499 289.742 259.732 282.52 258.617C273.294 258.188 265.077 262.07 259 269Z" fill="#F87066"/>
<path d="M705.332 266.113C712.454 271.15 715.959 277.39 717.688 285.883C718.52 294.19 716.757 301.319 711.777 308.027C705.944 314.501 699.281 318.23 690.598 319.027C683.599 318.954 676.053 317.097 670.527 312.652C663.773 305.345 660.511 296.952 660.68 287.141C661.366 280.412 664.048 273.691 669 269C680.702 261.016 692.423 258.798 705.332 266.113ZM668 274C663.135 280.897 661.657 287.666 663 296C665.764 304.889 671.423 310.271 679.25 314.938C686.491 316.989 693.37 317.133 700.313 314C707.394 309.97 712.762 303.899 715 296C716.063 287.581 714.925 280.983 710 274C705.222 268.499 698.742 264.732 691.52 263.617C682.31 263.189 674.035 267.052 668 274Z" fill="#F67067"/>
<path d="M44.3985 99.164C48.287 101.908 50.7431 104.834 53 109C53.3365 109.616 53.6729 110.232 54.0196 110.867C57.3763 118.255 57.1148 126.781 54.375 134.312C50.8125 142.031 46.3514 146.551 38.5665 150.055C30.4254 153.053 23.0482 152.108 15 149C7.14243 144.615 2.8109 138.432 4.48525e-05 130C-0.985075 119.178 0.37992 111.619 7.31254 103.187C18.7411 93.8852 31.0121 91.6408 44.3985 99.164ZM7.00004 107C2.59199 114.061 1.06501 120.704 2.00004 129C4.75013 137.88 10.4411 143.282 18.25 147.937C25.4914 149.989 32.3703 150.132 39.3125 147C46.3939 142.97 51.7619 136.899 54 129C55.0629 120.581 53.9255 113.983 49 107C44.2224 101.499 37.7415 97.7317 30.5196 96.6171C21.2937 96.188 13.0772 100.07 7.00004 107Z" fill="#F46E67"/>
<path d="M1 117C1.33 117 1.66 117 2 117C2.01418 117.75 2.02836 118.5 2.04297 119.273C2.47058 128.45 4.41529 136.058 11.375 142.438C18.442 147.779 25.2735 149.198 34 148C39.446 146.123 44.3114 143.527 48 139C48.66 139.33 49.32 139.66 50 140C47.6177 145.211 44.105 147.723 39 150C30.6083 152.616 23.1341 152.359 15 149C7.14773 144.586 2.81626 138.449 0 130C-0.0939804 127.96 -0.129921 125.917 -0.125 123.875C-0.127578 122.8 -0.130156 121.725 -0.132812 120.617C0 118 0 118 1 117Z" fill="#FB7064"/>
<path d="M176.398 176.164C180.287 178.908 182.743 181.835 185 186C185.336 186.616 185.673 187.232 186.02 187.867C189.129 194.712 188.906 202.602 187 209.75C186.67 210.493 186.34 211.235 186 212C185.01 211.67 184.02 211.34 183 211C183.321 210.292 183.642 209.585 183.973 208.855C186.396 202.119 185.879 195.015 182.875 188.563C178.803 181.454 172.76 177.341 165 175C157.744 173.87 152.365 175.607 146 179C144.668 179.669 143.335 180.336 142 181C143.508 176.779 146.213 175.197 150 173C159.162 170.051 168.163 171.536 176.398 176.164Z" fill="#F36E67"/>
<path d="M392 342C401.336 341.106 408.262 342.551 416 348C422.654 354.41 425.014 360.781 425.312 369.938C425.239 375.282 424.23 379.168 422 384C420.515 383.505 420.515 383.505 419 383C419.495 382.093 419.99 381.185 420.5 380.25C423.067 374.142 423.12 367.455 421.086 361.18C417.498 353.425 412.324 349.083 404.523 345.781C400.102 344.412 395.604 344.172 391 344C391.33 343.34 391.66 342.68 392 342Z" fill="#F46E66"/>
<path d="M275 257C284.336 256.106 291.262 257.551 299 263C304.658 268.451 307.763 274.019 308.141 281.961C308.268 290.749 308.268 290.749 307 295C306.01 295 305.02 295 304 295C304.236 294.184 304.236 294.184 304.477 293.352C306.25 285.382 305.536 278.207 301.477 271.121C297.447 265.333 291.627 262.052 285 260C281.335 259.432 277.704 259.139 274 259C274.33 258.34 274.66 257.68 275 257Z" fill="#F36E66"/>
<path d="M684 264C681 266 681 266 678.187 267.313C670.711 271.271 666.652 275.919 664 284C662.368 293.987 665.568 300.852 671 309C670.34 309.66 669.68 310.32 669 311C668.037 309.44 667.08 307.877 666.125 306.313C665.324 305.007 665.324 305.007 664.508 303.676C660.429 296.437 659.586 289.277 661.758 281.172C664.91 272.881 669.015 268.714 676.465 264.039C679.457 262.813 680.953 263.073 684 264Z" fill="#F56F66"/>
<path d="M917 101C916.423 101.273 915.845 101.547 915.25 101.828C913.013 102.993 911.039 104.268 909 105.75C908.01 106.454 908.01 106.454 907 107.172C901.769 111.954 900.133 117.188 898.75 123.875C898.577 124.659 898.405 125.442 898.227 126.25C897.806 128.164 897.402 130.082 897 132C896.67 132 896.34 132 896 132C895.19 121.683 897.347 114.723 902.875 106.062C906.976 102.082 911.124 98.8631 917 101Z" fill="#F56D65"/>
<path d="M771 190C771.66 190 772.32 190 773 190C772.835 191.114 772.67 192.227 772.5 193.375C772.321 194.915 772.155 196.457 772 198C771.92 198.794 771.84 199.588 771.758 200.406C771.311 208.711 774.454 214.559 779.312 221.125C779.869 221.744 780.426 222.362 781 223C778.812 223 778.812 223 776 222C769.465 214.221 768.298 205.876 769 196C770 192.25 770 192.25 771 190Z" fill="#E86D69"/>
<path d="M542 393C550.58 393 559.16 393 568 393C564.262 396.738 560.271 397.292 555.125 397.312C549.976 397.243 546.498 396.454 542 394C542 393.67 542 393.34 542 393Z" fill="#95CCE7"/>
<path d="M384 392C392.58 392 401.16 392 410 392C406.262 395.738 402.271 396.292 397.125 396.312C391.976 396.243 388.498 395.454 384 393C384 392.67 384 392.34 384 392Z" fill="#95CCE7"/>
<path d="M676 312C684.58 312 693.16 312 702 312C698.262 315.738 694.271 316.292 689.125 316.312C683.976 316.243 680.498 315.454 676 313C676 312.67 676 312.34 676 312Z" fill="#95CCE7"/>
<path d="M267 307C275.58 307 284.16 307 293 307C289.262 310.738 285.271 311.292 280.125 311.312C274.976 311.243 271.498 310.454 267 308C267 307.67 267 307.34 267 307Z" fill="#95CCE7"/>
<path d="M147 222C155.58 222 164.16 222 173 222C169.262 225.738 165.271 226.292 160.125 226.312C154.976 226.243 151.498 225.454 147 223C147 222.67 147 222.34 147 222Z" fill="#95CCE7"/>
<path d="M15 145C23.58 145 32.16 145 41 145C37.2624 148.738 33.2712 149.292 28.125 149.312C22.9763 149.243 19.4982 148.454 15 146C15 145.67 15 145.34 15 145Z" fill="#95CCE7"/>
<path d="M784 224C792.25 224 800.5 224 809 224C803.037 228.472 798.247 228.605 791 228C788.417 227.238 786.391 226.275 784 225C784 224.67 784 224.34 784 224Z" fill="#95CCE7"/>
<path d="M911 148C919.25 148 927.5 148 936 148C930.037 152.472 925.247 152.605 918 152C915.417 151.238 913.391 150.275 911 149C911 148.67 911 148.34 911 148Z" fill="#94CDE9"/>
<path d="M670 309C671.986 309.98 673.946 310.969 675.867 312.07C682.773 315.698 689.345 315.392 697 315C697 315.99 697 316.98 697 318C688.393 319.578 679.865 318.662 672.25 314C671.507 313.34 670.765 312.68 670 312C670 311.01 670 310.02 670 309Z" fill="#FC7064"/>
<path d="M534 353C534.66 353.33 535.32 353.66 536 354C535.651 354.626 535.301 355.253 534.941 355.898C534.486 356.716 534.031 357.533 533.563 358.375C533.11 359.187 532.658 359.999 532.191 360.836C528.81 366.978 529.211 374.041 531 380.75C531.33 381.493 531.66 382.235 532 383C531.34 383.33 530.68 383.66 530 384C526.604 377.775 526.162 372.021 527 365C528.439 360.183 530.281 356.42 534 353Z" fill="#E2676A"/>
<path d="M778 223C781.415 223.416 783.928 223.962 787 225.562C792.543 228.152 799.038 227.223 805 227C804.67 227.99 804.34 228.98 804 230C794.714 231.72 787.299 230.383 779.398 225.121C778.937 224.751 778.475 224.381 778 224C778 223.67 778 223.34 778 223Z" fill="#FB7164"/>
<path d="M53 113C53.66 113.33 54.32 113.66 55 114C57.5915 121.775 56.3311 129.561 53.168 136.941C51.9955 139.008 50.7614 140.42 49 142C49.4194 138.561 50.0214 135.955 51.5312 132.812C53.3449 128.693 53.3459 125.003 53.1875 120.562C53.174 119.831 53.1604 119.099 53.1465 118.346C53.1115 116.563 53.0577 114.782 53 113Z" fill="#E46568"/>
<path d="M661 284C661.33 284 661.66 284 662 284C662.086 284.75 662.173 285.5 662.262 286.273C663.46 295.003 666.129 301.693 671 309C670.34 309.66 669.68 310.32 669 311C668.037 309.44 667.08 307.877 666.125 306.312C665.324 305.007 665.324 305.007 664.508 303.676C661.76 298.8 660.751 295.32 660.875 289.688C660.893 288.619 660.911 287.55 660.93 286.449C660.953 285.641 660.976 284.833 661 284Z" fill="#DA646B"/>
<path d="M185 190C185.66 190.33 186.32 190.66 187 191C189.196 197.589 188.819 205.658 186 212C185.01 211.67 184.02 211.34 183 211C183.327 210.346 183.655 209.693 183.992 209.02C185.265 205.205 185.217 201.655 185.125 197.688C185.116 196.947 185.107 196.206 185.098 195.443C185.074 193.629 185.038 191.814 185 190Z" fill="#DE666C"/>
<path d="M423 363C423.66 363.33 424.32 363.66 425 364C425.335 371.434 425.139 377.199 422 384C421.01 383.67 420.02 383.34 419 383C419.474 382.113 419.949 381.226 420.438 380.312C422.833 374.843 422.743 368.884 423 363Z" fill="#E46567"/>
<path d="M48 139C48.66 139.33 49.32 139.66 50 140C47.7355 144.954 44.0058 147.982 39 150C36.7461 149.633 36.7461 149.633 35 149C36.2637 146.473 37.2721 146.266 39.8125 145.125C43.1712 143.521 45.5473 141.862 48 139Z" fill="#F5756B"/>
<path d="M305 275C305.66 275.33 306.32 275.66 307 276C308.069 279.207 308.133 281.57 308.125 284.938C308.128 285.978 308.13 287.018 308.133 288.09C308.019 290.577 307.719 292.631 307 295C306.01 295 305.02 295 304 295C304.163 294.42 304.326 293.84 304.494 293.243C305.277 289.773 305.103 286.287 305.062 282.75C305.058 282.005 305.053 281.26 305.049 280.492C305.037 278.661 305.019 276.831 305 275Z" fill="#DE666B"/>
<path d="M771 190C771.66 190 772.32 190 773 190C772.324 196.082 771.264 202.013 770 208C769.67 208 769.34 208 769 208C768.631 195.33 768.631 195.33 771 190Z" fill="#C75F70"/>
<path d="M899 114C899.33 114 899.66 114 900 114C899.324 120.082 898.264 126.013 897 132C896.67 132 896.34 132 896 132C895.446 119.33 895.446 119.33 899 114Z" fill="#C96072"/>
<path d="M53 129C53.66 129 54.32 129 55 129C54.4848 134.281 52.7453 137.572 50 142C49.0696 139.449 48.9144 138.26 49.7774 135.641C50.1602 134.852 50.5431 134.063 50.9375 133.25C51.3178 132.451 51.6981 131.652 52.0899 130.828C52.3902 130.225 52.6906 129.622 53 129Z" fill="#D16469"/>
<path d="M787.688 176.375C788.451 176.581 789.214 176.787 790 177C785 179.5 785 179.5 780 182C781.661 178.166 783.097 175.734 787.688 176.375Z" fill="#E8706E"/>
<path d="M914.688 100.375C915.451 100.581 916.214 100.787 917 101C912 103.5 912 103.5 907 106C908.661 102.166 910.097 99.7344 914.688 100.375Z" fill="#E8706E"/>
<path d="M422 376C422.66 376 423.32 376 424 376C423.125 381.75 423.125 381.75 422 384C421.01 383.67 420.02 383.34 419 383C419.99 380.69 420.98 378.38 422 376Z" fill="#D56873"/>
<path d="M664 278C665.456 282.521 664.27 285.516 663 290C662.67 290 662.34 290 662 290C661.946 288.375 661.907 286.75 661.875 285.125C661.852 284.22 661.829 283.315 661.805 282.383C662 280 662 280 664 278Z" fill="#E9675F"/>
<g filter="url(#filter0_d_377_10)">
<path d="M276.1 774.9C258.7 774.9 241.8 764.5 241.8 741.4C241.8 718.5 258.4 706.1 276 706.1C289.6 706.1 295.5 712.4 295.5 714.1C295.5 715.7 292.6 719.8 291.2 719.8C289.3 719.8 286.6 716.2 276.5 716.2C264.8 716.2 253.7 724.2 253.7 741.2C253.7 758.8 265.2 764.8 277.7 764.8C290.2 764.8 296.5 758.3 298.2 758.3C299 758.3 299.3 758.7 299.3 759.6C299.3 761.2 298.9 763.7 297.5 766.7C296.5 769 287.3 774.9 276.1 774.9ZM331.209 798.2C324.009 798.2 316.909 795.4 315.609 793.1C314.509 790.6 313.909 788.4 313.909 786.8C313.909 786 314.309 785.6 315.409 785.9C317.409 786.5 321.909 789.5 329.209 789.5C336.809 789.5 342.009 785.2 342.009 776.8V767.6C340.109 769.1 334.609 774.9 326.109 774.9C316.409 774.9 310.109 768.7 310.109 758.9V724.8C310.109 723.8 310.909 723 315.409 723C320.009 723 320.809 723.8 320.809 724.8V756.1C320.809 762.6 323.709 765.8 330.009 765.8C336.809 765.8 342.009 759.7 342.009 756.6V724.8C342.009 723.8 342.909 723 347.409 723C352.009 723 352.809 723.8 352.809 724.8V777.1C352.809 788.5 344.509 798.2 331.209 798.2ZM366.261 762.9V703.8C366.261 702.8 367.061 702 371.561 702C376.161 702 376.961 702.8 376.961 703.8V728.6C376.961 728.6 382.961 722.1 392.561 722.1C403.161 722.1 411.961 731.3 411.961 746.6C411.961 766.5 399.461 774.9 386.461 774.9C374.861 774.9 366.261 768.7 366.261 762.9ZM388.061 730.7C382.061 730.7 376.961 736.3 376.961 739.3V759.8C376.961 763.6 381.361 767 387.161 767C394.561 767 400.061 761.8 400.061 747.1C400.061 734.5 394.661 730.7 388.061 730.7ZM445.918 774.9C432.018 774.9 420.218 767.6 420.218 750.3C420.218 730.3 432.918 722.1 444.918 722.1C457.218 722.1 463.318 728.3 463.318 736.2C463.318 749.9 445.118 755.2 432.518 755.7C434.318 763.2 440.418 766.1 447.318 766.1C455.318 766.1 459.318 762.2 461.018 761.9C461.918 761.6 462.618 761.9 462.618 762.9C462.618 764.5 461.918 766.7 460.918 769.1C459.918 771 453.718 774.9 445.918 774.9ZM445.318 729.3C438.718 729.3 432.218 734.7 431.918 749.5C441.618 748.9 452.318 744.5 452.318 735.6C452.318 732 449.518 729.3 445.318 729.3ZM480.876 774C476.376 774 475.476 773.2 475.476 772.2V735.1C475.476 730 472.576 728.8 472.576 727.5C472.576 725.9 478.676 722.2 480.876 722.2C483.576 722.2 485.076 724.9 486.176 729.2C486.176 729.2 491.576 722.1 498.876 722.1C503.276 722.1 507.676 724 507.676 725.8C507.676 727.2 504.976 731.2 503.276 733C502.676 733.7 502.176 734 501.576 734C500.276 734 498.476 731.5 494.876 731.5C490.376 731.5 486.276 736.6 486.276 741V772.2C486.276 773.2 485.376 774 480.876 774ZM534.663 774.9C525.063 774.9 514.963 768.1 514.963 757.8V724.8C514.963 723.8 515.863 723 520.363 723C524.863 723 525.763 723.8 525.763 724.8V756.3C525.763 762.7 530.563 766.1 535.763 766.1C542.163 766.1 547.763 758.1 547.763 744.8C547.763 732.9 542.963 726.4 542.963 725C542.963 723.8 544.563 723 547.363 723C551.963 723 554.063 724.7 555.063 726.9C556.763 731 558.763 736.1 558.763 743.9C558.763 761.4 547.763 774.9 534.663 774.9ZM574.679 703C578.579 703 580.879 704.9 580.879 709.7C580.879 714.5 578.579 716.2 574.679 716.2C570.779 716.2 568.479 714.5 568.479 709.7C568.479 704.9 570.779 703 574.679 703ZM569.279 763.8V724.8C569.279 723.8 570.179 723 574.679 723C579.179 723 580.079 723.8 580.079 724.8V761.6C580.079 764.9 581.279 766.1 583.979 766.1C584.079 766.1 586.279 766.1 586.279 766.2C586.579 766.3 586.679 766.5 586.679 766.7C586.679 769.5 582.279 774 578.879 774.4C572.879 774.4 569.279 770.3 569.279 763.8ZM613.927 774.9C602.227 774.9 593.827 768.1 593.827 766.2C593.827 764.3 597.727 760.1 599.027 760.1C600.827 760.1 605.627 766.9 614.127 766.9C619.127 766.9 622.127 764.3 622.127 760.1C622.127 755.4 617.127 753.8 611.427 751.9C604.027 749.5 595.627 746.8 595.627 737.7C595.627 728.2 603.627 722.1 615.427 722.1C626.427 722.1 631.227 727 631.227 728.9C631.227 730.7 627.627 735 625.927 735C624.727 735 622.027 729.7 614.527 729.7C609.727 729.7 606.227 732.3 606.227 736.2C606.227 740.9 611.027 742.3 616.527 744C624.027 746.3 632.827 748.7 632.827 758.6C632.827 768.4 624.827 774.9 613.927 774.9ZM660.109 774.8C651.109 774.8 645.809 768.8 645.809 760.3V731.2H642.109C641.209 731.2 640.409 730.2 640.409 727.1C640.409 723.9 641.209 723 642.209 723H645.809V713.1C645.809 711 652.709 708.1 655.209 708.1C656.109 708.1 656.609 708.6 656.609 709.7V723H666.909C667.709 723 668.309 723.6 668.309 724.4C668.309 726.5 665.309 731.2 663.109 731.2H656.609V756.3C656.609 763.2 659.809 766.4 664.709 766.4C665.309 766.4 667.809 766.2 667.909 766.2C668.509 766.2 668.809 766.5 668.809 767.2C668.809 769.1 664.209 774.8 660.109 774.8ZM695.666 774.9C683.966 774.9 675.566 768.1 675.566 766.2C675.566 764.3 679.466 760.1 680.766 760.1C682.566 760.1 687.366 766.9 695.866 766.9C700.866 766.9 703.866 764.3 703.866 760.1C703.866 755.4 698.866 753.8 693.166 751.9C685.766 749.5 677.366 746.8 677.366 737.7C677.366 728.2 685.366 722.1 697.166 722.1C708.166 722.1 712.966 727 712.966 728.9C712.966 730.7 709.366 735 707.666 735C706.466 735 703.766 729.7 696.266 729.7C691.466 729.7 687.966 732.3 687.966 736.2C687.966 740.9 692.766 742.3 698.266 744C705.766 746.3 714.566 748.7 714.566 758.6C714.566 768.4 706.566 774.9 695.666 774.9Z" fill="#0F189A"/>
</g>
<path d="M485.591 489.747C487.074 491.02 488.557 492.295 490.024 493.586C508.685 509.95 531.518 518.957 556.069 521.639C561.606 522.312 565.315 523.616 569.931 526.802C572.494 530.646 572.237 533.824 572.232 538.282C572.236 539.128 572.241 539.974 572.245 540.845C572.251 542.643 572.251 544.441 572.247 546.239C572.244 548.934 572.267 551.628 572.293 554.323C572.399 583.155 563.201 610.279 544.931 632.802C544.294 633.638 543.658 634.475 543.002 635.337C527.991 654.568 504.603 677.911 480.931 685.802C474.837 686.25 471.586 685.607 466.244 682.364C465.648 682.005 465.052 681.646 464.438 681.276C425.944 657.755 395.307 624.589 383.693 580.337C382.206 573.438 381.758 566.697 381.693 559.665C381.685 558.823 381.677 557.98 381.668 557.112C381.655 555.345 381.644 553.578 381.636 551.81C381.624 550.008 381.604 548.205 381.575 546.402C381.532 543.781 381.516 541.161 381.505 538.54C381.488 537.738 381.47 536.936 381.452 536.109C381.467 532.286 381.671 530.245 383.645 526.881C387.403 523.464 391.103 522.621 396.037 521.942C422.887 518.013 445.084 509.485 465.931 491.802C472.28 486.599 478.364 484.462 485.591 489.747ZM473.056 497.802C449.674 516.102 425.472 527.407 395.705 530.345C392.797 530.547 392.797 530.547 390.931 532.802C390.601 536.022 390.601 536.022 390.63 539.837C390.622 540.896 390.622 540.896 390.613 541.977C390.601 544.273 390.607 546.568 390.619 548.864C390.621 549.643 390.624 550.422 390.626 551.225C390.816 589.419 406.196 619.994 432.931 646.802C443.391 657.139 455.251 665.567 467.556 673.552C468.219 673.995 468.882 674.437 469.565 674.894C472.235 676.582 474.249 677.799 477.455 677.814C480.797 676.448 483.862 674.748 486.931 672.864C487.59 672.463 488.248 672.062 488.927 671.649C495.628 667.489 501.835 662.798 507.931 657.802C508.502 657.339 509.073 656.876 509.662 656.4C537.125 634.029 558.523 603.686 562.931 567.802C563.065 564.96 563.072 562.123 563.064 559.278C563.065 558.492 563.066 557.705 563.067 556.894C563.068 555.245 563.066 553.597 563.062 551.948C563.056 549.413 563.062 546.879 563.068 544.345C563.067 542.739 563.066 541.134 563.064 539.528C563.067 538.388 563.067 538.388 563.07 537.224C563.376 533.721 563.376 533.721 561.931 530.802C560.329 530.516 558.717 530.285 557.103 530.075C528.635 526.137 504.313 517.144 482.281 498.398C477.684 494.315 477.684 494.315 473.056 497.802Z" fill="#0076F6"/>
<path d="M503.931 467.802C505.807 468.278 505.807 468.278 507.72 468.763C535.361 476.193 560.326 495.546 574.619 520.341C590.474 549.001 595.078 580.895 586.306 612.552C583.558 621.879 579.748 630.374 574.931 638.802C574.1 640.291 574.1 640.291 573.251 641.81C568.753 649.365 563.008 655.514 556.931 661.802C556.227 662.557 555.523 663.313 554.798 664.091C535.433 684.397 505.996 695.091 478.318 695.837C445.506 695.964 416.569 683.676 392.931 661.177C379.101 646.958 369.082 628.912 363.931 609.802C363.613 608.644 363.294 607.487 362.966 606.294C358.921 588.733 358.799 568.114 363.931 550.802C364.13 550.105 364.328 549.408 364.533 548.69C369.198 532.553 376.222 518.807 386.931 505.802C387.69 504.878 388.45 503.953 389.232 503.001C416.577 471.36 463.43 456.402 503.931 467.802ZM411.931 490.802C411.074 491.439 410.217 492.075 409.333 492.732C398.642 500.961 389.986 510.31 382.931 521.802C382.545 522.43 382.16 523.057 381.762 523.704C367.127 548.074 362.518 578.343 368.952 606.113C372.378 619.15 377.945 631.923 385.931 642.802C386.801 644.003 386.801 644.003 387.689 645.228C405.628 668.759 430.798 684.571 460.258 688.854C488.43 692.43 516.719 685.499 539.794 668.72C542.219 666.796 544.581 664.817 546.931 662.802C547.542 662.324 548.153 661.845 548.783 661.353C568.677 645.501 581.199 617.855 584.244 593.114C587.275 563.609 579.283 535.382 561.244 511.864C553.599 502.578 545.238 494.095 534.931 487.802C534.354 487.445 533.776 487.088 533.182 486.72C523.767 480.959 514.629 476.707 503.931 473.802C502.834 473.484 501.737 473.165 500.607 472.837C470.403 465.364 436.675 472.051 411.931 490.802Z" fill="#0F189A"/>
<path d="M485.591 489.747C487.074 491.02 488.557 492.295 490.024 493.586C508.685 509.95 531.518 518.957 556.069 521.639C561.606 522.312 565.315 523.616 569.931 526.802C572.494 530.646 572.237 533.824 572.232 538.282C572.236 539.128 572.241 539.974 572.245 540.845C572.251 542.643 572.251 544.441 572.247 546.239C572.244 548.934 572.267 551.628 572.293 554.323C572.399 583.155 563.201 610.279 544.931 632.802C544.294 633.638 543.658 634.475 543.002 635.337C527.991 654.568 504.603 677.911 480.931 685.802C474.837 686.25 471.586 685.607 466.244 682.364C465.648 682.005 465.052 681.646 464.438 681.276C425.944 657.755 395.307 624.589 383.693 580.337C382.206 573.438 381.758 566.697 381.693 559.665C381.685 558.823 381.677 557.98 381.668 557.112C381.655 555.345 381.644 553.578 381.636 551.81C381.624 550.008 381.604 548.205 381.575 546.402C381.532 543.781 381.516 541.161 381.505 538.54C381.488 537.738 381.47 536.936 381.452 536.109C381.467 532.286 381.671 530.245 383.645 526.881C387.403 523.464 391.103 522.621 396.037 521.942C422.887 518.013 445.084 509.485 465.931 491.802C472.28 486.599 478.364 484.462 485.591 489.747ZM467.56 494.61C447.197 511.584 424.587 521.28 398.193 524.297C397.189 524.425 396.185 524.553 395.15 524.685C394.262 524.782 393.375 524.878 392.461 524.978C388.805 526.169 387.235 527.735 384.931 530.802C384.467 533.728 384.296 536.051 384.373 538.962C384.375 539.748 384.377 540.533 384.38 541.343C384.389 543.005 384.411 544.667 384.444 546.328C384.493 548.832 384.506 551.334 384.511 553.839C384.738 586.312 396.864 615.202 418.54 639.255C419.938 640.809 421.312 642.382 422.685 643.958C428.565 650.632 434.883 656.364 441.931 661.802C442.904 662.591 443.878 663.38 444.88 664.192C451.113 669.166 457.562 673.671 464.306 677.927C465.43 678.656 465.43 678.656 466.576 679.399C471.176 682.229 474.38 683.581 479.931 682.802C515.161 669.184 545.603 633.481 560.811 599.857C567.544 584.262 569.479 568.422 569.432 551.559C569.431 549.011 569.473 546.466 569.517 543.919C569.522 542.281 569.525 540.643 569.525 539.005C569.55 537.877 569.55 537.877 569.575 536.726C569.524 532.866 569.067 530.983 566.726 527.868C563.811 525.713 562.165 525.025 558.615 524.544C557.107 524.321 557.107 524.321 555.568 524.094C554.512 523.956 553.456 523.819 552.369 523.677C550.19 523.35 548.012 523.021 545.834 522.689C544.801 522.536 543.768 522.383 542.704 522.225C521.426 518.977 500.668 507.87 485.166 493.122C482.673 490.8 480.971 489.811 477.619 489.052C473.129 489.965 471.023 491.71 467.56 494.61Z" fill="#0076F6"/>
<path d="M480.931 489.802C483.237 491.39 485.01 492.825 486.994 494.739C507.818 513.485 533.436 522.234 561.126 524.982C564.969 526.105 566.438 527.676 568.931 530.802C569.408 533.739 569.589 536.079 569.525 539.005C569.525 539.801 569.525 540.597 569.525 541.417C569.52 543.105 569.502 544.793 569.473 546.481C569.432 549.003 569.432 551.522 569.439 554.044C569.385 568.332 568.058 582.476 562.369 595.739C562.024 596.566 561.68 597.392 561.325 598.244C545.686 634.771 517.022 662.139 482.931 681.802C478.734 683.201 475.076 683.719 470.887 681.928C468.634 680.673 466.47 679.331 464.306 677.927C463.516 677.427 462.725 676.928 461.911 676.413C454.927 671.935 448.335 667.079 441.931 661.802C441.081 661.112 441.081 661.112 440.214 660.408C415.149 639.994 397.565 615.012 388.181 583.989C387.97 583.296 387.759 582.602 387.541 581.888C387.345 581.214 387.149 580.54 386.947 579.845C386.688 578.963 386.688 578.963 386.424 578.064C384.529 569.368 384.644 560.517 384.581 551.665C384.564 549.959 384.537 548.253 384.499 546.548C384.444 544.066 384.422 541.585 384.408 539.103C384.385 538.344 384.362 537.586 384.339 536.804C384.355 532.904 384.778 531.006 387.138 527.853C390.057 525.71 391.599 525.072 395.15 524.685C396.154 524.557 397.158 524.429 398.193 524.297C399.261 524.175 400.33 524.053 401.431 523.927C426.477 520.456 448.157 511.101 467.419 494.681C468.186 494.04 468.953 493.399 469.744 492.739C470.389 492.171 471.035 491.602 471.701 491.017C475.01 489.214 477.218 489.297 480.931 489.802ZM467.369 497.739C466.135 498.759 464.898 499.775 463.658 500.786C463.035 501.296 462.413 501.806 461.772 502.331C442.931 517.384 418.982 525.259 395.154 527.247C391.628 527.854 390.356 528.211 387.931 530.802C387.536 533.546 387.394 535.883 387.435 538.626C387.434 539.405 387.432 540.184 387.431 540.987C387.432 542.644 387.444 544.301 387.465 545.957C387.493 548.436 387.485 550.911 387.472 553.39C387.523 590.197 403.295 619.33 427.931 645.802C428.582 646.519 429.233 647.235 429.904 647.974C440.807 659.487 454.413 668.634 467.931 676.802C468.506 677.187 469.08 677.572 469.672 677.969C472.545 679.809 474.497 680.804 477.939 680.79C481.522 679.607 484.619 677.97 487.806 675.989C488.451 675.594 489.096 675.199 489.76 674.792C502.17 667.031 513.416 657.957 523.931 647.802C524.792 646.992 525.653 646.183 526.54 645.349C547.904 624.781 565.243 594.62 566.108 564.453C566.135 562.907 566.155 561.36 566.169 559.814C566.182 558.576 566.182 558.576 566.194 557.314C566.208 555.585 566.218 553.856 566.226 552.128C566.238 550.36 566.259 548.592 566.288 546.824C566.33 544.258 566.347 541.693 566.357 539.126C566.383 537.94 566.383 537.94 566.41 536.73C566.42 532.385 566.42 532.385 564.163 528.83C561.936 527.804 560.226 527.299 557.798 527.028C556.603 526.879 556.603 526.879 555.383 526.727C554.533 526.628 553.682 526.529 552.806 526.427C525.765 522.78 500.459 512.33 480.931 492.802C474.807 491.976 471.797 493.835 467.369 497.739Z" fill="#0E0000"/>
<path d="M491.931 613.802C492.795 614.162 493.658 614.521 494.548 614.892C497.056 616.302 497.056 616.302 500.931 620.802C500.931 627.072 500.931 633.342 500.931 639.802C484.431 639.802 467.931 639.802 450.931 639.802C450.931 621.802 450.931 621.802 455.931 616.802C458.501 615.255 458.501 615.255 461.056 614.052C461.904 613.645 462.753 613.237 463.626 612.817C472.485 608.914 483.204 609.899 491.931 613.802Z" fill="#DE6054"/>
<path d="M460.931 603.802C461.921 604.462 462.911 605.122 463.931 605.802C463.931 606.792 463.931 607.782 463.931 608.802C463.184 609.165 462.436 609.529 461.666 609.903C453.857 613.809 453.857 613.809 448.931 620.802C448.271 623.442 447.611 626.082 446.931 628.802C437.691 628.802 428.451 628.802 418.931 628.802C418.776 624.502 418.776 624.502 418.619 620.114C418.573 619.22 418.528 618.326 418.481 617.405C418.408 613.197 418.518 611.348 421.13 607.892C423.721 605.958 426.136 604.427 429.056 603.052C429.904 602.645 430.753 602.237 431.626 601.818C441.304 597.553 451.644 599.369 460.931 603.802Z" fill="#037AFD"/>
<path d="M527.792 604.942C530.661 607.008 532.624 608.552 533.489 612.069C533.62 614.649 533.544 617.098 533.369 619.677C533.224 622.688 533.08 625.699 532.931 628.802C523.691 628.802 514.451 628.802 504.931 628.802C503.941 625.172 502.951 621.542 501.931 617.802C497.685 613.229 493.735 610.934 487.931 608.802C487.931 607.812 487.931 606.822 487.931 605.802C489.512 604.984 491.096 604.173 492.681 603.364C493.563 602.912 494.445 602.459 495.353 601.993C505.737 597.195 518.253 599.097 527.792 604.942Z" fill="#037AFD"/>
<path d="M482.966 502.485C488.594 505.466 493.173 510.526 495.408 516.521C498.44 529.737 494.434 538.653 487.931 549.802C487.601 550.462 487.271 551.122 486.931 551.802C479.671 551.802 472.411 551.802 464.931 551.802C463.632 549.409 462.332 547.017 460.994 544.552C460.381 543.432 460.381 543.432 459.756 542.289C459.272 541.391 459.272 541.391 458.779 540.474C458.449 539.866 458.119 539.259 457.779 538.633C454.639 531.853 454.71 522.909 456.802 515.872C459.37 510.332 462.769 506.117 467.931 502.802C472.762 501.192 478.079 500.844 482.966 502.485ZM465.744 514.177C462.293 519.174 461.026 523.718 461.931 529.802C463.012 532.943 464.415 535.851 465.931 538.802C466.921 540.782 467.911 542.762 468.931 544.802C473.551 544.802 478.171 544.802 482.931 544.802C489.402 533.982 489.402 533.982 489.931 521.802C488.297 516.64 486.317 513.044 481.931 509.802C474.941 507.743 470.707 508.788 465.744 514.177Z" fill="#DE6054"/>
<path d="M479.931 577.802C484.42 580.089 486.702 582.331 488.931 586.802C489.764 592.374 489.677 597.283 487.181 602.364C482.437 607.504 482.437 607.504 478.564 608.271C474.203 608.325 470.94 608.352 467.431 605.552C462.983 600.659 462.485 597.063 462.615 590.564C463.202 585.434 465.238 582.26 469.181 578.864C472.835 577.453 476.103 577.126 479.931 577.802Z" fill="#DE6054"/>
<path d="M512.931 566.802C516.778 568.851 519.34 571.756 520.931 575.802C521.601 581.396 521.686 586.265 519.181 591.364C518.439 592.169 517.696 592.973 516.931 593.802C516.374 594.421 515.817 595.039 515.244 595.677C511.516 597.49 507.981 597.56 503.931 596.802C500.085 594.753 497.522 591.847 495.931 587.802C495.261 582.208 495.176 577.338 497.681 572.239C498.424 571.435 499.166 570.631 499.931 569.802C500.488 569.183 501.045 568.564 501.619 567.927C505.346 566.113 508.881 566.044 512.931 566.802Z" fill="#037AFD"/>
<path d="M447.931 566.802C451.778 568.851 454.34 571.756 455.931 575.802C456.601 581.396 456.686 586.265 454.181 591.364C453.439 592.169 452.696 592.973 451.931 593.802C451.374 594.421 450.817 595.039 450.244 595.677C446.516 597.49 442.981 597.56 438.931 596.802C435.085 594.753 432.522 591.847 430.931 587.802C430.261 582.208 430.176 577.338 432.681 572.239C433.424 571.435 434.166 570.631 434.931 569.802C435.488 569.183 436.045 568.564 436.619 567.927C440.346 566.113 443.881 566.044 447.931 566.802Z" fill="#037AFD"/>
<path d="M475.931 511.802C476.591 511.802 477.251 511.802 477.931 511.802C477.931 515.102 477.931 518.402 477.931 521.802C480.571 521.472 483.211 521.142 485.931 520.802C485.384 525.808 483.69 529.774 481.369 534.177C481.039 534.818 480.71 535.458 480.371 536.118C479.565 537.683 478.749 539.243 477.931 540.802C477.271 540.802 476.611 540.802 475.931 540.802C475.931 537.502 475.931 534.202 475.931 530.802C473.291 531.462 470.651 532.122 467.931 532.802C468.507 527.599 470.225 523.562 472.494 518.927C472.823 518.239 473.152 517.55 473.492 516.841C474.298 515.158 475.114 513.479 475.931 511.802Z" fill="black"/>
<path d="M470.931 554.669C471.736 554.668 472.54 554.667 473.369 554.665C474.214 554.669 475.06 554.673 475.931 554.677C477.2 554.671 477.2 554.671 478.494 554.665C479.298 554.667 480.102 554.668 480.931 554.669C481.674 554.67 482.416 554.671 483.181 554.673C484.931 554.802 484.931 554.802 485.931 555.802C485.931 557.452 485.931 559.102 485.931 560.802C479.661 560.802 473.391 560.802 466.931 560.802C466.601 559.152 466.271 557.502 465.931 555.802C467.453 554.28 468.813 554.672 470.931 554.669Z" fill="#DE6054"/>
<path d="M470.931 563.802C474.231 563.802 477.531 563.802 480.931 563.802C480.056 568.677 480.056 568.677 478.931 569.802C475.994 569.989 475.994 569.989 472.931 569.802C472.271 569.142 471.611 568.482 470.931 567.802C470.931 566.482 470.931 565.162 470.931 563.802Z" fill="#DE6054"/>
<path d="M471.931 564.802C474.571 564.802 477.211 564.802 479.931 564.802C479.271 566.122 478.611 567.442 477.931 568.802C476.281 568.472 474.631 568.142 472.931 567.802C472.601 566.812 472.271 565.822 471.931 564.802Z" fill="#DE6054"/>
</g>
<defs>
<filter id="filter0_d_377_10" x="237.8" y="702" width="480.766" height="104.2" filterUnits="userSpaceOnUse" color-interpolation-filters="sRGB">
<feFlood flood-opacity="0" result="BackgroundImageFix"/>
<feColorMatrix in="SourceAlpha" type="matrix" values="0 0 0 0 0 0 0 0 0 0 0 0 0 0 0 0 0 0 127 0" result="hardAlpha"/>
<feOffset dy="4"/>
<feGaussianBlur stdDeviation="2"/>
<feComposite in2="hardAlpha" operator="out"/>
<feColorMatrix type="matrix" values="0 0 0 0 0.766921 0 0 0 0 0.0248737 0 0 0 0 0.0248737 0 0 0 0.5 0"/>
<feBlend mode="normal" in2="BackgroundImageFix" result="effect1_dropShadow_377_10"/>
<feBlend mode="normal" in="SourceGraphic" in2="effect1_dropShadow_377_10" result="shape"/>
</filter>
<clipPath id="clip0_377_10">
<rect width="951" height="891" fill="white"/>
</clipPath>
</defs>
</svg>
